<?xml version="1.0" encoding="utf-8"?>
<!-- Generator: Adobe Illustrator 16.0.0, SVG Export Plug-In . SVG Version: 6.00 Build 0)  -->
<!DOCTYPE svg PUBLIC "-//W3C//DTD SVG 1.1//EN" "http://www.w3.org/Graphics/SVG/1.1/DTD/svg11.dtd">
<svg version="1.1" id="Layer_1" xmlns="http://www.w3.org/2000/svg" xmlns:xlink="http://www.w3.org/1999/xlink" x="0px" y="0px"
	 width="177px" height="217px" viewBox="0 0 177 217" enable-background="new 0 0 177 217" xml:space="preserve">
<g id="WAmTCa_5_">
	<g>
		<g>
			<path fill-rule="evenodd" clip-rule="evenodd" fill="#82CBB5" d="M67.207,156.229c0.457-0.041,0.864-0.307,1.34-0.326
				c0.337-0.014,0.453,0.121,0.551,0.406c0.115,0.355,0.268,0.707,0.336,1.08c0.091,0.484,0.397,0.623,0.753,0.746
				c0.133,0.047,0.299,0.082,0.348-0.096c0.047-0.189,0.026-0.416-0.158-0.533c-0.093-0.063-0.224-0.053-0.328-0.097
				c-0.198-0.097-0.383-0.279-0.395-0.495c-0.032-0.413-0.04-0.801-0.315-1.133c-0.078-0.092-0.017-0.275,0.113-0.311
				c0.346-0.097,0.654-0.215,0.735-0.682c0.017-0.11,0.133-0.125,0.226-0.132c0.948-0.077,1.323-0.923,1.789-1.653
				c0.095-0.156,0.01-0.295-0.098-0.402c-0.547-0.578-0.854-1.289-1.13-2.067c-0.195-0.55-0.393-1.03-0.33-1.653
				c0.03-0.305-0.211-0.682-0.346-0.992c-0.136-0.316-0.243-0.659-0.409-0.965c-0.433-0.809-0.533-1.666-0.485-2.574
				c0.006-0.247,0.042-0.498-0.207-0.574c-0.524-0.172-0.587-0.654-0.683-1.155c0,0.452-0.133,0.845-0.284,1.24
				c-0.125,0.353-0.313,0.579-0.657,0.553c-0.458-0.03-0.732,0.253-0.929,0.647c-0.35,0.686-0.955,1.11-1.326,1.756
				c-0.101,0.157-0.273,0.301-0.439,0.361c-0.365,0.137-0.698,0.331-0.999,0.61c-0.158,0.147-0.382,0.225-0.586,0.121
				c-0.315-0.147-0.613-0.3-0.966-0.249c-0.045,0.002-0.114-0.007-0.134-0.031c-0.436-0.712-1.273-0.854-1.738-1.541
				c-0.243-0.366-0.457-0.707-0.323-1.182c0.083-0.304,0.048-0.697,0.511-0.647c0.134,0.014,0.535-0.779,0.509-0.935
				c-0.021-0.148-0.148-0.277-0.231-0.223c-0.33,0.213-0.875-0.029-1.023,0.579c-0.025,0.114-0.127,0.146-0.221,0.114
				c-0.104-0.033-0.145-0.141-0.145-0.242c0.004-0.464,0.067-0.922,0.301-1.316c0.154-0.262,0.255-0.453,0.018-0.732
				c-0.2-0.23-0.134-0.52,0.027-0.774c0.089-0.147,0.192-0.286,0.278-0.415c-0.006-0.24-0.202-0.186-0.297-0.277
				c-0.333-0.319-0.381-0.553-0.125-0.979c0.138-0.232,0.193-0.348-0.058-0.545c-0.4-0.325-0.451-0.818-0.306-1.315
				c0.107-0.376,0.172-0.722,0.021-1.11c-0.134-0.35-0.048-0.707,0.144-1.023c0.141-0.216,0.115-0.369-0.049-0.6
				c-0.33-0.459-0.299-0.709,0.009-1.202c0.047-0.086,0.113-0.171,0.125-0.267c0.126-0.629,0.124-0.629,0.657-0.711
				c0.137-0.026,0.271-0.051,0.413-0.07c0.104-0.141-0.059-0.225-0.059-0.336c-0.023-0.49,0.101-0.599,0.517-0.467
				c0.407,0.127,0.422,0.127,0.414-0.354c0-0.312,0.118-0.462,0.371-0.556c0.266-0.11,0.529-0.144,0.81-0.106
				c0.191,0.021,0.403,0.139,0.578-0.058c-0.021-0.26-0.202-0.182-0.317-0.203c-0.315-0.072-0.386-0.352-0.41-0.631
				c-0.024-0.299,0.162-0.514,0.399-0.539c0.339-0.027,0.541-0.158,0.645-0.534c0.065-0.202,0.277-0.263,0.435-0.362
				c0.181-0.107,0.182-0.234,0.085-0.432c-0.216-0.447-0.188-0.598,0.084-0.717c0.279-0.128,0.435,0,0.559,0.441
				c0.019,0.072,0.019,0.141,0.026,0.225c0.236-0.031,0.372-0.225,0.369-0.398c-0.008-0.308,0.021-0.674-0.22-0.885
				c-0.229-0.207-0.192-0.299,0.026-0.429c0.144-0.089,0.282-0.172,0.416-0.266c0.155-0.11,0.312-0.179,0.405,0.034
				c0.148,0.326,0.567,0.236,0.678,0.607c0.048,0.148,0.183,0.119,0.298,0.062c0.187-0.095,0.368-0.184,0.608-0.299
				c-0.348-0.442-0.278-0.83,0.171-1.134c0.067-0.048,0.118-0.163,0.133-0.253c0.17-1.025,0.904-1.64,1.407-2.416
				c0.135-0.202,0.295-0.146,0.489-0.045c0.367,0.192,0.483,0.078,0.423-0.371c-0.016-0.123-0.068-0.238-0.106-0.358
				c-0.054-0.212-0.057-0.472,0.068-0.592c0.493-0.491,0.625-1.499,1.665-1.322c-0.534-0.452-0.503-0.44-0.307-0.979
				c0.197-0.552,0.411-1.068,0.738-1.539c0.144-0.196,0.276-0.476-0.021-0.738c-0.251-0.216-0.118-0.527,0.078-0.643
				c0.439-0.248,0.356-0.965,0.872-1.121c0.07-0.025,0.04-0.127,0.032-0.201c-0.146-0.838,0.065-1.544,0.612-2.138
				c0.08-0.089,0.196-0.151,0.196-0.293c-0.021-0.448,0.246-0.634,0.55-0.778c0.372-0.161,0.58-0.549,0.562-0.891
				c-0.041-0.6,0.325-0.936,0.509-1.387c0.118-0.281,0.378-0.548,0.735-0.295c0.075,0.055,0.162,0.151,0.217,0
				c0.139-0.354,0.512-0.603,0.416-1.125c-0.298,0.053-0.401,0.388-0.616,0.533c-0.187,0.116-0.384,0.248-0.546-0.005
				c-0.135-0.209,0.101-0.899,0.327-0.948c0.544-0.116,1.008-0.33,1.183-0.992c0.016-0.064,0.085-0.11,0.133-0.168
				c0.409-0.521,0.493-0.506,0.762,0.141c0.033,0.069,0.054,0.142,0.207,0.142c-0.112-0.361,0.053-0.724-0.12-1.1
				c-0.148-0.311,0.048-0.54,0.268-0.691c0.284-0.205,0.241-0.392,0.03-0.605c0.119-0.134,0.237-0.264,0.355-0.394
				c0.125-0.17,0.336-0.267,0.273-0.572c-0.109-0.484,0.254-0.737,0.465-1.05c0.166-0.262,0.429-0.055,0.66-0.112
				c0.062-0.288,0.128-0.576,0.22-1.034c-0.345,0.376-0.637,0.555-0.983,0.592c-0.28,0.031-0.438-0.108-0.33-0.371
				c0.104-0.232,0.031-0.438,0.064-0.65c0.048-0.415,0.088-0.857,0.464-1.139c0.205-0.156,0.33-0.427,0.502-0.625
				c0.22-0.239,0.527-0.229,0.717,0.047c0.183,0.24,0.251,0.627,0.676,0.4c0.086-0.048,0.181,0.124,0.238,0.243
				c0.085,0.207,0.137,0.431,0.428,0.528c-0.188-0.459-0.301-0.898-0.74-1.076c-0.243-0.095-0.289-0.231-0.138-0.522
				c0.19-0.363,0.488-0.585,0.731-0.878c0.272-0.341,0.376-0.649,0.242-1.102c-0.138-0.438-0.022-0.55,0.38-0.52
				c0.385,0.031,0.666,0.319,1.012,0.453c0.189,0.075,0.143,0.28,0.095,0.463c-0.149,0.567-0.141,0.567,0.33,0.891
				c0.237-0.185,0.294-0.508,0.471-0.739c0.088-0.121,0.207-0.213,0.355-0.183c0.164,0.032,0.193,0.196,0.229,0.344
				c0.068,0.251,0.085,0.501,0.031,0.756c-0.042,0.238-0.087,0.485,0.017,0.76c0.221-0.223,0.099-0.474,0.146-0.678
				c0.087-0.381,0.252-0.719,0.481-1.01c0.087-0.11,0.25-0.273,0.345-0.148c0.3,0.383,0.289,0.064,0.324-0.147
				c0.023-0.127,0.012-0.259,0.165-0.354c0.361,0.101,0.51,0.521,0.78,0.783c0.276-0.684,0.28-0.692-0.168-1.096
				c-0.2-0.175-0.296-0.38-0.295-0.658c0.003-0.301,0.003-0.453,0.401-0.484c0.473-0.037,0.808-0.053,0.954,0.555
				c0.104-0.196,0.354-0.168,0.27-0.498c-0.135-0.523-0.104-0.536,0.385-0.543c0.315-0.002,0.404-0.129,0.315-0.431
				c-0.041-0.147-0.113-0.191-0.253-0.165c-0.18,0.038-0.362,0.043-0.542,0.086c-0.214,0.042-0.33-0.027-0.434-0.258
				c-0.25-0.585-0.262-0.594,0.259-0.942c0.157-0.104,0.315-0.193,0.503-0.23c0.66-0.132,0.89,0.06,0.95,0.897
				c0.387-0.099,0.75-0.055,0.931,0.462c0.055-0.374-0.085-0.646-0.118-0.953c-0.017-0.173-0.051-0.378,0.135-0.466
				c0.179-0.09,0.298,0.068,0.425,0.171c0.181,0.139,0.169,0.418,0.32,0.59c0.347-0.201,0.529-0.418,0.254-0.834
				c-0.12-0.183-0.103-0.394,0.1-0.526c0.151-0.103,0.183-0.29,0.277-0.428c0.235-0.372,0.689-0.372,0.943-0.012
				c0.193,0.279,0.358,0.539,0.722,0.269c0.146-0.117,0.318-0.054,0.435,0.099c0.101,0.137,0.057,0.291,0.004,0.436
				c-0.114,0.314-0.313,0.57-0.494,0.829c-0.266,0.403-0.455,0.825-0.455,1.338c0.002,0.394-0.078,0.761-0.301,1.08
				c-0.071,0.099-0.131,0.222-0.007,0.387c0.185-0.166,0.29-0.387,0.354-0.625c0.36-1.353,1.21-2.402,1.787-3.622
				c0.083-0.18,0.227-0.349,0.435-0.299c0.216,0.048,0.253,0.279,0.288,0.483c0.023,0.166,0.056,0.388-0.018,0.52
				c-0.259,0.53-0.009,1.017-0.009,1.516c0.158,0.022,0.247-0.033,0.277-0.137c0.275-0.999,0.879-1.863,0.989-2.928
				c0.023-0.253,0.118-0.383,0.366-0.269c0.084,0.033,0.185,0.073,0.262,0.042c0.22-0.083,0.449-0.198,0.632,0.056
				c0.156,0.206,0.394,0.367,0.432,0.667c0.069,0.474-0.202,0.855-0.764,1.06c-0.033,0.127,0.032,0.205,0.113,0.249
				c0.375,0.198,0.448,0.481,0.219,0.865c-0.04,0.063-0.079,0.132-0.094,0.204c-0.031,0.172,0.076,0.225,0.188,0.255
				c0.136,0.036,0.261-0.031,0.243-0.18c-0.04-0.416,0.021-0.821,0.079-1.221c0.085-0.613,0.376-0.842,0.888-0.825
				c0.276,0.011,0.474,0.147,0.511,0.407c0.071,0.442,0.311,0.471,0.621,0.442c0.363-0.034,0.669,0.127,0.898,0.427
				c0.33,0.42,0.8,0.656,1.121,1.083c0.351,0.446,0.351,0.73-0.071,1.073c-0.076,0.062-0.172,0.086-0.231,0.157
				c-0.762,0.829-1.622,1.223-2.707,0.719c0.284,0.451,0.62,0.768,1.038,0.931c0.268,0.114,0.411,0.263,0.456,0.592
				c0.048,0.433,0.4,0.545,0.684,0.229c0.157-0.171,0.312-0.171,0.502-0.161c0.527,0.022,0.952,0.326,1.451,0.733
				c-0.041-0.599,0.516-0.782,0.482-1.316c-0.004-0.163,0.143-0.192,0.259-0.147c0.153,0.055,0.309,0.113,0.443,0.211
				c0.337,0.246,0.649,0.554,1.067,0.662c0.286,0.081,0.392,0.334,0.308,0.667c-0.089,0.374-0.321,0.571-0.635,0.571
				c-0.291,0.007-0.504-0.242-0.802-0.292c0.355,0.609,1.004,0.643,1.479,1.006c0.14,0.115,0.352,0.106,0.408,0.367
				c0.054,0.255,0.25,0.345,0.428,0.262c0.717-0.338,1.338,0.15,1.993,0.28c0.243,0.044,0.449,0.165,0.722,0.063
				c0.363-0.141,0.74,0.015,1.062,0.196c0.393,0.218,0.787,0.456,1.116,0.764c0.764,0.693,1.559,1.353,2.248,2.145
				c0.351,0.407,0.743,0.772,0.95,1.307c0.058,0.154,0.178,0.376,0.355,0.194c0.252-0.275,0.379-0.053,0.489,0.127
				c0.188,0.297,0.387,0.581,0.66,0.776c0.215,0.156,0.402,0.649,0.762,0.163c0.067-0.09,0.221,0.03,0.291,0.132
				c0.149,0.193,0.285,0.4,0.423,0.601c0.297,0.397,0.467,0.901,0.995,1.08c0.304,0.101,0.432,0.476,0.504,0.854
				c0.141,0.721,0.162,1.465,0.486,2.141c0.134,0.266,0.043,0.609-0.04,0.901c-0.788,2.665-3.028,4.634-5.796,4.139
				c-0.295-0.052-0.571-0.153-0.815-0.364c-0.297-0.264-0.654-0.408-1.017-0.453c-1.07-0.137-2.029-0.584-2.935-1.191
				c-0.188-0.116-0.366-0.244-0.583-0.172c-0.335,0.117-0.529-0.023-0.646-0.367c-0.03-0.088-0.104-0.23-0.185-0.191
				c-0.481,0.244-0.803-0.244-1.201-0.35c-0.562-0.145-1.008-0.601-1.258-1.221c-0.155-0.391-0.401-0.604-0.851-0.476
				c0.342,0.711,0.646,1.393,0.99,2.04c0.19,0.35,0.479,0.609,0.832,0.775c0.144,0.069,0.372,0.084,0.414,0.25
				c0.218,0.778,0.903,0.921,1.395,1.334c0.434,0.363,0.631,0.938,0.716,1.439c0.105,0.695,0.175,1.496-0.393,2.071
				c-0.199,0.2-0.189,0.411-0.07,0.618c0.275,0.481,0.29,1.061,0.526,1.57c0.157,0.348,0.065,0.759,0.085,1.137
				c0.019,0.324,0.096,0.604,0.277,0.844c0.189,0.244,0.393,0.453,0.711,0.314c0.288-0.121,0.484,0.023,0.663,0.255
				c0.065,0.075,0.128,0.149,0.175,0.235c0.471,0.883,1.305,1.176,2.077,1.531c0.614,0.279,1.312-0.402,1.21-1.124
				c-0.018-0.125-0.048-0.253-0.069-0.376c-0.13-0.619-0.134-0.648-0.674-0.469c-0.323,0.105-0.539,0.016-0.718-0.258
				c-0.31-0.477-0.627-0.939-0.906-1.443c-0.182-0.314-0.26-0.664,0.109-0.935c0.212-0.152,0.253-0.418,0.315-0.66
				c0.095-0.352,0.3-0.433,0.586-0.312c0.345,0.144,0.713,0.312,0.939,0.622c0.417,0.574,0.992,0.771,1.569,0.986
				c0.28,0.107,0.577,0.167,0.828,0.377c0.4,0.336,0.793,0.629,1.376,0.418c0.322-0.117,0.688,0.246,1.152,0.187
				c-0.216-0.79-0.469-1.517-0.882-2.163c-0.357-0.552-0.591-1.152-0.647-1.83c-0.031-0.391,0.038-0.693,0.395-0.887
				c0.375-0.209,0.675-0.526,0.872-0.957c0.1-0.238,0.278-0.439,0.511-0.48c1.021-0.151,1.452-1.07,1.993-1.85
				c0.064-0.102,0.104-0.232,0.168-0.337c0.235-0.368,0.36-0.413,0.661-0.128c0.252,0.232,0.52,0.3,0.814,0.352
				c0.479,0.076,0.904,0.303,1.076,0.837c0.14,0.429,0.69,0.372,0.66,0.955c0.248-0.247,0.225-0.452,0.164-0.646
				c-0.164-0.523-0.074-1.033,0.17-1.479c0.37-0.653,0.27-1.381,0.329-2.085c0.023-0.362-0.133-0.72-0.505-0.819
				c-0.523-0.146-0.603-0.576-0.571-1.066c0.018-0.301,0.069-0.607,0.155-0.902c0.3-1.066,0.348-2.156,0.371-3.258
				c0.013-0.475-0.104-0.823-0.449-1.12c-0.344-0.299-0.684-0.616-0.942-1.012c-0.068-0.102-0.115-0.229-0.021-0.343
				c0.069-0.095,0.173-0.071,0.259-0.044c0.062,0.018,0.132,0.048,0.188,0.087c0.726,0.579,1.558,0.542,2.383,0.524
				c0.372-0.009,0.73,0.044,1.085,0.171c0.369,0.134,0.633,0.361,0.747,0.814c0.094,0.361,0.231,0.722,0.612,0.859
				c0.181,0.055,0.207,0.259,0.231,0.437c0.044,0.251,0.074,0.506,0.122,0.755c0.156,0.78,0.156,0.78-0.5,0.95
				c-0.158,0.043-0.32,0.1-0.479,0.1c-0.768,0.009-1.092,0.66-1.447,1.24c-0.152,0.249-0.104,0.568,0.099,0.775
				c0.536,0.551,0.926,1.191,1.228,1.923c0.121,0.31,0.343,0.481,0.668,0.295c0.126-0.068,0.276-0.123,0.384,0.022
				c0.121,0.158,0.229,0.062,0.367,0.045c0.931-0.172,1.616-0.561,1.438-1.826c-0.027-0.16,0.085-0.34,0.107-0.514
				c0.095-0.871,0.425-1.499,1.29-1.598c0.175-0.014,0.313-0.127,0.336-0.328c0.046-0.389,0.299-0.497,0.565-0.682
				c0.889-0.629,1.83-1.184,2.59-2.029c0.046-0.051,0.092-0.121,0.149-0.154c0.699-0.367,1.396-0.739,2.104-1.089
				c0.31-0.15,0.523,0.029,0.677,0.332c0.058,0.11,0.133,0.236,0.269,0.119c0.094-0.085,0.116-0.211,0.085-0.352
				c-0.051-0.204-0.367-0.325-0.195-0.592c0.149-0.227,0.321-0.435,0.513-0.62c0.256-0.253,0.406-0.176,0.416,0.22
				c0.004,0.062,0.067,0.117,0.097,0.165c0.187,0.007,0.194-0.133,0.2-0.262c0.028-0.648,0.372-1.025,0.881-1.234
				c0.493-0.202,1.031-0.095,1.636-0.348c-0.25,0.667-0.723,0.521-1.082,0.729c0.208,0.409,0.187,0.829,0.062,1.254
				c-0.143,0.517,0.076,1.012,0.116,1.516c0.009,0.159,0.146,0.26,0.3,0.247c0.204-0.021,0.337,0.087,0.488,0.229
				c0.281,0.275,0.438,0.216,0.462-0.223c0.026-0.657,0.363-1.042,0.811-1.329c0.354-0.222,0.787-0.272,1.133-0.534
				c0.532,0.235,1.124-0.024,1.656,0.222c0.488,0.231,0.476,0.22,0.803-0.267c0.519-0.763,1.143-1.384,1.96-1.729
				c0.579-0.242,0.589-0.242,0.877,0.372c0.065,0.137,0.135,0.271,0.221,0.385c0.291,0.381,0.386,0.744-0.006,1.123
				c-0.119,0.116-0.165,0.308-0.174,0.493c-0.013,0.305,0.063,0.55,0.314,0.717c0.174,0.114,0.346,0.127,0.511-0.018
				c0.205-0.185,0.354-0.405,0.276-0.728c-0.03-0.125-0.063-0.244-0.071-0.372c-0.016-0.319,0.071-0.521,0.393-0.599
				c1.109-0.281,1.447-0.952,1.133-2.187c-0.11-0.447-0.244-0.871-0.453-1.278c-0.281-0.552-0.306-0.715-0.343-1.443
				c-0.562,0.128-1.021,0.004-1.257-0.669c-0.054-0.171-0.265-0.229-0.344,0.06c-0.065,0.237-0.229,0.319-0.333,0.099
				c-0.263-0.566-0.637-1.049-0.865-1.65c-0.29-0.761,0.058-1.318,0.347-1.896c0.143-0.289,0.401-0.312,0.559-0.046
				c0.574,0.968,1.509,1.567,2.057,2.561c0.151,0.282,0.335,0.55,0.532,0.874c0.169-0.121,0.281-0.376,0.524-0.387
				c0.213-0.013,0.424,0.026,0.598,0.147c0.432,0.286,0.919,0.387,1.391,0.374c0.913-0.022,1.68,0.429,2.479,0.794
				c0.484,0.224,0.989,0.376,1.357,0.862c0.257,0.335,0.411,0.665,0.394,1.096c0,0.182,0.018,0.368-0.002,0.542
				c-0.084,0.821,0.05,1.584,0.469,2.277c0.368,0.618,0.327,1.252,0.087,1.898c-0.119,0.308-0.238,0.619-0.238,0.958
				c-0.009,0.602,0.308,0.944,0.833,0.904c0.653-0.044,0.755,0.055,0.802,0.801c0.018,0.328,0.033,0.664,0.019,0.996
				c-0.021,0.595-0.229,1.105-0.701,1.412c-0.26,0.168-0.402,0.379-0.474,0.705c-0.14,0.621-0.479,1.101-0.967,1.439
				c-0.354,0.248-0.71,0.488-1.062,0.713c-0.567,0.354-0.989,0.844-1.1,1.581c-0.102,0.702-0.458,1.19-0.952,1.622
				c-1.1,0.973-2.082,2.074-2.881,3.384c-0.429,0.697-0.993,1.3-1.89,1.104c-0.27-0.055-0.488,0.097-0.481,0.404
				c0.057,1.479-0.566,2.783-0.853,4.172c-0.099,0.459-0.134,0.906-0.015,1.364c0.146,0.571,0.081,1.113-0.161,1.636
				c-0.131,0.271-0.214,0.564-0.329,0.844c-0.095,0.235-0.095,0.424,0.105,0.609c0.279,0.249,0.301,0.615,0.263,0.981
				c-0.023,0.229-0.057,0.466-0.109,0.68c-0.229,0.821-0.158,1.624,0.092,2.417c0.137,0.41,0.205,0.839,0.181,1.279
				c-0.021,0.35-0.054,0.664-0.461,0.717c-0.268,0.031-0.253,0.275-0.184,0.471c0.071,0.212,0.19,0.408,0.306,0.605
				c0.496,0.862,0.648,1.721,0.051,2.632c-0.315,0.471-0.527,1.022-0.982,1.366c-0.189,0.141-0.251,0.356-0.22,0.605
				c0.03,0.201,0.055,0.412-0.018,0.609c-0.096,0.254,0.006,0.439,0.146,0.625c0.198,0.248,0.363,0.527,0.577,0.763
				c0.525,0.581,0.689,1.312,0.746,2.091c0.041,0.571-0.212,1.049-0.503,1.476c-0.291,0.431-0.596,0.852-0.943,1.224
				c-0.421,0.462-0.739,0.977-0.941,1.586c-0.19,0.578-0.363,1.16-0.52,1.754c-0.135,0.492-0.144,1.01-0.081,1.518
				c0.133,1.059,0.587,1.431,1.519,1.25c1.223-0.237,1.5,0.074,1.312,1.445c-0.027,0.179-0.055,0.35-0.086,0.526
				c-0.206,1.189-1.197,1.681-2.14,1.069c-0.019-0.014-0.037-0.031-0.053-0.045c-0.253-0.162-0.506-0.471-0.804-0.178
				c-0.29,0.275-0.086,0.621-0.003,0.929c0.075,0.293,0.168,0.583,0.284,0.86c0.255,0.576,0.969,1.003,1.538,0.961
				c0.248-0.018,0.438-0.156,0.592-0.355c0.325-0.438,0.802-0.588,1.253-0.766c0.375-0.152,0.592,0.043,0.542,0.486
				c-0.099,0.893-0.22,1.764-0.91,2.406c-0.385,0.354-0.592,0.904-0.854,1.387c-0.099,0.184-0.136,0.381-0.094,0.592
				c0.15,0.726,0.304,1.445,0.451,2.166c0.072,0.363,0.229,0.521,0.583,0.451c0.221-0.046,0.455-0.03,0.684-0.004
				c0.363,0.031,0.632,0.238,0.652,0.653c0.048,0.942,0.731,1.276,1.298,1.698c0.354,0.267,0.729,0.502,1.185,0.561
				c0.355,0.045,0.48,0.354,0.434,0.742c-0.125,1.043-0.738,1.692-1.683,1.789c-0.185,0.021-0.385,0.04-0.527-0.105
				c-0.337-0.342-0.531-0.163-0.772,0.17c-0.304,0.394-0.56,0.418-0.969,0.152c-0.185-0.122-0.381-0.177-0.578-0.23
				c-0.314-0.083-0.518-0.285-0.656-0.618c-0.277-0.677-0.601-0.841-1.187-0.475c-0.442,0.28-0.762,0.323-1.252,0.057
				c-0.49-0.259-1.021,0.083-1.433,0.481c-0.099,0.104-0.17,0.244-0.268,0.353c-0.308,0.348-0.653,0.433-1.065,0.22
				c-0.419-0.211-0.782-0.519-1.117-0.875c-0.238,0.188-0.127,0.444-0.176,0.648c-0.03,0.158-0.072,0.317-0.229,0.339
				c-0.165,0.03-0.272-0.097-0.299-0.257c-0.157-1.037-1.036-1.464-1.513-2.233c-0.157-0.253-0.452-0.196-0.705-0.198
				c-0.456-0.002-0.909,0.044-1.258-0.441c-0.194-0.278-0.479-0.192-0.729,0.034c-0.562,0.513-0.564,0.507-1.177,0.11
				c-0.387-0.255-0.741-0.24-0.966,0.156c-0.366,0.646-0.931,0.977-1.505,1.295c-0.223,0.113-0.395,0.226-0.465,0.506
				c-0.112,0.41-0.467,0.545-0.748,0.751c-0.481,0.363-0.491,0.372-0.343,0.997c0.038,0.149,0.084,0.297,0.114,0.449
				c0.104,0.552-0.303,1.133-0.815,1.168c-0.275,0.018-0.419-0.18-0.507-0.432c-0.138-0.389-0.329-0.734-0.594-1.025
				c-0.284-0.312-0.434-0.299-0.506,0.121c-0.068,0.447-0.24,0.781-0.502,1.141c-0.306,0.409-0.428,0.984-0.211,1.511
				c0.176,0.427,0.116,0.726-0.183,1.019c-0.22,0.216-0.273,0.521-0.328,0.826c-0.066,0.334-0.027,0.61,0.314,0.738
				c0.352,0.132,0.451,0.451,0.511,0.834c0.079,0.546,0.179,0.621,0.678,0.664c0.188,0.012,0.364,0.01,0.554,0.016
				c0.163,0.009,0.33,0.051,0.445,0.178c0.652,0.711,1.047,1.537,0.901,2.602c-0.057,0.4-0.291,0.477-0.583,0.508
				c-0.125,0.008-0.218,0.084-0.225,0.242c-0.002,0.119,0.084,0.172,0.172,0.209c0.26,0.123,0.565,0.249,0.531,0.611
				c-0.038,0.379-0.187,0.75-0.433,1.029c-0.253,0.298-0.587,0.223-0.792-0.143c-0.055-0.109-0.095-0.238-0.148-0.346
				c-0.041-0.09-0.049-0.204-0.157-0.234c-0.212,1.156-0.631,2.215-1.207,3.191c-0.119,0.196-0.174,0.418-0.268,0.623
				c-0.162,0.343-0.146,0.581,0.195,0.822c0.303,0.219,0.452,0.633,0.635,0.988c0.077,0.168,0.046,0.48,0.392,0.319
				c0.126-0.054,0.195,0.196,0.188,0.343c-0.013,0.256-0.066,0.504-0.125,0.753c-0.133,0.601-0.062,1.147,0.237,1.689
				c0.393,0.69,0.729,1.417,1.1,2.13c0.207,0.4-0.028,0.693-0.226,0.949c-0.199,0.25-0.41,0.48-0.615,0.723
				c-0.376,0.439-1.022,0.381-1.305-0.139c-0.363-0.673-0.897-1.08-1.493-1.418c-0.473-0.261-0.969-0.465-1.071-1.182
				c-0.043-0.332-0.416-0.357-0.649-0.496c-0.548-0.32-1.113-0.479-1.705-0.125c-0.302,0.181-0.569,0.152-0.812-0.129
				c-0.03-0.043-0.064-0.078-0.102-0.108c-0.772-0.771-1.591-1.327-2.706-1.217c-0.739,0.073-1.444-0.279-2.123-0.603
				c-0.41-0.196-0.816-0.354-1.258-0.086c-0.182,0.114-0.352,0.047-0.509-0.086c-0.265-0.244-0.562-0.438-0.755-0.772
				c-0.276-0.462-0.672-0.772-1.103-1.021c-0.51-0.287-1.085-0.447-1.487-0.941c-0.054-0.068-0.165-0.108-0.251-0.108
				c-0.436,0-0.645-0.325-0.838-0.69c-0.065-0.131-0.134-0.281-0.239-0.365c-0.241-0.178-0.432-0.599-0.802-0.068
				c-0.168,0.238-0.63,0.321-0.978,0.143c-0.45-0.229-0.719,0.051-1.092,0.299c-0.594,0.398-1.178,0.811-1.754,1.232
				c-0.227,0.17-0.493,0.141-0.737,0.084c-0.369-0.096-0.512-0.334-0.487-0.771c0.015-0.205,0.032-0.414,0.032-0.613
				c-0.01-0.248-0.08-0.459-0.304-0.561c-0.342-0.145-0.601-0.451-0.986-0.518c-0.354-0.057-0.394-0.309-0.105-0.576
				c0.482-0.453,0.914-1,1.74-1.092c-0.515-0.375-0.911-0.408-1.296-0.236c-0.685,0.299-1.163-0.33-1.755-0.438
				c-0.041-0.348-0.234-0.592-0.416-0.851c-0.054-0.084-0.104-0.214-0.188-0.191c-0.408,0.115-0.882,0.088-1.179,0.521
				c-0.177,0.259-0.372,0.525-0.497,0.82c-0.174,0.414-0.368,0.734-0.781,0.902c-0.334,0.141-0.518,0.492-0.508,0.928
				c0.008,0.198,0,0.406,0,0.609c0.017,0.557-0.126,0.994-0.636,1.234c-0.362,0.17-0.582,0.563-0.876,0.854
				c-0.186,0.184-0.162,0.463-0.172,0.723c-0.014,0.436,0.026,0.866-0.084,1.295c-0.078,0.342-0.212,0.621-0.543,0.729
				c-0.409,0.135-0.578,0.471-0.578,0.922c0.003,0.298-0.026,0.565-0.273,0.75c-0.265,0.199-0.241,0.438-0.108,0.729
				c0.242,0.513,0.542,0.994,0.575,1.617c0.015,0.286,0.273,0.467,0.51,0.594c0.269,0.144,0.542,0.26,0.825,0.375
				c0.188,0.072,0.34,0.171,0.33,0.424c0,0.262-0.134,0.423-0.346,0.516c-0.196,0.094-0.396,0.09-0.604,0.037
				c-0.82-0.201-1.527-0.021-2.14,0.664c-0.408,0.451-0.946,0.73-1.312,1.236c-0.126,0.168-0.327,0.359-0.533,0.168
				c-0.189-0.168-0.109-0.426-0.026-0.641c0.048-0.135,0.135-0.255,0.191-0.356c-0.52-0.511-1.13-0.79-1.787-0.931
				c-0.407-0.084-0.554-0.012-0.646,0.434c-0.05,0.257-0.104,0.464-0.371,0.427c-0.29-0.042-0.271-0.284-0.224-0.528
				c0.003-0.039-0.026-0.088-0.06-0.191c-0.288,0.248-0.673,0.269-0.971,0.574c0.227,0.367,0.713,0.453,0.763,0.985
				c-0.261,0.165-0.415-0.187-0.648-0.149c-0.092,0.18,0.119,0.289,0.112,0.453c0,0.107-0.022,0.287-0.069,0.264
				c-0.29-0.176-0.507,0.21-0.771,0.124c-0.162-0.053-0.269-0.202-0.338-0.365c-0.187-0.415-0.519-0.632-0.878-0.869
				c-0.239,0.225-0.193,0.519-0.13,0.771c0.11,0.416,0.254,0.834,0.495,1.17c0.269,0.383,0.513,0.727,0.597,1.254
				c0.063,0.425,0.488,0.734,0.902,0.865c0.389,0.121,0.624,0.343,0.729,0.807c0.112,0.472,0.582,0.623,0.873,0.932
				c0.251,0.266,0.376,0.64,0.667,0.861c0.074,0.059,0.062,0.195-0.021,0.262c-0.051,0.047-0.123,0.071-0.186,0.061
				c-0.063-0.004-0.14-0.038-0.188-0.086c-0.432-0.528-1.021-0.801-1.532-1.209c-0.009,0.039-0.021,0.109-0.03,0.173
				c-0.032,0.882-0.029,0.882-0.678,0.435c-0.095-0.067-0.199-0.145-0.309-0.155c-0.151-0.024-0.346-0.071-0.422,0.132
				c-0.068,0.166,0.044,0.291,0.142,0.402c0.061,0.068,0.145,0.127,0.204,0.202c0.178,0.233,0.108,0.382-0.104,0.56
				c-0.188,0.164-0.55,0.09-0.582,0.42c-0.021,0.242,0.081,0.502,0.145,0.748c0.108,0.436,0.034,0.867,0,1.293
				c-0.017,0.162-0.063,0.317-0.246,0.305c-0.165-0.012-0.243-0.152-0.261-0.305c-0.039-0.289,0.096-0.637-0.259-0.816
				c-0.139-0.017-0.157,0.135-0.203,0.241c-0.062,0.138-0.118,0.301-0.291,0.253c-0.12-0.031-0.154-0.17-0.197-0.295
				c-0.061-0.191-0.116-0.387-0.195-0.566c-0.06-0.127-0.154-0.151-0.291-0.081c-0.457,0.237-0.708,0.1-0.771-0.425
				c-0.018-0.121-0.018-0.262,0.016-0.378c0.098-0.353-0.033-0.565-0.28-0.781c-0.586-0.515-0.586-1.101-0.036-1.665
				c0.081-0.077,0.241-0.044,0.247-0.293c-0.568,0.152-0.799-0.215-1-0.73c-0.323-0.84-0.817-1.584-1.289-2.332
				c-0.095,0.125,0.022,0.237,0,0.361c-0.036,0.176-0.134,0.27-0.299,0.23c-0.338-0.079-0.588-0.785-0.37-1.1
				c0.109-0.161,0.24-0.315,0.032-0.423c-0.951-0.504-0.858-1.396-0.692-2.288c0.116-0.629-0.086-1.285,0.157-1.896
				c0.036-0.094-0.016-0.198-0.078-0.281c-0.692-0.938-1.507-1.74-2.452-2.32c-0.471-0.283-1.015-0.619-1.63-0.387
				c-0.062,0.018-0.14,0.018-0.202,0.005c-0.145-0.021-0.291-0.049-0.296-0.247c-0.005-0.162,0.13-0.191,0.245-0.215
				c0.065-0.014,0.136-0.01,0.206-0.02c0.157-0.022,0.378-0.064,0.363-0.262c-0.031-0.256-0.244-0.37-0.478-0.287
				c-0.709,0.256-1.082-0.418-1.522-0.761c-0.278-0.216-0.526-0.548-0.806-0.813c-0.309-0.309-0.657-0.592-0.499-1.156
				c0.041-0.141-0.044-0.237-0.131-0.324c-0.223-0.236-0.369-0.531-0.41-0.872c-0.038-0.274-0.19-0.436-0.416-0.415
				c-0.275,0.031-0.161,0.305-0.172,0.488c-0.009,0.08-0.019,0.148-0.094,0.193c-0.172,0.018-0.215-0.152-0.288-0.27
				c-0.067-0.107-0.129-0.225-0.271-0.132c-0.425,0.28-0.57-0.075-0.73-0.396c-0.339-0.682-0.381-1.05-0.175-1.693
				c-0.325-0.137-0.615-0.043-0.904,0.127c-0.244,0.141-0.49,0.27-0.754,0.369c-0.403,0.15-0.504,0.372-0.275,0.734
				c0.196,0.324,0.173,0.57,0.079,0.922c-0.216,0.801-0.133,1.748,0.73,2.131c0.395,0.176,0.729,0.531,1.076,0.816
				c0.26,0.206,0.354,0.525,0.455,0.84c0.135,0.436,0.286,0.862,0.418,1.301c0.301,0.965,1.068,1.441,1.723,2.037
				c0.212,0.193,0.49,0.026,0.74,0.042c0.202,0.004,0.406-0.052,0.616-0.054c0.46-0.016,0.704,0.353,0.46,0.797
				c-0.229,0.396-0.11,0.578,0.196,0.685c0.935,0.312,1.671,1.052,2.564,1.47c0.608,0.288,0.877,1.005,1.186,1.623
				c0.104,0.209-0.023,0.451-0.134,0.647c-0.112,0.187-0.268,0.2-0.423,0.086c-0.093-0.067-0.207-0.142-0.244-0.253
				c-0.252-0.632-0.862-0.729-1.298-1.078c-0.051-0.045-0.132-0.084-0.188-0.077c-0.395,0.069-0.57,0.433-0.707,0.771
				c-0.125,0.306-0.315,0.668,0.039,0.977c0.156,0.139,0.328,0.281,0.472,0.449c0.425,0.499,0.337,1.265-0.198,1.607
				c-0.271,0.17-0.408,0.375-0.408,0.717c0,0.243-0.078,0.461-0.265,0.605c-0.214,0.158-0.342,0.4-0.467,0.648
				c-0.267,0.491-0.463,0.562-0.889,0.268c-0.196-0.139-0.291-0.108-0.381,0.07c-0.273,0.532-0.586,1.058-0.304,1.721
				c0.045,0.109,0.057,0.25,0.049,0.375c-0.049,0.791-0.491,1.085-1.134,0.74c-0.164-0.088-0.303-0.229-0.451-0.35
				c-0.107-0.093-0.203-0.262-0.318-0.287c-0.926-0.211-1.538-1.107-2.454-1.354c-0.424-0.112-0.613-0.762-0.431-1.21
				c0.047-0.119,0.125-0.295,0.211-0.277c0.53,0.127,1.054-0.414,1.582-0.014c0.324,0.247,0.688,0.275,1.061,0.207
				c0.789-0.143,1.568-0.356,2.344-0.601c0.164-0.051,0.33-0.161,0.339-0.333c0.007-0.4,0.146-0.676,0.455-0.871
				c0.086-0.051,0.071-0.171,0.055-0.277c-0.125-0.822-0.583-1.5-0.737-2.307c-0.01-0.076-0.09-0.104-0.158-0.117
				c-0.606-0.115-1.047-0.434-1.172-1.157c-0.03-0.189-0.132-0.353-0.315-0.343c-0.571,0.035-0.85-0.458-1.117-0.859
				c-0.315-0.477-0.661-0.775-1.202-0.699c-0.323,0.042-0.582-0.086-0.81-0.316c-0.275-0.279-0.584-0.523-0.794-0.854
				c-0.354-0.578-0.953-0.883-1.281-1.481c-0.029-0.063-0.111-0.147-0.159-0.136c-0.667,0.104-0.683-0.627-1-0.964
				c-0.327-0.356-0.636-0.7-0.712-1.266c-0.079-0.523-0.3-1.019-0.466-1.528c-0.022-0.068-0.038-0.172-0.085-0.198
				c-0.632-0.415-1.203-0.957-1.942-1.113c-0.44-0.093-0.765,0.247-0.951,0.625c-0.283,0.546-0.683,0.798-1.217,0.894
				c-0.644,0.107-1.009,0.68-1.437,1.129c-0.703,0.732-0.989,0.87-1.88,0.404c-0.781-0.423-1.657-0.328-2.44-0.695
				c-0.156-0.072-0.308,0.014-0.446,0.117c-0.256,0.176-0.509,0.354-0.771,0.514c-0.326,0.188-0.476,0.486-0.403,0.883
				c0.071,0.395,0.043,0.794,0.229,1.186c0.218,0.469-0.073,1.393-0.479,1.684c-0.891,0.625-1.683,1.428-2.745,1.709
				c-0.354,0.091-0.573,0.369-0.779,0.705c-0.463,0.796-0.96,1.562-1.454,2.334c-0.546,0.84-0.512,1.335,0.196,2.015
				c0.253,0.251,0.237,0.478,0.048,0.733c-0.073,0.096-0.154,0.199-0.251,0.26c-0.6,0.389-0.896,1.018-1.07,1.725
				c-0.095,0.383-0.291,0.545-0.621,0.598c-0.597,0.108-0.987,0.476-1.187,1.129c-0.15,0.505-0.463,0.691-0.979,0.766
				c-0.762,0.108-1.51-0.031-2.26,0.018c-0.489,0.031-0.936,0.113-1.382,0.393c-0.452,0.281-0.925,0.481-1.292,0.943
				c-0.314,0.396-0.947,0.213-1.331-0.287c-0.259-0.334-0.416-0.734-0.571-1.135c-0.333-0.829-0.906-1.242-1.627-0.902
				c-0.708,0.334-1.4,0.201-2.102,0.205c-0.527,0.007-0.689-0.205-0.518-0.752c0.22-0.682,0.116-1.371,0.148-2.057
				c0.007-0.168,0.007-0.33-0.189-0.436c-1.106-0.582-1.106-1.275-0.583-2.357c0.641-1.312,0.678-2.754,0.986-4.132
				c0.114-0.497-0.137-1.101-0.229-1.65c-0.039-0.226-0.136-0.448-0.079-0.678c0.196-0.743-0.109-1.351-0.422-1.94
				c-0.339-0.646-0.238-1.08,0.392-1.328c0.149-0.056,0.315-0.068,0.473-0.084c0.229-0.016,0.367-0.132,0.485-0.359
				c0.354-0.682,0.755-0.853,1.422-0.594c0.528,0.209,1.063,0.346,1.622,0.326c0.094,0,0.195,0.024,0.272-0.007
				c0.766-0.356,1.496-0.02,2.227,0.13c0.708,0.139,1.394,0.193,2.114,0.126c0.722-0.067,1.461,0.097,2.186,0.195
				c0.348,0.044,0.685,0.06,1.034,0.03c0.38-0.02,0.596-0.238,0.666-0.633c0.107-0.656,0.229-1.311,0.306-1.972
				c0.096-0.889,0.165-1.78,0.221-2.671c0.03-0.499-0.109-0.986,0.004-1.503c0.058-0.266-0.102-0.616-0.413-0.724
				c-0.658-0.223-0.896-0.908-1.272-1.443c-0.088-0.125-0.144-0.277-0.078-0.432c0.163-0.396-0.125-0.471-0.307-0.703
				c-0.52-0.678-1.334-0.735-1.934-1.224c-0.27-0.216-0.603-0.333-0.986-0.212c-0.359,0.117-0.941-0.443-0.904-0.864
				c0.026-0.253-0.004-0.438-0.165-0.616c-0.275-0.312-0.108-0.562,0.112-0.77c0.311-0.287,0.692-0.414,1.081-0.471
				c0.271-0.042,0.521-0.115,0.776-0.267c0.369-0.208,0.798-0.272,1.148,0.097c0.312,0.337,0.648,0.398,1.07,0.297
				c0.304-0.072,0.626-0.158,0.976-0.095c0.016-0.653-0.005-1.255-0.342-1.788c-0.012-0.018-0.023-0.045-0.032-0.064
				c-0.196-0.455-0.183-0.862,0.032-0.984c0.262-0.153,0.93,0.032,1.101,0.312c0.29,0.465,1.221,0.859,1.7,0.691
				c0.189-0.062,0.423-0.129,0.437-0.418c0.055-0.719,0.532-0.965,1.038-1.176c0.346-0.142,0.708-0.236,0.999-0.509
				c0.221-0.21,0.393-0.423,0.324-0.788c-0.031-0.141-0.008-0.305,0.003-0.453c0.104-1.069,0.334-1.404,1.258-1.639
				c0.74-0.188,1.277-0.79,1.954-1.102c0.14-0.071,0.178-0.354,0.416-0.342c0.243,0.018,0.28-0.095,0.135-0.312
				c-0.09-0.135-0.006-0.225,0.086-0.319c0.936-1.001,1.415-2.212,1.433-3.667c0.004-0.375,0.241-0.683,0.544-0.879
				c0.162,0.191,0.043,0.324,0.019,0.471c-0.015,0.119-0.101,0.317-0.052,0.357c0.486,0.481,0.222,1.061,0.195,1.615
				c-0.008,0.062,0.058,0.132,0.142,0.29c0.093-0.317,0.134-0.57,0.259-0.802c0.116-0.208,0.116-0.443,0.018-0.721
				c-0.354-0.906,0.083-1.725,0.99-1.758c0.458-0.016,0.896-0.246,1.359-0.135c0.182,0.044,0.282-0.123,0.392-0.26
				c0.572-0.709,1.109-0.82,1.794-0.33c0.314,0.223,0.448,0.119,0.557-0.225c0.048-0.139,0.094-0.33,0.198-0.391
				c0.539-0.324,0.407-0.804,0.205-1.237c-0.145-0.299-0.152-0.51,0.043-0.75c0.127-0.153,0.121-0.317,0.022-0.488
				c-0.354-0.585-0.344-1.259-0.365-1.921c-0.021-0.465-0.065-0.887-0.565-0.999c-0.229-0.044-0.285-0.235-0.271-0.458
				c0.018-0.539-0.092-1.066-0.124-1.602c-0.053-0.992,0.218-1.925,0.544-2.827c0.164-0.437,0.52-0.66,0.925-0.708
				c0.594-0.07,1.031-0.333,1.33-0.939c0.229-0.463,0.68-0.669,1.094-0.9c0.198-0.113,0.332-0.013,0.299,0.227
				c-0.039,0.342,0.007,0.662,0.077,0.986c0.066,0.294-0.022,0.559-0.156,0.803c-0.248,0.467-0.229,0.983-0.251,1.492
				c-0.023,0.352,0.116,0.539,0.44,0.52c0.266-0.02,0.519,0,0.609,0.342c0.088,0.368-0.051,0.644-0.312,0.867
				c-0.151,0.119-0.298,0.244-0.487,0.271c-0.063,0.011-0.169,0.043-0.173,0.084c-0.102,0.773-0.79,1.117-1.057,1.768
				c-0.194,0.43,0.002,0.914-0.177,1.371c0.108,0.014,0.202,0.014,0.284,0.053c0.518,0.211,0.574,0.367,0.369,0.967
				c-0.072,0.207,0.084,1.051,0.202,1.045c0.416-0.033,0.716,0.424,1.184,0.274c0.357-0.114,0.532,0.239,0.366,0.628
				c-0.086,0.186-0.324,0.283-0.299,0.552c0.441,0.046,0.801-0.038,1.104-0.376c0.089-0.1,0.232-0.184,0.357-0.216
				c0.368-0.108,0.667-0.317,0.905-0.659c0.18-0.266,0.44-0.401,0.721-0.182c0.386,0.301,0.551,0.139,0.663-0.312
				c0.038-0.18,0.147-0.416,0.385-0.35c0.242,0.065,0.479,0.17,0.551,0.506c0.096,0.488,0.006,0.704-0.591,1.074
				c0.54-0.008,0.654,0.369,0.826,0.699c0.251,0.467,0.384,0.436,0.807,0.141c0.553-0.396,1.097-0.84,1.771-0.981
				c0.623-0.128,1.146-0.439,1.643-0.896c0.856-0.785,1.896-1.131,2.979-1.271c0.395-0.051,0.788,0.057,1.082,0.389
				c0.151,0.178,0.278,0.396-0.013,0.562c-0.202,0.118-0.164,0.258-0.095,0.439c0.084,0.197,0.212,0.23,0.395,0.213
				c0.842-0.078,1.562-0.539,1.643-1.438c0.033-0.354,0.221-0.567,0.544-0.572c0.395-0.007,0.627-0.274,0.841-0.579
				c0.385-0.554,0.557-1.164,0.471-1.863c-0.053-0.479-0.107-0.972-0.134-1.447c-0.047-0.891-0.032-1.8,0.419-2.598
				c0.163-0.293,0.218-0.615,0.298-0.938c0.24-1.064,0.887-1.7,1.831-1.806c0.149-0.014,0.274,0.018,0.357,0.162
				c0.342,0.605,0.869,1.057,1.132,1.731c0.174,0.438,0.49,0.588,0.831,0.516c0.448-0.099,0.679-0.365,0.734-0.878
				c0.021-0.152,0.021-0.312,0.013-0.465c-0.04-0.844,0.063-1.681,0.166-2.525c0.014-0.158,0.147-0.334-0.061-0.506
				c-0.22,0.156-0.428,0.26-0.735,0.107c-0.495-0.244-0.713-0.676-0.748-1.189c-0.035-0.502-0.065-1.008-0.126-1.514
				c-0.037-0.338,0-0.751,0.316-0.861c0.614-0.222,1.097-0.711,1.73-0.92c0.556-0.185,1.249,0.062,1.695-0.554
				c0.033-0.044,0.135-0.038,0.198-0.026c0.581,0.139,1.196,0.197,1.722,0.502c0.415,0.238,0.827,0.281,1.258,0.269
				c0.637-0.012,0.637-0.012,0.746-0.744c0.033-0.253,0.094-0.442,0.391-0.383c0.449,0.091,0.901-0.167,1.159-0.423
				c0.435-0.424,0.819-0.494,1.312-0.334c0.15,0.039,0.354,0.095,0.404-0.143c0.054-0.242-0.119-0.384-0.3-0.438
				c-0.125-0.039-0.283-0.052-0.405-0.002c-0.555,0.212-0.902-0.209-1.317-0.472c-0.49-0.305-0.582-0.736-0.35-1.341
				c-0.352,0.164-0.507,0.511-0.812,0.457c-0.545-0.095-1.079,0.288-1.622,0c-0.077-0.044-0.22,0.04-0.329,0.077
				c-0.97,0.321-1.92,0.691-2.864,1.094c-0.877,0.373-1.781,0.693-2.688,0.998c-0.217,0.073-0.433,0.115-0.608,0.293
				c-0.098,0.095-0.24,0.186-0.374,0.064c-0.117-0.107-0.007-0.227,0.02-0.344c0.045-0.209,0.037-0.429-0.126-0.557
				c-0.153-0.126-0.222,0.109-0.334,0.174c-0.197,0.121-0.408,0.107-0.578-0.046c-0.169-0.163-0.008-0.335,0.05-0.479
				c0.135-0.326,0.112-0.707-0.138-0.823c-0.459-0.204-0.798-0.634-1.25-0.783c-0.372-0.128-0.404-0.386-0.497-0.718
				c-0.254-0.933,0.212-1.789,0.212-2.703c-0.004-0.605-0.048-1.156-0.253-1.69c-0.096-0.267-0.187-0.515-0.146-0.803
				c0.052-0.418-0.025-0.801-0.154-1.197c-0.25-0.766-0.188-1.48,0.35-2.138c0.234-0.295,0.623-0.494,0.645-1.006
				c0.016-0.256,0.269-0.311,0.495-0.307c0.26,0.016,0.504-0.048,0.685-0.283c0.312-0.404,0.685-0.76,0.923-1.241
				c0.437-0.935,1.02-1.749,1.635-2.559c0.405-0.537,0.903-1.054,1.07-1.763c0.146-0.604,0.401-0.983,0.961-1.15
				c0.467-0.143,0.499-0.246,0.412-0.775c-0.03-0.207-0.028-0.404,0.002-0.605c0.067-0.435-0.072-0.793-0.279-1.156
				c-0.262-0.462-0.682-0.746-1-1.157c-0.125-0.165-0.452-0.433-0.643-0.29c-0.291,0.234-0.487,0.146-0.744,0.007
				c-0.211-0.114-0.474-0.128-0.662,0.02c-0.263,0.212-0.471,0.189-0.76,0.058c-0.374-0.17-0.665-0.01-0.771,0.334
				c-0.19,0.621-0.514,1.103-1.062,1.382c-0.214,0.108-0.355,0.33-0.252,0.632c0.201,0.578,0,1.089-0.328,1.484
				c-0.364,0.445-0.208,0.84-0.041,1.266c0.054,0.139,0.174,0.239,0.241,0.369c0.269,0.5,0.235,0.787-0.182,1.113
				c-0.2,0.158-0.344,0.337-0.463,0.555c-0.495,0.977-0.959,1.984-1.987,2.42c-0.039,0.014-0.057,0.098-0.087,0.117
				c-0.582,0.266-1.024,0.754-1.527,1.156c-0.241,0.203-0.44,0.395-0.627,0.654c-0.394,0.535-0.458,1.369-1.188,1.598
				c-0.102,0.03-0.092,0.222-0.102,0.35c-0.035,0.547-0.293,0.875-0.855,0.945c0.312,0.508,0.264,0.98,0.125,1.451
				c-0.095,0.324-0.086,0.654-0.024,0.984c0.047,0.256,0.075,0.531-0.235,0.621c-0.237,0.07-0.26,0.271-0.244,0.479
				c0.056,0.845,0.063,1.686,0.201,2.519c0.096,0.605,0.385,0.916,0.867,1.028c0.259,0.06,0.41,0.187,0.497,0.45
				c0.063,0.17,0.197,0.278,0.314,0.395c0.437,0.439,0.625,1.072,0.943,1.605c0.134,0.225,0.038,0.507-0.071,0.731
				c-0.229,0.468-0.448,0.942-0.929,1.177c0.108,0.121,0.203,0.064,0.291,0.068c0.216,0.016,0.307,0.149,0.197,0.358
				c-0.307,0.565-0.672,1.23-1.184,1.437c-0.499,0.191-0.844,0.565-1.285,0.804c-0.291,0.155-0.487,0.354-0.48,0.849
				c0.009,0.908-0.177,1.817-0.241,2.723c-0.04,0.51-0.073,0.996-0.19,1.498c-0.104,0.426-0.22,0.891-0.154,1.465
				c0.32-0.377,0.353-0.748,0.47-1.073c0.109-0.3,0.125-0.685,0.58-0.788c-0.179,1.199-0.571,2.239-0.829,3.318
				c-0.002,0.023-0.02,0.053-0.028,0.067c-0.086,0.147-0.142,0.376-0.328,0.337c-0.207-0.049-0.165-0.273-0.153-0.453
				c0.009-0.168,0.116-0.337-0.029-0.561c-0.102,0.29-0.198,0.545-0.284,0.803c-0.227,0.708-0.227,0.717-0.936,0.703
				c-0.273-0.006-0.55-0.025-0.824-0.02c-0.684,0.014-1.225,0.623-1.226,1.357c0,1.065,0,1.068-0.968,1.105
				c-0.363,0.01-0.702,0.229-1.085,0.145c-0.297-0.063-0.568-0.111-0.444-0.566c0.027-0.109,0.011-0.205-0.093-0.254
				c-0.115-0.062-0.218,0.007-0.312,0.092c-0.128,0.117-0.117,0.264-0.044,0.41c0.091,0.18,0.229,0.406,0.083,0.564
				c-0.478,0.471-0.512,1.104-0.59,1.729c-0.015,0.125-0.075,0.238-0.127,0.352c-0.035,0.096-0.102,0.197-0.202,0.153
				c-0.478-0.208-1.067,0.038-1.478-0.453c-0.09-0.099-0.215-0.207-0.354-0.054c-0.238,0.252-0.337,0.037-0.381-0.17
				c-0.035-0.194-0.007-0.398-0.007-0.646c-0.88-0.015-1.392-0.536-1.573-1.478C67.246,156.424,67.228,156.327,67.207,156.229z
				 M116.57,181.199c-0.073-0.162-0.185-0.16-0.3-0.107c-0.451,0.189-0.929,0.269-1.403,0.348c-0.346,0.06-0.648,0.176-0.964,0.344
				c-0.392,0.213-0.788,0.389-1.117,0.705c-0.479-0.226-0.798,0.322-1.229,0.334c-0.411,0.006-0.669,0.301-0.922,0.589
				c-0.248,0.274-0.334,0.755-0.807,0.732c-0.086-0.007-0.07,0.091-0.076,0.165c-0.061,0.477-0.12,0.941,0.21,1.364
				c0.128,0.165,0.232,0.321,0.44,0.295c0.244-0.021,0.481-0.016,0.732-0.108c0.415-0.148,0.867-0.336,1.319-0.104
				c0.518,0.27,1.141,0.104,1.463-0.387c0.268-0.412,0.47-0.869,0.83-1.213c0.428-0.402,0.41-0.471-0.053-0.833
				c-0.04-0.033-0.081-0.044-0.117-0.075c-0.163-0.139-0.359-0.266-0.307-0.548c0.062-0.306,0.299-0.356,0.527-0.396
				c0.161-0.018,0.395,0.033,0.469-0.071c0.325-0.424,0.798-0.569,1.194-0.86C116.511,181.338,116.538,181.264,116.57,181.199z
				 M86.273,156.854c-0.132,0.256-0.274,0.511-0.408,0.769c-0.062,0.123-0.021,0.244,0.101,0.308
				c0.137,0.081,0.304,0.07,0.331-0.101C86.344,157.52,86.479,157.218,86.273,156.854z M78.998,142.441
				c0.341,0.184,0.677,0.392,1.03,0.561c0.136,0.07,0.349,0.156,0.413-0.068c0.068-0.232-0.143-0.297-0.297-0.313
				C79.766,142.586,79.394,142.479,78.998,142.441z"/>
			<path fill-rule="evenodd" clip-rule="evenodd" fill="#82CBB5" d="M152.673,57.057c0.546-0.272,0.565-0.28,0.398-0.813
				c-0.126-0.418-0.022-0.75,0.176-1.083c0.187-0.323,0.452-0.452,0.762-0.279c0.237,0.128,0.466,0.198,0.723,0.211
				c0.447,0.024,0.819,0.152,0.817,0.707c0.779,0.108,1.28-0.401,1.823-0.808c0.174-0.129,0.386-0.317,0.567-0.194
				c0.598,0.423,0.942-0.123,1.327-0.411c0.297-0.222,0.454-0.649,0.902-0.618c0.146,0.009,0.206-0.181,0.268-0.324
				c0.082-0.198,0.18-0.338,0.419-0.299c0.334,0.053,0.408-0.235,0.354-0.49c-0.182-0.805,0.229-1.266,0.762-1.628
				c0.256-0.174,0.508-0.335,0.65-0.649c0.066-0.15,0.191-0.214,0.34-0.22c0.221-0.009,0.388-0.132,0.567-0.255
				c1.154-0.814,2.783-0.064,3.104,1.423c0.057,0.249,0.12,0.499,0.19,0.74c0.077,0.28,0.116,0.554-0.067,0.8
				c-0.148,0.205-0.191,0.365,0.011,0.585c0.173,0.185,0.023,0.39-0.117,0.528c-0.323,0.299-0.551,0.68-0.739,1.094
				c-0.157,0.336-0.377,0.655-0.175,1.047c-0.099,0.046-0.146,0.101-0.176,0.086c-0.565-0.282-1.009-0.104-1.403,0.409
				c-0.711,0.933-1.701,1.236-2.727,1.434c-0.212,0.038-0.433,0.072-0.565,0.253c-0.631,0.922-1.635,1.251-2.414,1.921
				c-0.096,0.079-0.238,0.191-0.31,0.153c-0.529-0.235-0.681,0.233-0.949,0.559c-0.33,0.412-0.665,0.803-1.174,1.017
				c-0.401,0.171-0.738,0.585-0.998,1.012c-0.191,0.317-0.408,0.618-0.599,0.939c-0.444,0.732-1.098,0.911-1.838,0.84
				c-0.094,0.152,0.015,0.231,0.096,0.317c0.266,0.275,0.204,0.552-0.007,0.803c-0.253,0.308-0.506,0.597-0.537,1.043
				c-0.01,0.152-0.108,0.304-0.26,0.337c-0.481,0.097-0.539,0.451-0.398,0.958c-0.557,0.039-0.779-0.592-1.275-0.648
				c-0.077,0.397,0.151,0.764-0.015,1.171c-0.247,0.601-0.315,0.662-0.776,0.188c-0.032-0.034-0.074-0.054-0.12-0.084
				c-0.119,0.161,0.024,0.279,0.068,0.394c0.341,0.832,0.277,1.448-0.303,2.062c-0.15,0.163-0.285,0.246-0.312,0.513
				c-0.013,0.274-0.218,0.308-0.407,0.167c-0.188-0.146-0.362-0.319-0.445-0.565c-0.064-0.193-0.119-0.394-0.254-0.548
				c-0.182,0.484-0.187,0.493,0.047,0.828c0.29,0.411,0.473,0.86,0.414,1.404c-0.027,0.229-0.023,0.483-0.263,0.579
				c-0.27,0.103-0.364-0.147-0.479-0.331c-0.049-0.077-0.104-0.169-0.267-0.129c0.123,0.382,0.446,0.664,0.446,1.086
				c-0.008,0.395-0.283,0.603-0.815,0.574c0.452,0.676,0.036,1.131-0.27,1.637c-0.276,0.462-0.613,0.451-1.059,0.286
				c0.461,0.401,0.615,0.825,0.294,1.404c-0.105,0.205-0.14,0.484-0.126,0.744c0.011,0.242-0.067,0.504-0.242,0.611
				c-0.653,0.403-0.565,1.212-0.856,1.811c-0.315,0.662-0.384,1.362-0.219,2.086c0.025,0.101,0.055,0.224,0.025,0.308
				c-0.365,0.889,0.075,1.747,0.08,2.631c0.003,0.479,0.128,0.953,0.38,1.375c0.184,0.296,0.313,0.633,0.379,0.986
				c0.157,0.795,0.588,1.377,1.124,1.874c0.386,0.356,0.713,0.788,1.21,1.003c0.282,0.128,0.318,0.438,0.135,0.707
				c-0.212,0.299-0.46,0.565-0.7,0.841c-0.119,0.127-0.259,0.108-0.378-0.009c-0.132-0.139-0.261-0.287-0.395-0.425
				c-0.085-0.102-0.162-0.108-0.282-0.004c-0.408,0.345-0.803,0.391-1.147,0.044c-0.34-0.35-0.574-0.356-0.842,0.055
				c-0.158,0.246-0.352,0.185-0.533,0.02c-0.073-0.063-0.142-0.138-0.205-0.211c-0.323-0.367-0.564-0.781-1.189-0.579
				c-0.479,0.156-0.854-0.392-0.933-0.971c-0.075-0.593-0.01-1.056,0.559-1.236c0.009-0.13-0.039-0.187-0.104-0.207
				c-0.604-0.147-0.879-0.611-0.97-1.234c-0.05-0.369-0.163-0.545-0.547-0.446c-0.487,0.125-0.439-0.367-0.52-0.709
				c-0.278,0.017-0.242,0.346-0.416,0.456c-0.462,0.317-1.151,0.134-1.431-0.456c-0.433-0.906-0.415-1.876-0.188-2.838
				c0.087-0.382,0.338-0.662,0.762-0.623c0.502,0.035,0.811-0.167,0.864-0.796c0.041-0.394,0.196-0.784,0.346-1.148
				c0.196-0.459,0.124-0.817-0.18-1.172c-0.499-0.59-0.473-0.911,0.096-1.433c0.104-0.096,0.22-0.202,0.345-0.251
				c0.375-0.147,0.424-0.51,0.437-0.862c0.051-1.091,0.748-1.789,1.755-1.707c-0.008-0.579,0.065-1.139,0.271-1.736
				c-0.48-0.154-0.819-0.513-1.057-0.985c-0.133-0.262-0.176-0.513,0.191-0.663c0.494-0.2,0.761-0.794,1.285-0.986
				c0.07-0.024,0.106-0.215,0.132-0.339c0.073-0.31,0.233-0.55,0.451-0.752c0.071-0.066,0.198-0.142,0.19-0.205
				c-0.032-0.524,0.306-0.641,0.651-0.708c-0.021-0.106-0.021-0.158-0.045-0.201c-0.119-0.196-0.456-0.266-0.328-0.592
				c0.114-0.295,0.396-0.187,0.619-0.224c0.109-0.024,0.223-0.04,0.36-0.191c-0.324-0.214-0.565-0.507-0.627-0.922
				c-0.045-0.304-0.014-0.577,0.359-0.577c0.336-0.001,0.583-0.257,0.909-0.366c-0.153-0.373-0.39-0.226-0.603-0.222
				c-0.384,0.026-0.492-0.176-0.337-0.563c0.065-0.161,0.155-0.308,0.218-0.471c0.073-0.211,0.213-0.484-0.197-0.436
				c-0.14,0.018-0.193-0.097-0.234-0.226c-0.14-0.404-0.115-0.812,0.024-1.197c0.15-0.412,0.564-0.464,0.826-0.108
				c0.095,0.135,0.111,0.364,0.323,0.324c0.187-0.026,0.346-0.143,0.446-0.324c0.104-0.169,0.181-0.352,0.25-0.539
				c0.238-0.568,0.488-0.746,1.009-0.702c0.689,0.064,0.919-0.178,0.98-0.97c0.049-0.632,0.199-1.226,0.823-1.446
				c0.186-0.059,0.271-0.159,0.301-0.354c0.134-0.876,0.727-1.268,1.371-1.584c0.487-0.242,0.976-0.429,1.115-1.12
				c0.05-0.242,0.3-0.381,0.495-0.508c0.197-0.139,0.385-0.293,0.638-0.152C152.887,56.533,152.686,56.811,152.673,57.057z"/>
			<path fill-rule="evenodd" clip-rule="evenodd" fill="#82CBB5" d="M78.954,22.114c0.642-0.484,0.652-0.484,1.102,0.02
				c0.347,0.381,0.654,0.788,0.912,1.25c0.157,0.268,0.259,0.568,0.141,0.869c-0.18,0.478-0.174,1.007-0.353,1.479
				c-0.159,0.414-0.005,0.712,0.179,1.029c0.134-0.326,0.033-0.677,0.151-1.014c0.221-0.625,0.462-0.704,0.896-0.239
				c0.071,0.068,0.142,0.154,0.163,0.244c0.256,0.891,0.699,1.743,0.46,2.742c-0.021,0.092-0.041,0.195-0.047,0.299
				c-0.024,0.465,0.057,0.667,0.45,0.704c0.711,0.075,1.048,0.542,1.212,1.248c0.081,0.339,0.289,0.537,0.528,0.763
				c0.575,0.548,1.179,0.953,1.95,1.021c0.079,0.009,0.174,0.079,0.228,0.147c0.321,0.383,0.149,1.736-0.253,1.98
				c-0.092,0.055-0.235,0.108-0.33,0.075c-0.708-0.238-1.201,0.215-1.729,0.609c-0.364,0.267-0.758,0.44-0.772,1.023
				c-0.009,0.211-0.235,0.31-0.39,0.422c-0.256,0.185-0.365,0.431-0.348,0.771c0.039,0.869-0.185,1.725-0.147,2.598
				c0.014,0.505-0.04,0.548-0.528,0.542c-0.342-0.007-0.362,0.163-0.354,0.471c0.03,1.174-0.022,2.347-0.209,3.506
				c-0.103,0.65-0.097,0.652-0.679,0.792c-0.197,0.051-0.38,0.128-0.298,0.405c0.092,0.31-0.065,0.453-0.249,0.631
				c-0.2,0.185-0.305,0.452-0.321,0.744c-0.031,0.687-0.062,1.373-0.08,2.06c-0.013,0.341,0.003,0.689-0.21,0.948
				c-0.291,0.363-0.297,0.794-0.259,1.235c0.034,0.31,0.034,0.618-0.067,0.909c-0.204,0.602-0.845,0.851-1.309,0.514
				c-0.098-0.072-0.148-0.202-0.14-0.33c0.042-0.623-0.301-1.021-0.687-1.342c-0.8-0.665-0.705-1.208,0.344-1.507
				c0.083-0.02,0.186,0,0.222-0.13c-0.18-0.263-0.415-0.149-0.626-0.105c-0.556,0.108-1.063,0.177-1.261-0.625
				c-0.068-0.269-0.354-0.312-0.563-0.409c-0.403-0.183-0.652-0.495-0.841-0.942c-0.322-0.736-0.447-1.496-0.436-2.29
				c0.009-0.346,0.198-0.572,0.458-0.71c0.229-0.125,0.451-0.046,0.604,0.196c0.05,0.083,0.086,0.18,0.204,0.127
				c0.556-0.255,1.076-0.013,1.604,0.132c0.063,0.019,0.125,0.013,0.247,0.021c-0.104-0.301-0.326-0.277-0.504-0.332
				c-0.324-0.102-0.688-0.096-0.97-0.352c-0.313-0.28-0.295-0.583,0.071-0.744c0.487-0.205,0.904-0.616,1.47-0.603
				c0.236,0.006,0.395-0.222,0.59-0.501c-0.385-0.007-0.695,0.167-0.998-0.027c-0.157-0.103-0.301,0.046-0.419,0.172
				c-0.36,0.363-0.792,0.499-1.265,0.528c-0.29,0.026-0.581,0.042-0.874,0.167c-0.365,0.156-0.624,0-0.675-0.378
				c-0.086-0.63-0.166-1.264-0.203-1.9c-0.04-0.587,0.125-0.79,0.645-0.833c0.488-0.044,0.905-0.375,1.391-0.383
				c0.128,0,0.189-0.123,0.253-0.237c0.234-0.432,0.407-0.924,0.865-1.149c0.095-0.044,0.086-0.165,0.106-0.262
				c0.161-0.741,0.804-0.922,1.363-0.741c0.269,0.086,0.52,0.242,0.778-0.073c-0.149-0.515-0.976-0.387-0.818-1.206
				c-0.323,0.238-0.565,0.42-0.806,0.592c-0.231,0.163-0.396,0.128-0.595-0.116c-0.321-0.388-0.412-0.838-0.393-1.366
				c-0.187-0.154-0.455,0.158-0.621-0.125c-0.119-0.201-0.12-0.436-0.234-0.672c-0.174,0.106-0.164,0.291-0.156,0.447
				c0.004,0.704-0.207,1.417,0.156,2.099c0.125,0.25,0.015,0.555-0.29,0.528c-0.372-0.024-0.403,0.202-0.474,0.5
				c-0.221,0.987-1.447,1.419-2.139,0.759c-0.125-0.121-0.206-0.306-0.155-0.48c0.099-0.382-0.065-0.556-0.339-0.724
				c-0.308-0.182-0.351-0.584-0.479-0.906c-0.086-0.214,0.03-0.403,0.229-0.478c0.14-0.046,0.291-0.063,0.445-0.101
				c-0.077-0.17-0.202-0.168-0.312-0.199c-0.844-0.27-1.303-0.988-1.653-1.814c-0.098-0.231-0.073-0.476,0.03-0.664
				c0.184-0.343,0.062-0.566-0.149-0.81c-0.132-0.139-0.237-0.31-0.338-0.482c-0.069-0.128-0.14-0.281-0.003-0.412
				c0.124-0.123,0.27-0.097,0.383,0.003c0.218,0.184,0.452,0.345,0.731,0.407c0.083,0.021,0.178,0.042,0.271-0.051
				c-0.068-0.215-0.313-0.15-0.415-0.324c-0.275-0.483-0.79-0.867-0.376-1.588c0.109-0.198,0.109-0.535,0.213-0.798
				c-0.237-0.076-0.249,0.116-0.3,0.237c-0.083,0.181-0.144,0.38-0.229,0.561c-0.093,0.187-0.238,0.337-0.441,0.314
				c-0.221-0.031-0.283-0.24-0.315-0.449c-0.053-0.4-0.108-0.803-0.291-1.172c-0.232-0.478-0.343-0.994-0.306-1.549
				c0.016-0.251-0.028-0.506-0.125-0.748c-0.11-0.262-0.105-0.498,0.151-0.658c0.226-0.132,0.172-0.328,0.089-0.523
				c-0.1-0.238-0.154-0.482-0.133-0.744c0.018-0.128,0.026-0.265,0.158-0.308c0.13-0.04,0.23,0.024,0.29,0.139
				c0.071,0.121,0.135,0.237,0.229,0.413c0.071-0.306-0.045-0.486-0.077-0.682c-0.039-0.22-0.018-0.475,0.165-0.534
				c0.252-0.082,0.355-0.271,0.492-0.468c0.198-0.273,0.342-0.236,0.529,0.088c0.14,0.253,0.181,0.579,0.448,0.797
				c0.168-0.278,0.022-0.522,0.029-0.758c0.001-0.185,0.024-0.383,0.2-0.451c0.197-0.082,0.268,0.101,0.352,0.26
				c0.244,0.477,0.401,0.528,0.803,0.254c0.22-0.143,0.396-0.355,0.623-0.483c0.273-0.165,0.612-0.379,0.887-0.071
				c0.272,0.306,0.33,0.727,0.235,1.153c-0.088,0.387-0.339,0.596-0.676,0.675c-0.109,0.031-0.229-0.022-0.338-0.016
				c-0.199,0.007-0.363,0.078-0.471,0.267c-0.208,0.339-0.416,0.662-0.835,0.821c0.276,0.198,0.429,0.04,0.583-0.031
				c0.195-0.088,0.395-0.161,0.605-0.147c0.361,0.026,0.499,0.187,0.337,0.534c-0.167,0.363-0.104,0.498,0.182,0.72
				c0.359,0.288,0.395,0.825,0.589,1.26c-0.064-0.475-0.142-0.95-0.194-1.421c-0.042-0.356-0.097-0.732,0.062-1.062
				c0.312-0.625,0.62-1.252,0.807-1.938c0.089-0.304,0.258-0.348,0.538-0.203c0.693,0.356,1.043,0.966,1.162,1.766
				c0.068,0.506,0.164,1.015,0.17,1.521c0.002,0.854,0.342,1.65,0.279,2.508c-0.009,0.072-0.009,0.181,0.031,0.22
				c0.552,0.599,0.639,1.456,0.992,2.167c0.011,0.021,0.038,0.028,0.092,0.063c0.062-0.183-0.015-0.348-0.081-0.481
				c-0.627-1.364-0.659-2.862-0.77-4.33c-0.062-0.892-0.137-1.78-0.221-2.672c-0.062-0.626-0.044-1.271,0.308-1.839
				c0.172-0.28,0.15-0.631,0.169-0.966c0.012-0.374,0.129-0.693,0.384-0.948c0.22-0.215,0.398-0.209,0.579,0.06
				c0.164,0.25,0.299,0.515,0.308,0.837C78.931,21.576,78.945,21.804,78.954,22.114z"/>
			<path fill-rule="evenodd" clip-rule="evenodd" fill="#82CBB5" d="M41.718,173.244c-0.036-0.315,0.174-0.459,0.33-0.632
				c0.595-0.645,1.203-1.265,1.644-2.065c0.339-0.604,0.822-0.943,1.498-0.848c0.539,0.084,0.946-0.095,1.127-0.721
				c-0.133-0.096-0.202,0.046-0.282,0.111c-0.519,0.434-0.604,0.434-1.106-0.065c-0.121-0.119-0.22-0.295-0.401-0.235
				c-0.351,0.111-0.615,0.037-0.863-0.277c-0.137-0.174-0.287,0.023-0.423,0.092c-0.468,0.252-0.869-0.009-0.921-0.581
				c-0.022-0.255,0.111-0.374,0.278-0.478c0.379-0.248,0.764-0.464,1.125-0.736c0.562-0.424,0.7-1.107,0.385-1.742
				c-0.107-0.229-0.26-0.135-0.407-0.064c-0.134,0.066-0.281,0.121-0.372-0.049c-0.086-0.16,0.048-0.279,0.135-0.398
				c0.085-0.113,0.183-0.226,0.277-0.343c0.189-0.233,0.376-0.462,0.094-0.778c-0.063-0.068-0.104-0.188-0.029-0.279
				c0.085-0.113,0.21-0.086,0.303-0.003c0.537,0.454,1.111,0.013,1.668,0.095c0.149,0.02,0.174-0.158,0.205-0.323
				c0.104-0.521-0.029-1.075,0.188-1.577c0.059-0.137-0.033-0.223-0.158-0.275c-0.967-0.407-1.23-1.113-0.801-2.137
				c0.055-0.133,0.107-0.271,0.221-0.539c-0.512,0.279-0.963,0.406-1.41,0.555c-0.243,0.08-0.437,0.236-0.696,0.08
				c-0.049-0.031-0.151-0.023-0.192,0.015c-0.155,0.156-0.313,0.379-0.497,0.081c-0.182-0.294-0.335-0.623-0.172-0.998
				c0.104-0.234,0.177-0.482,0.315-0.678c0.462-0.66,0.253-1.336,0.098-2.018c-0.041-0.146-0.119-0.223-0.253-0.176
				c-0.15,0.051-0.252,0.171-0.201,0.343c0.038,0.107,0.163,0.183,0.21,0.29c0.187,0.465,0,0.803-0.47,0.762
				c-0.176-0.016-0.176,0.092-0.23,0.193c-0.078,0.158-0.181,0.33-0.366,0.255c-0.229-0.099-0.169-0.339-0.125-0.528
				c0.057-0.243,0.128-0.496,0.231-0.725c0.125-0.293,0.03-0.48-0.189-0.646c-0.205,0.144-0.308,0.379-0.415,0.595
				c-0.095,0.193-0.219,0.373-0.426,0.305c-0.187-0.069-0.429-0.134-0.438-0.422c-0.015-0.209,0.106-0.436,0.288-0.469
				c0.472-0.09,0.673-0.576,1.047-0.82c0.362-0.234,0.259-0.781,0.527-1.15c-0.277-0.055-0.352,0.094-0.424,0.252
				c-0.198,0.408-0.544,0.526-0.922,0.531c-0.133,0.004-0.338-0.115-0.267-0.267c0.229-0.504,0.077-1.146,0.544-1.581
				c0.48-0.463,0.394-0.875-0.229-1.109c-0.472-0.176-0.564-0.711-0.919-0.986c-0.089-0.063-0.05-0.244,0.007-0.361
				c0.151-0.32,0.395-0.645,0.66-0.707c0.326-0.082,0.322,0.395,0.437,0.654c0.125,0.286,0.184,0.635,0.556,0.771
				c-0.505-0.547-0.073-1.125-0.095-1.673c0-0.03,0.001-0.063,0.012-0.077c0.758-0.554,0.584-1.635,1.092-2.344
				c0.332-0.465,0.49-0.639,1.027-0.531c0.562,0.107,1.092-0.064,1.634-0.158c0.273-0.059,0.574-0.172,0.742,0.155
				c0.172,0.337,0.119,0.739-0.12,1.001c-0.331,0.381-0.56,0.885-1.016,1.136c-0.14,0.079-0.323,0.271-0.22,0.415
				c0.235,0.326-0.009,0.544-0.181,0.953c1.088-0.646,2.097-0.354,3.097-0.352c0.62,0.004,0.944,0.534,0.631,1.14
				c-0.527,1.013-0.645,2.247-1.361,3.155c-0.079,0.104-0.144,0.215-0.079,0.352c0.252,0.49,0,0.631-0.376,0.703
				c-0.115,0.014-0.229,0.059-0.296,0.184c0.012,0.188,0.146,0.183,0.252,0.154c0.749-0.156,1.237,0.285,1.72,0.846
				c0.507,0.586,0.778,1.227,0.799,2.036c0.018,0.554,0.354,0.993,0.567,1.472c0.046,0.123,0.139,0.209,0.253,0.238
				c0.783,0.209,1.029,0.967,1.327,1.654c0.089,0.203,0.121,0.438,0.267,0.613c0.271,0.337,0.479,0.683,0.301,1.174
				c-0.062,0.158,0.053,0.29,0.14,0.406c0.316,0.449,0.34,0.878-0.022,1.309c-0.087,0.108-0.197,0.263-0.035,0.396
				c0.108,0.092,0.218,0.006,0.306-0.077c0.344-0.319,0.75-0.378,1.165-0.323c0.529,0.068,0.997,0.547,1.073,1.145
				c0.093,0.729,0.057,1.443-0.463,1.995c-0.247,0.26-0.343,0.678-0.739,0.772c-0.082,0.018-0.143,0.185-0.202,0.29
				c-0.278,0.511-0.24,0.605,0.263,0.683c0.047,0.004,0.095,0.002,0.14,0.004c0.207,0.027,0.436,0.011,0.506,0.298
				c0.077,0.287-0.087,0.479-0.265,0.655c-0.625,0.631-1.379,0.938-2.197,0.932c-0.53-0.001-1.042,0.258-1.57,0.084
				c-0.126-0.041-0.134,0.105-0.168,0.194c-0.153,0.384-0.406,0.374-0.685,0.2c-0.283-0.18-0.532-0.116-0.837-0.004
				c-0.416,0.153-0.874,0.457-1.317-0.082c-0.244-0.306-0.981,0.005-1.145,0.42c-0.312,0.781-0.312,0.779-1.07,0.609
				c-0.465-0.096-0.941-0.171-1.265,0.32C42.712,173.49,42.245,173.464,41.718,173.244z"/>
			<path fill-rule="evenodd" clip-rule="evenodd" fill="#82CBB5" d="M12.881,124.438c0.402,0.094,0.734-0.115,1.068-0.343
				c0.096-0.063,0.181-0.147,0.223-0.274c0.113-0.346-0.46-0.205-0.312-0.561c0.081-0.201,0.247-0.367-0.035-0.565
				c-0.279-0.198-0.436-0.505-0.488-0.884c-0.041-0.285-0.202-0.381-0.486-0.398c-0.527-0.026-1.047-0.139-1.547,0.176
				c-0.196,0.127-0.42,0.088-0.516-0.184c-0.094-0.26-0.053-0.56,0.221-0.623c0.631-0.158,1.213-0.465,1.817-0.68
				c0.283-0.102,0.588-0.045,0.91-0.021c-0.046-0.076-0.063-0.129-0.094-0.143c-0.614-0.296-0.645-0.523-0.146-0.982
				c0.156-0.141,0.358-0.227,0.509-0.5c-0.303,0.023-0.458-0.178-0.636-0.361c-0.315-0.326-0.647-0.364-0.996-0.072
				c-0.271,0.216-0.577,0.311-0.865,0.463c-0.196,0.104-0.396,0.127-0.594,0.004c-0.236-0.139-0.471-0.176-0.731-0.092
				c-0.182,0.059-0.385,0.069-0.394-0.244c-0.009-0.311,0.198-0.582,0.427-0.575c0.135,0,0.251,0.14,0.407,0.066
				c0.126-0.237-0.103-0.361-0.156-0.535c-0.112-0.382-0.086-0.427,0.291-0.394c0.065,0.009,0.127,0.012,0.195,0.016
				c0.076-0.202,0.141-0.434,0.064-0.607c-0.135-0.323,0.012-0.504,0.172-0.734c0.329-0.489,0.702-0.597,0.961-0.108
				c0.25,0.491,0.656,0.471,0.983,0.714c0.092-0.21,0.007-0.371-0.1-0.428c-0.432-0.223-0.508-0.752-0.819-1.078
				c-0.208-0.218-0.113-0.492-0.014-0.713c0.096-0.211,0.294-0.156,0.484-0.119c0.707,0.123,1.139,0.705,1.618,1.193
				c0.127,0.132,0.211,0.33,0.359,0.453c0.653,0.562,0.77,1.003,0.487,1.875c-0.045,0.153-0.098,0.289,0.018,0.422
				c0.14,0.154,0.196,0.338,0.223,0.55c0.02,0.139,0.068,0.253,0.209,0.253c0.17,0,0.227-0.139,0.25-0.297
				c0.01-0.082,0.01-0.161,0.025-0.235c0.138-0.579,0.244-0.622,0.803-0.3c0.215-0.404,0.146-0.827,0.085-1.252
				c-0.045-0.334-0.229-0.775,0.119-0.98c0.409-0.233,0.566,0.281,0.804,0.527c0.224,0.24,0.26,0.643,0.533,0.858
				c0.051-0.065,0.107-0.114,0.102-0.136c-0.22-0.938,0.44-1.199,0.967-1.561c0.198-0.131,0.335-0.079,0.458,0.139
				c0.162,0.307,0.365,0.574,0.503,1.029c0.172-0.316,0.026-0.488,0.008-0.66c-0.027-0.184-0.032-0.363,0.107-0.49
				c0.167-0.148,0.352-0.097,0.52-0.004c0.173,0.094,0.301,0.239,0.406,0.406c0.186,0.281,0.373,0.223,0.469-0.041
				c0.172-0.443,0.375-0.57,0.802-0.354c0.375,0.185,0.596-0.024,0.635-0.495c0.011-0.127,0.009-0.262-0.007-0.389
				c-0.047-0.324-0.038-0.582,0.318-0.723c0.327-0.127,0.565-0.16,0.758,0.219c0.113,0.224,0.34,0.332,0.435,0.586
				c0.211,0.561,0.222,0.542,0.699,0.28c0.146-0.086,0.26-0.204,0.376-0.323c0.135-0.152,0.308-0.227,0.498-0.229
				c0.115-0.006,0.229,0.031,0.291,0.151c0.075,0.146-0.027,0.232-0.105,0.324c-0.473,0.535-0.473,0.535-0.628,1.038
				c0.663,0.137,0.714,0.205,0.645,0.986c-0.024,0.253-0.064,0.476,0.259,0.47c0.188-0.008,0.309,0.088,0.342,0.301
				c0.043,0.227,0.131,0.322,0.324,0.141c0.185-0.17,0.3-0.036,0.382,0.137c0.21,0.431,0.416,0.861,0.261,1.381
				c-0.046,0.156-0.074,0.299,0.113,0.367c0.418,0.16,0.341,0.537,0.207,0.816c-0.261,0.525-0.409,1.168-0.99,1.412
				c-0.159,0.07-0.166,0.198-0.186,0.363c-0.088,0.773-0.561,1.252-1.058,1.727c-0.126,0.119-0.251,0.127-0.367,0.031
				c-0.133-0.102-0.247-0.234-0.382-0.367c-0.483,0.546-0.939,1.195-1.539,1.658c-0.19,0.15-0.367,0.361-0.597,0.373
				c-0.988,0.03-1.598,0.754-2.227,1.445c-0.601,0.657-1.531,0.852-2.342,0.496c-0.362-0.157-0.717-0.349-1.119-0.382
				c-0.302-0.03-0.597-0.183-0.783-0.431c-0.639-0.858-1.496-0.93-2.374-0.858c-0.363,0.028-0.735-0.063-1.094,0.067
				c-0.277,0.1-0.449-0.074-0.464-0.393C12.831,124.98,12.747,124.726,12.881,124.438z"/>
			<path fill-rule="evenodd" clip-rule="evenodd" fill="#82CBB5" d="M85.636,25.472c-0.398-0.776-0.259-1.106,0.488-1.208
				c0.363-0.054,0.737-0.054,1.103-0.091c0.165-0.018,0.356-0.094,0.346-0.301c-0.016-0.207-0.158-0.35-0.386-0.334
				c-1.102,0.076-2.195,0.202-3.196,0.776c-0.174,0.095-0.335,0.185-0.513,0.055c-0.188-0.141-0.395-0.146-0.602-0.119
				c-0.433,0.057-0.717-0.251-0.924-0.561c-0.252-0.38-0.393-0.858-0.568-1.302c-0.065-0.158,0.018-0.3,0.119-0.416
				c0.188-0.225,0.369-0.455,0.559-0.673c0.357-0.405,0.354-0.577-0.085-0.872c-0.229-0.156-0.497-0.264-0.743-0.398
				c-0.196-0.114-0.495-0.158-0.462-0.483c0.027-0.359,0.253-0.614,0.573-0.68c0.248-0.051,0.503-0.048,0.753-0.048
				c0.342,0,0.512-0.152,0.52-0.548c0-0.253,0.019-0.51,0.062-0.761c0.09-0.434,0.329-0.526,0.663-0.28
				c0.224,0.167,0.307,0.436,0.408,0.688c0.059,0.156,0.08,0.357,0.313,0.434c0.156-0.343,0.079-0.742,0.156-1.1
				c0.04-0.211-0.077-0.348-0.272-0.343c-0.331,0-0.449-0.198-0.46-0.528c-0.011-0.39,0.119-0.707,0.396-0.928
				c0.149-0.123,0.315-0.013,0.44,0.101c0.596,0.528,1.125,1.128,1.571,1.812c0.124,0.185,0.111,0.374,0.111,0.583
				c-0.008,0.548,0.127,0.618,0.575,0.339c0.155-0.095,0.304-0.222,0.479-0.297c0.458-0.195,0.708-0.053,0.771,0.506
				c0.049,0.483,0.147,0.952,0.291,1.413c0.021,0.092,0.06,0.193,0.257,0.235c0.011-0.788,0.136-1.554,0.079-2.336
				c-0.037-0.664-0.047-1.34,0.394-1.879c0.436-0.535,1.187-0.43,1.338,0.259c0.151,0.705,0.275,1.481-0.253,2.11
				c-0.132,0.162-0.22,0.326-0.211,0.548c0.012,0.26-0.096,0.603,0.262,0.687c0.3,0.07,0.464-0.139,0.57-0.432
				c0.157-0.425,0.323-0.843,0.488-1.27c0.037-0.093,0.073-0.188,0.112-0.28c0.328-0.785,0.398-0.805,1.044-0.365
				c0.08,0.05,0.175,0.128,0.246,0.115c0.272-0.051,0.321,0.123,0.307,0.356c-0.021,0.394,0.185,0.521,0.493,0.589
				c0.712,0.168,1.431,0.37,2.147,0.547c0.401,0.092,0.708,0.323,0.997,0.644c0.284,0.319,0.378,0.649,0.306,1.106
				c-0.089,0.585-0.291,1.171-0.047,1.795c0.119,0.298-0.049,0.621-0.329,0.761c-0.275,0.143-0.439,0.353-0.546,0.653
				c-0.185,0.548-0.53,0.951-0.966,1.254c-0.28,0.198-0.411,0.394-0.292,0.814c0.208,0.748-0.437,2.061-1.092,2.363
				c-0.124,0.052-0.271,0.073-0.404,0.066c-0.736-0.056-1.082,0.178-1.332,0.902c-0.241,0.687-1.137,1.056-1.808,0.747
				c-0.66-0.311-0.951-0.922-1.1-1.646c-0.11-0.526-0.401-0.759-0.817-0.531c-0.284,0.165-0.507,0.114-0.779,0.038
				c-0.253-0.064-0.507-0.11-0.782,0.095c-0.352,0.257-0.554,0.185-0.705-0.238c-0.107-0.294-0.241-0.429-0.513-0.523
				c-0.604-0.218-0.926-0.797-1.216-1.386c-0.087-0.171-0.041-0.35,0.094-0.484c0.156-0.159,0.335-0.264,0.559-0.189
				c0.166,0.056,0.282,0.176,0.395,0.304C85.174,25.518,85.362,25.575,85.636,25.472z"/>
			<path fill-rule="evenodd" clip-rule="evenodd" fill="#82CBB5" d="M35.885,163.801c-0.567,0.014-0.964-0.1-1.308-0.39
				c-0.399-0.327-0.422-0.563-0.125-1.01c0.1-0.147,0.196-0.286,0.3-0.427c-0.021-0.267-0.262-0.152-0.367-0.271
				c-0.097-0.114-0.245-0.244-0.135-0.383c0.196-0.262,0.234-0.604,0.407-0.878c0.11-0.181,0.252-0.293,0.458-0.273
				c0.158,0.012,0.321,0.006,0.479,0.041c0.878,0.186,0.878,0.195,1.521-0.571c-0.021-0.173-0.166-0.138-0.262-0.182
				c-0.456-0.205-0.476-0.258-0.17-0.681c0.099-0.133,0.205-0.257,0.245-0.446c0.119-0.636,0.555-0.897,1.055-1.077
				c0.274-0.1,0.574-0.1,0.84-0.296c0.216-0.169,0.451,0,0.607,0.196c0.147,0.167,0.283,0.185,0.485,0.146
				c0.859-0.16,1.372,0.236,1.526,1.178c0.044,0.281,0.095,0.502,0.308,0.717c0.354,0.355,0.337,0.99,0,1.367
				c-0.243,0.268-0.495,0.535-0.778,0.746c-0.244,0.184-0.309,0.383-0.184,0.643c0.418,0.865,0.104,1.811,0.261,2.701
				c0.04,0.232-0.108,0.438-0.172,0.66c-0.125,0.408-0.26,0.816-0.273,1.259c-0.011,0.396-0.191,0.524-0.536,0.499
				c-0.633-0.044-1.173,0.139-1.714,0.57c-0.643,0.512-1.331,0.984-2.106,1.256c-0.41,0.146-0.812,0.146-1.219,0.176
				c-0.308,0.021-0.577-0.234-0.724-0.469c-0.114-0.171-0.198-0.376-0.36-0.521c-0.105-0.099-0.105-0.23-0.034-0.339
				c0.142-0.231,0.142-0.339-0.103-0.53c-0.202-0.16-0.04-0.471,0.173-0.519c0.521-0.128,0.826-0.407,0.779-1.044
				C35.24,165.168,35.24,164.334,35.885,163.801z"/>
			<path fill-rule="evenodd" clip-rule="evenodd" fill="#82CBB5" d="M87.126,38.767c0.863,0.209,1.641,0.117,2.216-0.777
				c0.226,0.319,0.401,0.575,0.624,0.791c0.396,0.382,0.369,0.833-0.021,1.329c-0.202,0.253-0.231,0.493-0.057,0.75
				c0.22,0.332,0.452,0.642,0.687,0.961c0.218,0.301,0.461,0.343,0.688,0.035c0.223-0.31,0.413-0.233,0.627,0.002
				c0.327,0.357,0.509,0.84,0.891,1.157c0.149,0.122,0.021,0.374-0.162,0.392c-0.95,0.066-1.241,0.842-1.583,1.658
				c-0.223,0.563-0.51,1.169-1.153,1.323c-0.19,0.048-0.307,0.198-0.408,0.381c-0.292,0.5-0.439,0.58-0.737,0.396
				c-0.354-0.213-0.244-0.493-0.136-0.845c0.136-0.462,0.321-0.959,0.03-1.534c-0.321,0.63-0.785,0.814-1.354,0.81
				c-0.241-0.004-0.492,0.114-0.736,0.127c-0.552,0.031-0.812-0.33-0.687-0.913c0.019-0.077,0.034-0.167,0.082-0.213
				c0.684-0.631,0.486-1.66,0.879-2.429c0.141-0.28,0.117-0.609-0.163-0.813c-0.289-0.206-0.406-0.552-0.582-0.843
				c-0.277-0.446-0.232-0.683,0.147-1.038c0.123-0.115,0.25-0.21,0.471-0.395c-0.631,0.102-0.896-0.236-1.036-0.737
				c-0.059-0.196-0.143-0.385-0.174-0.583c-0.062-0.411-0.171-0.766-0.488-1.054c-0.291-0.259-0.241-0.455,0.095-0.625
				c0.477-0.237,0.985-0.416,1.258-0.975c0.009-0.021,0.04-0.033,0.055-0.043c0.144-0.104,0.37-0.205,0.452-0.097
				c0.385,0.499,1.032-0.152,1.375,0.426c0.078,0.127,0.138,0.271,0.232,0.374c0.307,0.314,0.364,0.596,0.038,0.963
				c-0.258,0.291-0.201,0.729-0.258,1.1c-0.062,0.417-0.212,0.661-0.604,0.674C87.447,38.514,87.266,38.552,87.126,38.767z"/>
			<path fill-rule="evenodd" clip-rule="evenodd" fill="#82CBB5" d="M131.441,17.432c-0.108-0.29-0.336-0.247-0.481-0.363
				c-0.119-0.097-0.193-0.22-0.176-0.388c0.012-0.173,0.123-0.266,0.259-0.316c0.039-0.013,0.088-0.013,0.135-0.032
				c0.13-0.048,0.397,0.075,0.369-0.177c-0.025-0.275-0.275-0.183-0.451-0.151c-0.211,0.039-0.472,0.374-0.612,0.094
				c-0.173-0.336,0.196-0.51,0.387-0.704c0.181-0.194,0.393-0.346,0.613-0.486c0.618-0.406,0.628-0.396,1.115,0.222
				c0.244,0.308,0.494,0.337,0.743-0.002c0.199-0.27,0.356-0.592,0.493-0.915c0.203-0.477,0.146-0.576-0.32-0.774
				c-0.452-0.196-0.606-0.559-0.366-1.014c0.445-0.843,1.1-1.441,1.864-1.89c0.385-0.224,0.952,0.183,1.033,0.693
				c0.024,0.147,0.004,0.304,0.026,0.458c0.058,0.462,0.161,0.603,0.563,0.567c0.39-0.04,0.664,0.144,0.941,0.381
				c0.356,0.317,0.442,0.704,0.117,1.047c-0.66,0.707-1.2,1.66-2.276,1.692c-0.129,0-0.263,0.078-0.397,0.128
				c-0.255,0.107-0.385,0.254-0.37,0.622c0.038,0.872-0.268,1.116-1.056,0.947c-0.596-0.132-0.801,0.031-0.848,0.724
				c-0.023,0.325-0.087,0.657-0.101,0.986c-0.013,0.657-0.304,1.04-0.824,1.251c-0.175,0.07-0.337,0.176-0.507,0.25
				c-0.169,0.078-0.352,0.17-0.511-0.01c-0.155-0.169-0.089-0.383-0.038-0.579c0.078-0.319,0.182-0.612,0.488-0.79
				c0.173-0.099,0.078-0.273-0.077-0.317c-0.354-0.103-0.606,0.101-0.843,0.38c-0.383,0.458-0.591,0.421-0.886-0.119
				c-0.069-0.127-0.13-0.266-0.192-0.409c-0.266-0.623-0.242-0.813,0.188-1.283c0.369-0.4,0.465-0.396,0.81,0.038
				C130.571,17.6,130.734,17.635,131.441,17.432z"/>
			<path fill-rule="evenodd" clip-rule="evenodd" fill="#82CBB5" d="M150.195,13.991c0.028-0.755,0.257-1.479,0.628-2.134
				c0.305-0.534,0.913-0.627,1.344-0.209c0.179,0.178,0.313,0.158,0.497,0.085c0.511-0.195,1.054-0.305,1.508-0.702
				c0.425-0.372,1-0.156,1.181,0.398c0.369,1.126,0.3,2.215-0.369,3.192c-0.387,0.572-0.809,1.113-1.195,1.686
				c-0.246,0.354-0.52,0.477-0.896,0.286c-0.104-0.051-0.217-0.083-0.323-0.128c-0.394-0.153-0.778-0.303-1.192-0.05
				c-0.191,0.122-0.425,0.09-0.554-0.13c-0.259-0.437-0.651-0.796-0.563-1.425C150.297,14.591,150.22,14.304,150.195,13.991z"/>
			<path fill-rule="evenodd" clip-rule="evenodd" fill="#82CBB5" d="M144.683,11.538c0.366,0.621,0.355,0.68-0.229,0.966
				c-0.229,0.117-0.479,0.185-0.693,0.328c-0.854,0.576-1.499,0.016-2.126-0.488c-0.386-0.31-0.26-0.876,0.224-1.071
				c0.538-0.225,1.088-0.412,1.769-0.41c-0.4-0.297-0.741-0.532-1.061-0.791c-0.485-0.403-0.495-1.389-0.023-1.813
				c0.151-0.143,0.3-0.083,0.434,0.044c0.275,0.272,0.562,0.53,0.826,0.813c0.22,0.238,0.441,0.344,0.729,0.144
				c0.345-0.247,0.66-0.137,0.954,0.127c0.283,0.257,0.571,0.512,0.919,0.823c-0.031-0.363-0.229-0.516-0.396-0.685
				c-0.282-0.266-0.555-0.528-0.832-0.803c-0.086-0.085-0.157-0.195-0.095-0.336c0.057-0.128,0.158-0.188,0.277-0.188
				c0.188,0.009,0.385-0.011,0.546,0.06c0.728,0.312,1.475,0.583,2.025,1.254c0.205,0.24,0.439,0.451,0.645,0.688
				c0.291,0.334,0.283,0.504,0.003,0.855c-0.106,0.13-0.223,0.26-0.354,0.355c-0.231,0.183-0.404,0.323-0.357,0.73
				c0.046,0.427-0.622,1.155-1.007,1.241c-0.203,0.053-0.353-0.05-0.482-0.207c-0.25-0.297-0.503-0.599-0.759-0.894
				c-0.125-0.146-0.252-0.297-0.403-0.412C145.051,11.733,144.864,11.639,144.683,11.538z"/>
			<path fill-rule="evenodd" clip-rule="evenodd" fill="#82CBB5" d="M160.91,9.949c0.176,1.292-1.305,2.917-2.332,3.167
				c-0.49,0.121-1.002,0.158-1.498,0.246c-0.253,0.051-0.44-0.043-0.604-0.261c-0.951-1.307-0.91-1.238-0.148-2.495
				c0.303-0.5,0.663-0.854,1.228-0.855c0.327-0.002,0.499-0.225,0.596-0.535c0.134-0.409,0.251-0.83,0.395-1.232
				c0.303-0.854,0.872-1.004,1.517-0.442C160.749,8.143,160.875,8.977,160.91,9.949z"/>
			<path fill-rule="evenodd" clip-rule="evenodd" fill="#82CBB5" d="M148.73,18.082c0.51,0.525,0.592,0.808,0.262,1.258
				c-0.599,0.809-0.884,0.959-1.502,0.598c-0.143-0.079-0.276-0.176-0.464-0.304c-0.149,0.833-0.678,0.922-1.3,0.799
				c-0.314-0.056-0.646,0.028-0.957-0.11c-0.41-0.175-0.509-0.416-0.26-0.814c0.249-0.385,0.331-0.764,0.227-1.219
				c-0.047-0.193-0.021-0.407-0.013-0.611c0.013-0.312,0.155-0.546,0.434-0.614c0.444-0.108,0.884-0.289,1.352-0.159
				c0.109,0.031,0.234,0.119,0.32-0.013c0.085-0.134,0.055-0.299-0.017-0.434c-0.063-0.132-0.159-0.244-0.232-0.376
				c-0.176-0.323-0.136-0.431,0.189-0.559c1.076-0.409,2.902,0.252,3.551,1.285c0.119,0.191,0.251,0.4,0.126,0.636
				c-0.126,0.244-0.357,0.175-0.56,0.158C149.116,17.538,149.116,17.538,148.73,18.082z"/>
			<path fill-rule="evenodd" clip-rule="evenodd" fill="#82CBB5" d="M67.137,194.145c-0.064,0.644-0.172,1.244-0.425,1.801
				c-0.132,0.293-0.11,0.508,0.107,0.75c0.427,0.48,0.556,1.113,0.557,1.763c0.005,0.743,0.005,1.487-0.034,2.227
				c-0.023,0.553,0,1.182-0.755,1.188c-0.15,0-0.196,0.196-0.297,0.302c-0.405,0.439-0.669,0.409-0.999-0.115
				c-0.309-0.491-0.383-1.046-0.277-1.618c0.072-0.353,0.062-0.704,0.072-1.061c0.016-0.374-0.036-0.714-0.282-0.995
				c-0.166-0.197-0.229-0.441-0.206-0.703c0.018-0.223,0.072-0.408,0.339-0.348c0.604,0.134,0.824-0.447,1.163-0.792
				c0.122-0.126,0.03-0.286-0.078-0.396c-0.566-0.559-0.636-1.337-0.709-2.099c-0.03-0.39,0.064-0.76,0.439-0.955
				c0.33-0.172,0.663-0.363,0.802-0.79c0.033-0.101,0.13-0.151,0.229-0.11c0.094,0.033,0.152,0.131,0.155,0.229
				C66.956,193.016,67.052,193.594,67.137,194.145z"/>
			<path fill-rule="evenodd" clip-rule="evenodd" fill="#82CBB5" d="M130.971,12.856c-0.243,0.114-0.281,0.373-0.308,0.623
				c-0.049,0.51-0.273,0.909-0.573,1.276c-0.239,0.308-0.489,0.607-0.715,0.922c-0.181,0.256-0.416,0.39-0.675,0.508
				c-0.291,0.134-0.53,0.154-0.673-0.233c-0.092-0.255-0.291-0.385-0.483-0.525c-0.285-0.211-0.578-0.416-0.857-0.643
				c-0.199-0.16-0.523-0.244-0.508-0.561c0.021-0.403,0.393-0.454,0.656-0.572c0.203-0.099,0.44-0.192,0.661-0.185
				c0.666,0.02,1.174-0.376,1.705-0.726c0.292-0.185,0.451-0.498,0.583-0.834c0.194-0.502,0.581-0.654,1.007-0.603
				c0.407,0.055,0.809,0.192,1.195,0.346c0.306,0.125,0.558,0.374,0.66,0.737c0.127,0.462,0.219,0.944,0.23,1.433
				c0.013,0.487-0.138,0.592-0.543,0.427c-0.523-0.22-1.01-0.5-1.169-1.182C131.141,12.97,131.089,12.878,130.971,12.856z"/>
			<path fill-rule="evenodd" clip-rule="evenodd" fill="#82CBB5" d="M78.829,103.307c-0.118,0.13-0.236,0.26-0.355,0.394
				c-0.394,0.139-0.653,0.508-0.963,0.777c-0.221,0.182-0.306,0.482-0.638,0.25c-0.083-0.055-0.184,0.04-0.247,0.115
				c-0.502,0.608-1.162,0.684-1.854,0.665c-0.082,0-0.206,0.031-0.249,0.097c-0.444,0.7-1.396,0.704-1.725,1.562
				c-0.031,0.086-0.125,0.161-0.203,0.196c-0.164,0.073-0.313-0.013-0.268-0.203c0.156-0.558,0.125-1.251,0.761-1.52
				c0.063-0.024,0.132-0.074,0.166-0.134c0.32-0.508,0.696-0.825,1.285-0.566c0.051,0.026,0.155-0.006,0.192-0.051
				c0.416-0.513,1.03-0.653,1.526-1.016c0.102-0.075,0.156-0.178,0.156-0.354c-0.395,0.183-0.724-0.275-1.144-0.09
				c-0.131,0.051-0.193-0.233-0.167-0.427c0.062-0.566,0.438-0.929,0.832-1.073c0.244-0.102,0.125-0.521,0.376-0.393
				c0.268,0.13,0.345,0.456,0.427,0.746c0.013,0.053,0.031,0.097,0.069,0.249c0.138-0.449,0.295-0.79,0.158-1.202
				c-0.102-0.319-0.033-0.605,0.179-0.847c0.183-0.202,0.315-0.432,0.41-0.695c0.06-0.156,0.189-0.223,0.348-0.181
				c0.176,0.044,0.284,0.172,0.279,0.376c-0.016,0.361-0.035,0.768-0.269,1.008c-0.406,0.422-0.297,0.821-0.085,1.344
				c0.179-0.279,0.338-0.483,0.348-0.784c0.008-0.266,0.125-0.382,0.354-0.31c0.214,0.065,0.488,0.247,0.363,0.446
				c-0.294,0.455-0.012,0.883-0.063,1.312C78.819,103.095,78.829,103.204,78.829,103.307z"/>
			<path fill-rule="evenodd" clip-rule="evenodd" fill="#82CBB5" d="M131.719,101.475c-0.03-0.812,0.107-1.578,0.525-2.265
				c0.488-0.803,1.118-0.874,1.758-0.213c0.301,0.317,0.511,0.773,1.019,0.825c0.23,0.026,0.519,1.03,0.416,1.287
				c-0.031,0.099-0.085,0.198-0.188,0.181c-0.382-0.066-0.554,0.236-0.689,0.515c-0.311,0.642-0.926,0.798-1.401,1.172
				c-0.116,0.09-0.274,0.004-0.4,0.024c-0.298,0.051-0.474-0.581-0.831-0.185c-0.036,0.024-0.153-0.171-0.192-0.286
				C131.6,102.181,131.719,101.824,131.719,101.475z"/>
			<path fill-rule="evenodd" clip-rule="evenodd" fill="#82CBB5" d="M71.398,38.494c0,0.22,0.024,0.357-0.116,0.417
				c-0.119,0.055-0.223-0.022-0.326-0.077c-0.17-0.11-0.22-0.317-0.282-0.511c-0.211-0.646-0.432-1.272-1.035-1.632
				c-0.349-0.206-0.464-0.622-0.53-1.03c-0.104-0.658-0.193-1.307-0.541-1.879c-0.153-0.233-0.133-0.539-0.115-0.819
				c0.013-0.2-0.007-0.442,0.232-0.491c0.199-0.037,0.395,0.091,0.466,0.262c0.255,0.616,0.699,1.111,0.738,1.861
				c0.044,0.768,0.284,1.503,0.844,2.035c0.182,0.172,0.321,0.374,0.327,0.649C71.08,37.744,71.44,38.099,71.398,38.494z"/>
			<path fill-rule="evenodd" clip-rule="evenodd" fill="#82CBB5" d="M148.389,5.337c-0.105-0.03-0.262-0.052-0.413-0.112
				c-0.519-0.222-1.03-0.433-1.531-0.675c-0.482-0.236-0.502-0.392-0.128-0.833c0.139-0.166,0.292-0.324,0.457-0.463
				c0.817-0.706,1.085-0.688,1.802,0.117c0.166,0.18,0.337,0.352,0.471,0.55c0.181,0.266,0.378,0.576,0.205,0.916
				C149.087,5.158,148.787,5.316,148.389,5.337z"/>
			<path fill-rule="evenodd" clip-rule="evenodd" fill="#82CBB5" d="M92.889,211.83c-0.168,0.002-0.322-0.043-0.44-0.176
				c-0.416-0.427-0.924-0.525-1.465-0.529c-0.523-0.012-0.628-0.113-0.596-0.484c0.036-0.432,0.279-0.647,0.702-0.623
				c0.112,0.01,0.268-0.03,0.333,0.037c0.67,0.667,1.534,0.281,2.278,0.539c0.412,0.143,0.835,0.422,1.322,0.253
				c0.113-0.034,0.186,0.146,0.154,0.278c-0.051,0.23-0.141,0.477-0.38,0.481C94.152,211.623,93.522,211.742,92.889,211.83z"/>
			<path fill-rule="evenodd" clip-rule="evenodd" fill="#82CBB5" d="M104.097,20.378c-0.211,0-0.366-0.083-0.417-0.321
				c-0.045-0.254,0.104-0.378,0.283-0.461c0.253-0.108,0.518-0.209,0.778-0.304c0.607-0.231,1.226-0.422,1.749-0.869
				c0.276-0.236,0.559-0.209,0.82,0.015c0.185,0.161,0.19,0.342,0.021,0.524c-0.032,0.031-0.062,0.068-0.113,0.088
				c-0.93,0.539-1.861,1.093-2.925,1.291C104.227,20.356,104.159,20.365,104.097,20.378z"/>
			<path fill-rule="evenodd" clip-rule="evenodd" fill="#82CBB5" d="M40.821,146.98c-0.211,0.369-0.157,0.979-0.65,1.291
				c-0.039,0.029-0.081,0.056-0.121,0.084c-0.233,0.141-0.358,0.623-0.712,0.377c-0.224-0.15-0.205-1.418,0.015-1.576
				c0.275-0.202,0.445-0.519,0.722-0.697c0.176-0.114,0.353-0.293,0.567-0.202C40.91,146.367,40.735,146.654,40.821,146.98z"/>
			<path fill-rule="evenodd" clip-rule="evenodd" fill="#82CBB5" d="M100.647,32.451c-0.057,0.459-0.718,0.779-1.077,0.521
				c-0.189-0.128-0.276-0.456-0.56-0.372c-0.285,0.075-0.573,0.174-0.786,0.429c-0.188,0.213-0.409,0.416-0.632,0.112
				c-0.21-0.287,0.019-0.468,0.208-0.683c0.274-0.31,0.675-0.387,0.943-0.725c0.196-0.244,0.472,0.043,0.687,0.149
				c0.334,0.161,0.576,0.6,1.034,0.317C100.568,32.138,100.641,32.312,100.647,32.451z"/>
			<path fill-rule="evenodd" clip-rule="evenodd" fill="#82CBB5" d="M140.318,89.833c-0.102,0.29-0.062,0.646-0.025,0.999
				c0.011,0.105-0.037,0.195-0.137,0.233c-0.112,0.033-0.184-0.04-0.222-0.134c-0.117-0.3-0.236-0.605-0.342-0.916
				c-0.129-0.384-0.265-0.75-0.664-0.909c-0.196-0.08-0.354-0.279-0.261-0.545c0.095-0.259,0.314-0.363,0.565-0.324
				C139.865,88.348,140.358,89.05,140.318,89.833z"/>
			<path fill-rule="evenodd" clip-rule="evenodd" fill="#82CBB5" d="M39.596,131.723c0.143-0.016,0.256-0.056,0.369-0.037
				c0.253,0.025,0.372,0.187,0.282,0.475c-0.044,0.143-0.104,0.281-0.173,0.418c-0.188,0.323-0.421,0.623-0.067,1.006
				c0.101,0.107,0.053,0.308-0.09,0.391c-0.148,0.09-0.265-0.037-0.338-0.166c-0.061-0.106-0.102-0.225-0.125-0.35
				c-0.071-0.375-0.26-0.537-0.619-0.578c-0.411-0.045-0.42-0.184-0.226-0.604C38.829,131.789,39.155,131.612,39.596,131.723z"/>
			<path fill-rule="evenodd" clip-rule="evenodd" fill="#82CBB5" d="M56.938,200.666c-0.019,0.65-0.532,0.958-1.021,0.602
				c-0.156-0.115-0.314-0.172-0.488-0.229c-0.315-0.106-0.358-0.354-0.127-0.637c0.264-0.328,0.618-0.515,0.989-0.642
				C56.523,199.682,56.95,200.302,56.938,200.666z"/>
			<path fill-rule="evenodd" clip-rule="evenodd" fill="#82CBB5" d="M48.883,138.218c0.556,0.673,0.519,1.456,0.414,2.245
				c-0.039,0.287-0.194,0.502-0.44,0.597c-0.188-0.121-0.127-0.284-0.127-0.433c0-0.119,0.04-0.34,0-0.361
				c-0.712-0.348-0.126-0.992-0.262-1.473C48.393,138.523,48.645,138.308,48.883,138.218z"/>
			<path fill-rule="evenodd" clip-rule="evenodd" fill="#82CBB5" d="M84.472,30.556c0.04-0.459,0.255-0.678,0.614-0.623
				c0.416,0.064,0.884,0.515,0.871,0.836c-0.02,0.365-0.486,0.72-0.876,0.664C84.729,31.39,84.441,30.97,84.472,30.556z"/>
			<path fill-rule="evenodd" clip-rule="evenodd" fill="#82CBB5" d="M35.817,91.413c-0.146-0.024-0.2-0.123-0.151-0.267
				c0.072-0.22,0.219-0.387,0.384-0.528c0.346-0.292,0.697-0.574,0.931-0.998c0.071-0.128,0.183-0.225,0.328-0.258
				c0.281-0.077,0.454,0.075,0.409,0.399c-0.051,0.376-0.229,0.675-0.521,0.854c-0.417,0.26-0.911,0.348-1.25,0.764
				C35.925,91.409,35.864,91.402,35.817,91.413z"/>
			<path fill-rule="evenodd" clip-rule="evenodd" fill="#82CBB5" d="M95.095,33.632c0.02-0.079,0.042-0.207,0.08-0.319
				c0.093-0.242,0.251-0.319,0.417-0.09c0.211,0.294,0.407,0.604,0.573,0.933c0.141,0.275,0.09,0.554-0.166,0.728
				c-0.251,0.17-0.438,0.031-0.573-0.207C95.262,34.367,95.127,34.044,95.095,33.632z"/>
			<path fill-rule="evenodd" clip-rule="evenodd" fill="#82CBB5" d="M82.491,17.721c0.017,0.272-0.274,0.717-0.494,0.756
				c-0.236,0.038-0.709-0.405-0.729-0.688c-0.027-0.323,0.279-0.788,0.517-0.794C82.065,16.991,82.479,17.415,82.491,17.721z"/>
			<path fill-rule="evenodd" clip-rule="evenodd" fill="#82CBB5" d="M93.96,90.918c-0.346,0.008-0.625-0.291-0.617-0.663
				c0.007-0.141,0.5-0.539,0.685-0.55c0.227-0.009,0.596,0.438,0.611,0.741C94.655,90.703,94.353,90.916,93.96,90.918z"/>
			<path fill-rule="evenodd" clip-rule="evenodd" fill="#82CBB5" d="M95.042,201.059c0.312,0,0.719,0.539,0.666,0.85
				c-0.013,0.116-0.095,0.16-0.181,0.197c-0.31,0.147-0.889,0.008-1.128-0.279c-0.089-0.104-0.098-0.234-0.026-0.344
				C94.536,201.217,94.798,201.115,95.042,201.059z"/>
			<path fill-rule="evenodd" clip-rule="evenodd" fill="#82CBB5" d="M45.398,144.648c0.017-0.104,0.04-0.198,0.042-0.299
				c0.011-0.232-0.01-0.491,0.202-0.605c0.251-0.141,0.355,0.139,0.48,0.297c0.116,0.145,0.293,0.127,0.426,0.218
				c0.085,0.053,0.148,0.126,0.111,0.249c-0.026,0.101-0.111,0.195-0.201,0.172c-0.29-0.096-0.52-0.096-0.633,0.303
				c-0.031,0.107-0.191,0.105-0.307,0.051C45.365,144.951,45.365,144.805,45.398,144.648z"/>
			<path fill-rule="evenodd" clip-rule="evenodd" fill="#82CBB5" d="M85.851,204.402c-0.095,0.193,0.068,0.312,0.193,0.463
				c0.119,0.139,0.159,0.31-0.006,0.451c-0.164,0.138-0.308,0.053-0.422-0.086c-0.058-0.07-0.139-0.166-0.139-0.25
				c0-0.336-0.089-0.598-0.313-0.846c-0.193-0.213-0.006-0.426,0.17-0.557c0.177-0.137,0.291-0.02,0.386,0.151
				C85.824,203.922,85.969,204.102,85.851,204.402z"/>
			<path fill-rule="evenodd" clip-rule="evenodd" fill="#82CBB5" d="M97.65,209.375c-0.213-0.033-0.227-0.235-0.199-0.439
				c0.043-0.328,0.505-0.788,0.814-0.826c0.163-0.02,0.25,0.062,0.265,0.25C98.556,208.797,98.08,209.375,97.65,209.375z"/>
			<path fill-rule="evenodd" clip-rule="evenodd" fill="#82CBB5" d="M83.356,68.916c0.008-0.05-0.009,0.075-0.051,0.191
				c-0.057,0.172-0.154,0.324-0.334,0.343c-0.235,0.024-0.229-0.191-0.269-0.361c-0.023-0.099-0.067-0.185-0.1-0.281
				c-0.08-0.209-0.063-0.396,0.107-0.54c0.133-0.116,0.261-0.217,0.434-0.107C83.348,68.285,83.425,68.485,83.356,68.916z"/>
			<path fill-rule="evenodd" clip-rule="evenodd" fill="#82CBB5" d="M84.372,95.89c-0.329-0.03-0.77-0.862-0.621-1.192
				c0.052-0.117,0.164-0.124,0.229-0.062c0.232,0.233,0.519,0.425,0.67,0.739C84.78,95.646,84.623,95.913,84.372,95.89z"/>
			<path fill-rule="evenodd" clip-rule="evenodd" fill="#82CBB5" d="M85.969,95.308c-0.05,0.195,0.038,0.559-0.307,0.523
				c-0.26-0.028-0.441-0.253-0.441-0.587c0-0.326,0.204-0.583,0.448-0.559C85.874,94.703,85.976,94.9,85.969,95.308z"/>
			<path fill-rule="evenodd" clip-rule="evenodd" fill="#82CBB5" d="M111.23,120.102c-0.01,0.209-0.027,0.399-0.199,0.477
				c-0.227,0.105-0.321-0.107-0.422-0.275c-0.127-0.209-0.262-0.431-0.105-0.688c0.105-0.17,0.277-0.17,0.436-0.113
				C111.199,119.615,111.224,119.869,111.23,120.102z"/>
			<path fill-rule="evenodd" clip-rule="evenodd" fill="#82CBB5" d="M44.015,160.342c0,0.183-0.047,0.354-0.16,0.481
				c-0.176,0.198-0.396,0.461-0.634,0.254c-0.225-0.2,0.021-0.456,0.125-0.66c0.056-0.108,0.141-0.198,0.221-0.286
				c0.079-0.088,0.174-0.172,0.299-0.105C43.982,160.088,44,160.215,44.015,160.342z"/>
			<path fill-rule="evenodd" clip-rule="evenodd" fill="#82CBB5" d="M93.445,206.398c0.256,0.033,0.442-0.035,0.514,0.191
				c0.049,0.151,0.045,0.312-0.042,0.439c-0.142,0.212-0.323,0.133-0.498,0.045c-0.054-0.038-0.125-0.056-0.191-0.068
				c-0.153-0.033-0.25-0.137-0.226-0.314c0.021-0.167,0.127-0.265,0.279-0.285C93.368,206.396,93.46,206.398,93.445,206.398z"/>
			<path fill-rule="evenodd" clip-rule="evenodd" fill="#82CBB5" d="M94.607,202.939c0.19,0.014,0.317,0.176,0.311,0.447
				c-0.001,0.26-0.026,0.52-0.316,0.59c-0.057,0.018-0.154-0.029-0.175-0.075c-0.111-0.26-0.164-0.534-0.096-0.814
				C94.353,202.99,94.445,202.936,94.607,202.939z"/>
			<path fill-rule="evenodd" clip-rule="evenodd" fill="#82CBB5" d="M91.346,90.962c-0.221-0.004-0.435-0.28-0.41-0.515
				c0.016-0.202,0.135-0.31,0.309-0.323c0.223-0.02,0.446,0.224,0.433,0.469C91.66,90.823,91.534,90.947,91.346,90.962z"/>
			<path fill-rule="evenodd" clip-rule="evenodd" fill="#82CBB5" d="M95.859,210.641c0.291-0.312,0.452-0.599,0.526-0.941
				c0.016-0.096,0.084-0.184,0.195-0.163c0.036,0.002,0.099,0.054,0.096,0.075c-0.025,0.297,0.146,0.617-0.047,0.871
				C96.456,210.704,96.217,210.729,95.859,210.641z"/>
			<path fill-rule="evenodd" clip-rule="evenodd" fill="#82CBB5" d="M58.38,199.85c0,0.178-0.07,0.296-0.229,0.324
				c-0.249,0.033-0.567-0.238-0.541-0.457c0.021-0.179,0.146-0.247,0.29-0.27C58.158,199.41,58.371,199.596,58.38,199.85z"/>
			<path fill-rule="evenodd" clip-rule="evenodd" fill="#82CBB5" d="M38.95,149.707c-0.191-0.051-0.403-0.146-0.376-0.412
				c0.021-0.275,0.266-0.293,0.473-0.285c0.181,0.004,0.297,0.12,0.273,0.336C39.298,149.565,39.186,149.709,38.95,149.707z"/>
			<path fill-rule="evenodd" clip-rule="evenodd" fill="#82CBB5" d="M81.307,151.535c-0.151-0.637-0.279-1.164-0.221-1.732
				c0.062-0.697,0.417-1.164,0.824-1.617c0.107-0.115,0.242-0.129,0.378-0.151c0.371-0.068,0.573,0.141,0.432,0.497
				c-0.164,0.395-0.203,0.771-0.164,1.184c0.003,0.078-0.003,0.166-0.039,0.217C82.162,150.508,81.685,150.969,81.307,151.535z"/>
			<path fill-rule="evenodd" clip-rule="evenodd" fill="#82CBB5" d="M87.682,148.023c0.158-0.545,0.031-0.908-0.175-1.292
				c-0.203-0.378-0.029-0.68,0.347-0.87c0.385-0.209,0.757-0.463,1.219-0.428c0.213,0.021,0.402,0.051,0.567,0.205
				c0.346,0.322,0.355,0.527-0.027,0.814c-0.315,0.234-0.564,0.604-1.002,0.617c-0.174,0-0.25,0.191-0.342,0.344
				C88.161,147.623,88.075,147.871,87.682,148.023z"/>
			<path fill-rule="evenodd" clip-rule="evenodd" fill="#82CBB5" d="M89.515,144.531c-0.011,0.289-0.221,0.363-0.394,0.486
				c-0.489,0.342-0.954,0.221-1.228-0.323c-0.051-0.105-0.033-0.218,0.038-0.276c0.26-0.205,0.521-0.428,0.806-0.566
				C89.015,143.72,89.528,144.201,89.515,144.531z"/>
			<path fill-rule="evenodd" clip-rule="evenodd" fill="#82CBB5" d="M84.709,139.586c-0.094,0.235-0.146,0.482-0.046,0.771
				c0.044,0.117-0.088,0.265-0.204,0.215c-0.269-0.119-0.565-0.226-0.698-0.551c-0.09-0.227,0.07-0.848,0.231-0.986
				c0.128-0.111,0.259-0.072,0.387,0C84.562,139.146,84.718,139.287,84.709,139.586z"/>
			<path fill-rule="evenodd" clip-rule="evenodd" fill="#82CBB5" d="M75.936,158.057c-0.3,0.02-0.579-0.227-0.582-0.526
				c0-0.229,0.023-0.478,0.302-0.486c0.231-0.009,0.501,0.308,0.524,0.595C76.201,157.86,76.138,158.032,75.936,158.057z"/>
			<path fill-rule="evenodd" clip-rule="evenodd" fill="#82CBB5" d="M92.556,119.938c0.165,0.029,0.333,0.073,0.371,0.277
				c0.04,0.174-0.323,0.514-0.525,0.5c-0.209-0.018-0.357-0.158-0.339-0.383C92.086,120.022,92.322,119.955,92.556,119.938z"/>
		</g>
	</g>
</g>
</svg>
