<?xml version="1.0" encoding="utf-8"?>
<!-- Generator: Adobe Illustrator 16.0.0, SVG Export Plug-In . SVG Version: 6.00 Build 0)  -->
<!DOCTYPE svg PUBLIC "-//W3C//DTD SVG 1.1//EN" "http://www.w3.org/Graphics/SVG/1.1/DTD/svg11.dtd">
<svg version="1.1" id="Layer_1" xmlns="http://www.w3.org/2000/svg" xmlns:xlink="http://www.w3.org/1999/xlink" x="0px" y="0px"
	 width="152.167px" height="56.5px" viewBox="0 0 152.167 56.5" enable-background="new 0 0 152.167 56.5" xml:space="preserve">
<g>
	<g>
		<polygon fill="#0B94B6" points="19.927,45.957 82.462,45.957 97.449,0.443 19.458,0.443 11.439,2.067 11.439,30.587 
			11.439,44.462 		"/>
		<g>
			<path fill="#FFFFFF" d="M19.338,45.974c-8.578,0-18.619-4.104-18.688-15.673c-0.001-0.168,0.065-0.328,0.182-0.446
				c0.118-0.118,0.278-0.184,0.443-0.184h9.532c0.334,0,0.609,0.262,0.625,0.597c0.249,5.017,4.441,6.804,8.281,6.804
				c2.408,0,6.963-0.918,6.963-4.392c0-2.989-4.138-4.01-8.928-5.193c-7.003-1.73-15.718-3.881-15.718-13.496
				c0-9.306,8.581-13.544,16.555-13.544c10.747,0,17.334,5.313,17.622,14.214c0.005,0.169-0.058,0.334-0.176,0.456
				c-0.118,0.122-0.28,0.19-0.45,0.19h-9.094c-0.319,0-0.587-0.24-0.623-0.557c-0.432-3.841-2.438-5.339-7.154-5.339
				c-2.294,0-5.708,1.02-5.708,3.826c0,2.582,3.895,3.475,8.403,4.507c7.237,1.658,16.244,3.722,16.244,13.868
				C37.649,42.202,28.19,45.974,19.338,45.974z"/>
			<path fill="#FFFFFF" d="M27.302,32.68c0-8.279-24.646-2.947-24.646-18.688c0-8.78,8.152-12.919,15.929-12.919
				c8.78,0,16.682,3.888,16.996,13.609h-9.094c-0.501-4.454-3.072-5.895-7.776-5.895c-2.634,0-6.334,1.254-6.334,4.452
				c0,7.59,24.646,2.133,24.646,18.375c0,10.035-8.968,13.734-17.685,13.734c-9.407,0-18-4.641-18.062-15.051h9.532
				c0.25,5.08,4.265,7.4,8.905,7.4C22.662,37.698,27.302,36.504,27.302,32.68z"/>
		</g>
		<g>
			<path fill="#0B94B6" d="M105.226,45.967c-0.267,0-0.504-0.169-0.592-0.423l-2.928-8.493H86.358l-2.929,8.493
				c-0.086,0.253-0.324,0.423-0.592,0.423H72.741c-0.207,0-0.4-0.103-0.517-0.272c-0.116-0.17-0.141-0.388-0.066-0.579l17.31-44.254
				c0.095-0.24,0.325-0.398,0.583-0.398h7.965c0.258,0,0.488,0.158,0.583,0.398l17.31,44.252c0.074,0.193,0.049,0.411-0.066,0.581
				c-0.117,0.17-0.311,0.272-0.518,0.272H105.226L105.226,45.967z M98.519,27.796l-4.518-13.19l-4.518,13.191L98.519,27.796
				L98.519,27.796z"/>
			<path fill="#0B94B6" d="M105.226,45.342l-3.072-8.916H85.912l-3.074,8.916H72.741L90.05,1.088h7.965l17.309,44.254H105.226z
				 M94.001,12.672l-5.395,15.749h10.787L94.001,12.672z"/>
		</g>
		<g>
			<path fill="#0B94B6" d="M130.216,45.95c-12.447,0-22.574-10.207-22.574-22.754c0-12.546,10.127-22.753,22.574-22.753
				c9.759,0,18.364,6.245,21.416,15.541c0.062,0.191,0.03,0.401-0.088,0.562c-0.116,0.164-0.306,0.26-0.506,0.26h-10.474
				c-0.246,0-0.468-0.143-0.57-0.366c-1.604-3.524-5.532-5.892-9.778-5.892c-6.501,0-11.791,5.673-11.791,12.649
				c0,6.974,5.29,12.648,11.791,12.648c4.154,0,8.202-2.476,9.842-6.021c0.104-0.222,0.326-0.363,0.569-0.363h10.474
				c0.2,0,0.389,0.096,0.507,0.258s0.149,0.372,0.089,0.562C148.642,39.653,140.011,45.95,130.216,45.95z"/>
			<path fill="#0B94B6" d="M151.101,30.086c-2.885,8.852-11.162,15.236-20.885,15.236c-12.104,0-21.947-9.927-21.947-22.127
				c0-12.202,9.844-22.127,21.947-22.127c9.723,0,17.938,6.322,20.822,15.109h-10.474c-1.756-3.856-6.021-6.259-10.349-6.259
				c-6.896,0-12.416,6.006-12.416,13.276c0,7.333,5.519,13.275,12.416,13.275c4.391,0,8.655-2.592,10.412-6.385H151.101z"/>
		</g>
		<g>
			<path fill="#FFFFFF" d="M57.891,45.971c-12.449,0-22.576-10.214-22.576-22.766c0-12.553,10.126-22.765,22.576-22.765
				c9.758,0,18.364,6.247,21.416,15.548c0.062,0.191,0.029,0.401-0.089,0.563c-0.116,0.164-0.305,0.26-0.506,0.26H68.239
				c-0.246,0-0.469-0.143-0.57-0.367c-1.605-3.525-5.534-5.895-9.778-5.895c-6.502,0-11.792,5.677-11.792,12.656
				c0,6.976,5.289,12.654,11.792,12.654c4.153,0,8.201-2.477,9.842-6.024c0.103-0.222,0.324-0.362,0.569-0.362h10.473
				c0.199,0,0.389,0.096,0.506,0.259c0.118,0.163,0.15,0.372,0.09,0.562C76.316,39.672,67.684,45.971,57.891,45.971z"/>
			<path fill="#FFFFFF" d="M78.775,30.1c-2.885,8.854-11.162,15.242-20.883,15.242c-12.104,0-21.95-9.931-21.95-22.137
				c0-12.208,9.847-22.138,21.95-22.138c9.721,0,17.936,6.326,20.821,15.116H68.239c-1.757-3.858-6.021-6.262-10.348-6.262
				c-6.898,0-12.417,6.01-12.417,13.284c0,7.336,5.518,13.283,12.417,13.283c4.39,0,8.654-2.595,10.411-6.389H78.775L78.775,30.1z"
				/>
		</g>
	</g>
	<g>
		<path fill="#0B94B6" d="M11.456,48.287h2.156l2.812,4.132v-4.132H18.6v7.47h-2.176l-2.797-4.102v4.102h-2.171V48.287z"/>
		<path fill="#0B94B6" d="M22.299,48.287h6.187v1.595h-3.873v1.188h3.592v1.523h-3.592v1.473h3.985v1.691h-6.299V48.287z"/>
		<path fill="#0B94B6" d="M31.486,48.287h7.017v1.845h-2.354v5.625H33.84v-5.625h-2.354V48.287L31.486,48.287z"/>
		<path fill="#0B94B6" d="M40.949,48.287h2.191l0.79,4.183l1.155-4.183h2.185l1.158,4.177l0.791-4.177h2.181l-1.646,7.47h-2.264
			l-1.311-4.703l-1.305,4.703H42.61L40.949,48.287z"/>
		<path fill="#0B94B6" d="M53.856,52.027c0-1.22,0.339-2.17,1.019-2.849c0.68-0.68,1.625-1.02,2.838-1.02
			c1.244,0,2.202,0.334,2.875,1.002c0.672,0.668,1.009,1.602,1.009,2.806c0,0.872-0.148,1.588-0.441,2.147
			c-0.294,0.559-0.718,0.993-1.274,1.305c-0.556,0.311-1.248,0.467-2.077,0.467c-0.842,0-1.539-0.135-2.091-0.402
			c-0.551-0.27-1-0.693-1.342-1.275C54.027,53.627,53.856,52.9,53.856,52.027z M56.164,52.037c0,0.754,0.14,1.296,0.42,1.625
			c0.28,0.331,0.662,0.495,1.144,0.495c0.496,0,0.879-0.162,1.151-0.484c0.272-0.322,0.408-0.902,0.408-1.738
			c0-0.702-0.143-1.217-0.426-1.541c-0.282-0.324-0.667-0.486-1.154-0.486c-0.465,0-0.839,0.165-1.121,0.493
			C56.306,50.731,56.164,51.276,56.164,52.037z"/>
		<path fill="#0B94B6" d="M65.041,55.756v-7.47h3.847c0.714,0,1.259,0.061,1.636,0.183c0.377,0.123,0.682,0.35,0.912,0.682
			c0.231,0.331,0.347,0.734,0.347,1.21c0,0.414-0.089,0.771-0.265,1.073c-0.177,0.3-0.42,0.543-0.729,0.73
			c-0.198,0.118-0.468,0.217-0.811,0.296c0.275,0.092,0.475,0.183,0.601,0.274c0.084,0.061,0.208,0.191,0.369,0.393
			c0.162,0.201,0.269,0.355,0.324,0.465l1.118,2.164H69.78l-1.234-2.283c-0.157-0.295-0.295-0.486-0.418-0.575
			c-0.166-0.116-0.354-0.173-0.565-0.173h-0.204v3.031H65.041L65.041,55.756z M67.359,51.313h0.973c0.106,0,0.309-0.033,0.612-0.102
			c0.152-0.031,0.277-0.109,0.375-0.234c0.097-0.126,0.145-0.27,0.145-0.433c0-0.241-0.076-0.427-0.229-0.556
			c-0.153-0.13-0.44-0.193-0.861-0.193h-1.014L67.359,51.313L67.359,51.313z"/>
		<path fill="#0B94B6" d="M75.308,48.287h2.309v2.823l2.418-2.823h3.07l-2.727,2.819l2.849,4.65h-2.843l-1.574-3.071l-1.193,1.249
			v1.822h-2.309V48.287L75.308,48.287z"/>
		<path fill="#0B94B6" d="M91.812,48.287h2.309v5.631h3.604v1.84h-5.912V48.287L91.812,48.287z"/>
		<path fill="#0B94B6" d="M101.035,48.287h2.314v7.47h-2.314V48.287z"/>
		<path fill="#0B94B6" d="M107.15,48.287h3.035l1.172,4.546l1.162-4.546h3.034v7.47h-1.891v-5.697l-1.456,5.697h-1.711l-1.455-5.697
			v5.697h-1.891V48.287z"/>
		<path fill="#0B94B6" d="M119.289,48.287h2.312v7.47h-2.312V48.287z"/>
		<path fill="#0B94B6" d="M124.904,48.287h7.016v1.845h-2.354v5.625h-2.309v-5.625h-2.354V48.287z"/>
		<path fill="#0B94B6" d="M135.13,48.287h6.188v1.595h-3.873v1.188h3.592v1.523h-3.592v1.473h3.984v1.691h-6.299V48.287
			L135.13,48.287z"/>
		<path fill="#0B94B6" d="M144.875,48.287h3.428c0.677,0,1.223,0.092,1.639,0.275c0.416,0.183,0.76,0.446,1.031,0.789
			s0.469,0.742,0.592,1.198c0.122,0.455,0.184,0.938,0.184,1.446c0,0.8-0.091,1.418-0.273,1.857
			c-0.182,0.44-0.434,0.808-0.756,1.106c-0.323,0.297-0.669,0.494-1.039,0.594c-0.508,0.135-0.966,0.203-1.377,0.203h-3.428V48.287z
			 M147.181,49.978v4.082h0.565c0.482,0,0.825-0.054,1.03-0.161c0.203-0.106,0.363-0.293,0.479-0.561
			c0.115-0.267,0.174-0.698,0.174-1.297c0-0.791-0.13-1.333-0.388-1.625s-0.687-0.439-1.284-0.439L147.181,49.978L147.181,49.978z"
			/>
	</g>
</g>
</svg>
