<?xml version="1.0" encoding="utf-8"?>
<!-- Generator: Adobe Illustrator 16.0.0, SVG Export Plug-In . SVG Version: 6.00 Build 0)  -->
<!DOCTYPE svg PUBLIC "-//W3C//DTD SVG 1.1//EN" "http://www.w3.org/Graphics/SVG/1.1/DTD/svg11.dtd">
<svg version="1.1" id="Layer_1" xmlns="http://www.w3.org/2000/svg" xmlns:xlink="http://www.w3.org/1999/xlink" x="0px" y="0px"
	 width="177px" height="217px" viewBox="0 0 177 217" enable-background="new 0 0 177 217" xml:space="preserve">
<g>
	<g>
		<path fill-rule="evenodd" clip-rule="evenodd" fill="#F9A426" d="M127.441,124.285c0.36,0.771,0.51,1.57,0.334,2.451
			c-0.318,1.508,0.347,2.793,0.809,4.122c0.143,0.405,0.482,0.647,0.771,0.93c0.49,0.476,0.623,1.118,0.355,1.729
			c-0.391,0.869-0.355,1.722-0.289,2.639c0.083,1.265,0.012,2.539,0.273,3.805c0.171,0.789-0.092,1.604-0.469,2.285
			c-0.402,0.715-0.877,1.401-1.4,2.012c-0.49,0.561-1.08,0.997-1.802,1.239c-1.349,0.448-2.545,1.198-3.382,2.53
			c-0.604,0.973-1.596,1.496-2.291,2.377c-0.154,0.203-0.367,0.342-0.538,0.527c-0.368,0.422-0.446,0.922-0.263,1.473
			c0.07,0.199,0.188,0.373,0.25,0.575c0.602,1.73,1.269,3.448,0.756,5.38c-0.061,0.246-0.068,0.533-0.041,0.791
			c0.154,1.159-0.454,1.789-1.254,2.253c-0.377,0.219-0.802,0.334-1.213,0.477c-0.646,0.229-1.228,0.599-1.751,1.063
			c-0.384,0.341-0.425,0.527-0.171,1.205c0.163,0.426,0.163,0.838,0.078,1.247c-0.234,1.139-0.502,2.271-0.765,3.404
			c-0.121,0.534-0.387,0.979-0.823,1.249c-0.752,0.465-1.172,1.227-1.559,2.032c-0.178,0.377-0.328,0.771-0.524,1.135
			c-0.349,0.634-0.653,1.313-1.087,1.869c-1.024,1.329-2.105,2.604-3.172,3.888c-0.557,0.672-1.242,1.158-1.926,1.65
			c-0.325,0.227-0.658,0.438-1.051,0.469c-0.621,0.061-1.254,0.064-1.715,0.644c-0.912,0.146-1.777,0.798-2.759,0.294
			c-0.395-0.207-0.827-0.195-1.266-0.092c-0.274,0.062-0.577,0.083-0.845,0.012c-0.559-0.143-1.034-0.008-1.483,0.365
			c-0.147,0.127-0.323,0.27-0.502,0.289c-1.044,0.128-2.063,0.346-3.055,0.774c-0.23,0.106-0.565,0-0.829-0.101
			c-0.68-0.229-1.12-1.006-1.893-1.038c-0.072-0.005-0.178-0.259-0.181-0.39c-0.012-0.614-0.224-1.127-0.502-1.635
			c-0.319-0.579-0.406-1.143-0.02-1.781c0.41-0.682,0.298-1.456-0.086-2.115c-0.833-1.447-1.389-3.02-1.914-4.617
			c-0.325-1.014-0.824-1.901-1.538-2.655c-0.958-1.016-1.581-2.214-1.752-3.729c-0.134-1.152-0.545-2.263-0.545-3.444
			c0-0.155-0.042-0.321-0.104-0.464c-0.435-0.992-0.472-2.056-0.435-3.123c0.04-1.1-0.206-2.068-0.775-2.996
			c-0.667-1.099-1.219-2.277-1.665-3.52c-0.402-1.135-0.978-2.193-1.667-3.154c-0.495-0.703-0.728-1.468-0.744-2.354
			c-0.016-1.547-0.063-3.074,0.545-4.539c0.215-0.516,0.253-1.131,0.384-1.694c0.333-1.46,0.724-2.876,1.877-3.837
			c0.349-0.297,0.533-0.75,0.616-1.225c0.078-0.473,0.151-0.949,0.22-1.422c0.082-0.547-0.003-1.043-0.304-1.508
			c-0.601-0.952-0.914-1.976-0.595-3.154c0.072-0.246,0.09-0.559,0.006-0.785c-0.339-0.933-0.41-1.984-0.937-2.832
			c-0.416-0.676-0.678-1.402-0.807-2.195c-0.183-1.19-0.743-2.119-1.452-3.039c-0.996-1.29-2.218-2.334-3.146-3.688
			c-0.413-0.602-0.716-1.24-0.983-1.925c-0.225-0.591-0.244-1.104,0.119-1.648c0.444-0.665,0.556-1.5,0.585-2.27
			c0.052-1.13,0.328-2.19,0.538-3.27c0.049-0.262,0.095-0.52,0.125-0.783c0.09-0.746-0.166-1.365-0.621-1.877
			c-0.861-0.958-1.778-1.702-3.139-1.327c-0.5,0.128-1.024,0.21-1.534,0.345c-1.131,0.296-1.855-0.083-2.266-1.304
			c-0.227-0.654-0.472-1.269-0.901-1.792c-0.339-0.41-0.742-0.698-1.239-0.716c-1.81-0.05-3.631-0.115-5.293,0.924
			c-0.082,0.052-0.167,0.117-0.26,0.129c-1.587,0.24-2.913,1.264-4.411,1.793c-0.422,0.147-0.82,0.25-1.25,0.083
			c-0.226-0.083-0.458-0.155-0.684-0.228c-2.299-0.773-4.553-0.493-6.7,0.574c-1.006,0.5-1.868,0.521-2.871,0.067
			c-1.077-0.486-2.081-1.044-2.881-2.004c-0.386-0.472-0.833-0.879-1.364-1.148c-0.212-0.111-0.42-0.265-0.585-0.448
			c-0.715-0.817-1.541-1.418-2.535-1.736c-0.168-0.057-0.395-0.163-0.468-0.323c-0.33-0.756-0.984-1.341-1.025-2.242
			c-0.057-0.99-0.552-1.737-1.188-2.282c-0.583-0.498-0.908-1.238-1.456-1.721c-0.544-0.474-0.973-0.992-1.265-1.686
			c-0.112-0.254-0.402-0.256-0.63-0.314l-0.058-0.063c-0.159-0.121-0.318-0.234-0.468-0.367c-1.127-0.939-1.143-0.975-1.152-2.492
			c0-0.573,0.246-1.138-0.015-1.721c-0.24-0.54-0.673-0.889-0.935-1.33c-0.056-0.228,0.006-0.369,0.119-0.477
			c0.802-0.752,1.27-1.679,1.396-2.86c0.056-0.571,0.306-1.119,0.469-1.671c0.404-1.359,0.531-2.701-0.135-4.009
			c-0.151-0.3-0.177-0.605-0.056-0.917c0.32-0.826,0.207-1.567-0.373-2.19c-0.883-0.958-0.741-2.035-0.209-3.064
			c0.426-0.831,0.834-1.662,1.184-2.539c0.25-0.63,0.538-1.274,0.945-1.777c0.751-0.948,1.246-1.993,1.503-3.209
			c0.16-0.805,0.537-1.479,1.208-1.895c0.577-0.361,0.867-0.964,1.092-1.623c0.309-0.852,0.824-1.406,1.665-1.562
			c0.824-0.149,1.521-0.59,2.112-1.256c0.229-0.256,0.537-0.435,0.807-0.649c0.596-0.477,1.017-1.106,1.358-1.827
			c0.228-0.491,0.337-0.98,0.204-1.529c-0.277-1.212-0.028-2.313,0.589-3.338c0.207-0.35,0.366-0.744,0.516-1.129
			c0.432-1.131,1.129-1.955,2.137-2.465c0.127-0.061,0.256-0.138,0.389-0.196c1.369-0.566,2.121-1.734,2.567-3.216
			c0.151-0.505,0.324-1.004,0.516-1.487c0.253-0.647,0.988-1.016,1.476-0.28c0.534,0.809,1.276,1.029,2.146,0.98
			c0.853-0.043,1.704-0.001,2.554,0.236c0.731,0.201,1.426,0.012,1.95-0.667c0.283-0.371,0.588-0.712,1.029-0.835
			c0.793-0.222,1.492-0.655,2.175-1.159c0.684-0.504,1.458-0.78,2.297-0.78c0.625,0,1.216-0.177,1.819-0.361
			c0.776-0.242,1.588-0.347,2.386-0.482c0.439-0.073,0.865,0.063,1.255,0.252c0.479,0.236,0.965,0.23,1.381-0.041
			c1.03-0.669,2.132-0.445,3.198-0.372c0.881,0.057,1.705,0.081,2.484-0.443c0.161-0.111,0.348-0.176,0.53-0.25
			c0.54-0.207,1.049-0.154,1.44,0.342c0.304,0.402,0.591,0.609,1.106,0.42c0.352-0.126,0.593,0.352,0.389,0.729
			c-0.115,0.222-0.274,0.426-0.425,0.628c-0.482,0.69-0.482,0.75-0.022,1.522c0.746,1.237,0.669,2.038-0.308,3.06
			c-0.277,0.292-0.585,0.543-0.853,0.849c-0.173,0.191-0.25,0.46-0.085,0.723c0.119,0.182,0.32,0.315,0.494,0.229
			c0.504-0.25,0.81-0.135,0.988,0.464c0.129,0.432,0.466,0.645,0.829,0.826c0.863,0.45,1.687,0.899,2.728,0.669
			c0.632-0.143,1.312,0.181,1.936,0.47c0.352,0.161,0.687,0.374,1.042,0.518c0.532,0.218,0.879,0.599,1.065,1.198
			c0.319,1.028,0.982,1.474,1.955,1.543c1.223,0.08,2.305,0.629,3.273,1.46c0.074,0.068,0.143,0.141,0.221,0.202
			c0.406,0.337,0.838,0.522,1.331,0.241c0.583-0.337,1.012-0.82,1.018-1.601c0.007-0.423-0.071-0.844-0.099-1.265
			c-0.051-0.75,0.226-1.331,0.744-1.802c1.531-1.399,3.459-1.409,4.941,0.061c0.609,0.605,1.354,0.759,2.081,0.976
			c0.548,0.163,1.126,0.205,1.57,0.685c0.216,0.232,0.521,0.219,0.812,0.23c1.149,0.042,2.264,0.292,3.349,0.744
			c0.717,0.302,1.465,0.479,2.19,0.733c0.347,0.116,0.662,0.077,0.966-0.114c0.213-0.125,0.42-0.253,0.615-0.412
			c0.992-0.804,2.125-0.872,3.289-0.75c0.272,0.026,0.59,0.094,0.803,0.268c0.844,0.682,1.757,0.721,2.734,0.576
			c0.803-0.127,0.907-0.042,1.189,0.735c0.123,0.346,0.193,0.714,0.33,1.052c0.693,1.654,0.572,3.293-0.009,4.954
			c-0.207,0.579-0.433,0.9-1.042,0.764c-0.304-0.076-0.475,0.176-0.377,0.446c0.865,2.474,1.696,4.973,3.162,7.107
			c0.256,0.367,0.375,0.708,0.278,1.17c-0.185,0.881,0.097,1.546,0.786,2.03c1.432,1.004,1.892,2.586,2.014,4.346
			c0.058,0.9-0.02,1.805,0.198,2.694c0.128,0.533,0.297,0.992,0.778,1.261c1.257,0.703,1.85,1.921,2.144,3.397
			c0.163,0.823,0.231,1.688,0.716,2.396c0.219,0.316,0.403,0.319,0.667-0.008c0.056-0.077,0.083-0.194,0.149-0.27
			c0.148-0.166,0.367-0.091,0.451,0.125c0.094,0.256,0.177,0.499,0.078,0.77c-0.179,0.511,0.071,0.803,0.434,1.04
			c0.24,0.167,0.475,0.354,0.736,0.48c0.496,0.24,0.865,0.623,1.229,1.062c0.715,0.855,1.481,1.652,2.224,2.48
			c0.199,0.221,0.413,0.438,0.589,0.687c0.271,0.394,0.44,0.853,0.221,1.334c-0.221,0.479-0.066,0.798,0.234,1.129
			c0.195,0.225,0.375,0.483,0.535,0.74c0.592,0.901,1.393,1.139,2.285,0.804c0.779-0.3,1.525-0.586,2.363-0.357
			c0.281,0.081,0.549-0.115,0.801-0.276c0.418-0.274,0.855-0.435,1.341-0.508c1.175-0.194,2.345-0.454,3.521-0.676
			c0.434-0.083,0.824-0.271,1.199-0.512c0.156-0.105,0.339-0.18,0.525-0.22c0.375-0.078,0.785,0.268,0.819,0.684
			c0.038,0.422,0.031,0.849,0.058,1.27c0.035,0.637,0.164,1.281-0.354,1.781c-0.099,0.091-0.141,0.29-0.156,0.44
			c-0.105,1.221-0.771,2.144-1.283,3.165c-0.632,1.246-1.164,2.554-1.723,3.846c-0.149,0.33-0.192,0.753-0.402,1.007
			c-1.35,1.646-2.201,3.742-3.824,5.129c-0.261,0.222-0.451,0.537-0.666,0.829c-0.389,0.558-0.873,1.022-1.451,1.264
			c-1.533,0.641-2.576,1.976-3.73,3.148c-0.667,0.675-1.213,1.494-1.814,2.249c-0.889,1.108-1.781,2.208-2.793,3.189
			c-0.336,0.322-0.554,0.707-0.725,1.159c-0.391,1.031-0.807,2.039-1.361,2.979c-0.426,0.722-0.596,1.563-0.795,2.381
			c-0.118,0.472,0.066,0.829,0.477,1.021L127.441,124.285z M114.41,115.332c-0.062,0.66,0.051,0.787,0.753,0.927
			c0.229,0.044,0.446,0.141,0.667,0.223c0.277,0.097,0.559,0.122,0.843,0.056c0.192-0.049,0.44-0.148,0.4-0.357
			c-0.123-0.695,0.321-1.062,0.612-1.52c0.272-0.443,0.469-0.925,0.576-1.439c0.204-0.974-0.369-1.71-1.234-1.579
			c-0.467,0.075-0.931,0.185-1.389,0.315c-0.604,0.179-0.986,0.607-1.049,1.332C114.532,113.969,114.473,114.647,114.41,115.332z
			 M118.353,135.68c0.355,1.008,0.411,2.246,0.98,3.309c0.021,0.036,0.097,0.076,0.118,0.057c0.064-0.044,0.177-0.135,0.17-0.183
			c-0.219-1.183-0.488-2.378-0.191-3.579c0.166-0.654,0.166-1.214-0.112-1.822c-0.142-0.316-0.155-0.713-0.206-1.074
			c-0.064-0.425-0.133-0.838-0.367-1.186c-0.072-0.108-0.227-0.215-0.34-0.207c-0.168,0.02-0.188,0.219-0.127,0.356
			c0.459,1.108,0.354,2.267,0.26,3.421C118.518,135.025,118.434,135.283,118.353,135.68z M109.955,119.432
			c0.216,0.889-0.293,1.754,0.033,2.631c0.183,0.496,0.227,1.02,0.297,1.543c0.059,0.408,0.184,0.818,0.322,1.203
			c0.169,0.464,0.492,0.77,0.905,0.951c0.073,0.036,0.196,0.028,0.262-0.02c0.128-0.11,0.106-0.285,0.036-0.416
			c-0.102-0.18-0.207-0.365-0.348-0.496c-0.521-0.461-0.779-1.008-0.683-1.785c0.052-0.401-0.02-0.846-0.116-1.246
			C110.463,121.011,110.441,120.158,109.955,119.432z M82.857,85.551c0.019,0.53,0.055,1.102,0.52,1.363
			c0.417,0.232,0.806-0.111,1.168-0.341c0.167-0.109,0.297-0.292,0.227-0.51c-0.042-0.125-0.179-0.26-0.292-0.291
			c-0.452-0.124-0.91-0.204-1.29-0.558C83.046,85.087,82.849,85.299,82.857,85.551z M115.771,52.796
			c0.391,1.359,0.391,1.359,0.901,1.734C116.58,53.925,116.427,53.39,115.771,52.796z"/>
		<path fill-rule="evenodd" clip-rule="evenodd" fill="#F9A426" d="M134,155.859c-0.043-0.721,0.179-1.344,0.502-1.951
			c0.419-0.777,0.782-1.592,1.178-2.373c0.299-0.583,0.397-1.199,0.17-1.837c-0.332-0.948-0.359-1.972-0.53-2.956
			c-0.099-0.56-0.035-1.051,0.19-1.539c0.148-0.334,0.301-0.668,0.412-1.012c0.15-0.429,0.381-0.711,0.772-0.869
			c0.497-0.193,0.956-0.572,1.46-0.639c1.282-0.191,2.008-1.246,2.893-2.07c0.518-0.485,0.723-1.108,0.938-1.751
			c0.105-0.317,0.225-0.544,0.529-0.687c0.617-0.289,0.965-0.841,1.01-1.604c0-0.099,0.02-0.21,0.04-0.312
			c0.186-0.707,0.716-0.901,1.199-0.433c0.517,0.499,0.843,1.126,0.992,1.884c0.239,1.246,0.347,2.52,0.752,3.73
			c0.098,0.301,0.063,0.631-0.028,0.937c-0.084,0.265-0.213,0.539-0.49,0.483c-0.469-0.095-0.604,0.084-0.547,0.584
			c0.037,0.314,0.059,0.65-0.015,0.948c-0.644,2.491-1.076,5.042-1.812,7.519c-0.71,2.365-1.452,4.726-1.88,7.187
			c-0.078,0.464-0.27,0.905-0.426,1.349c-0.303,0.896-0.802,1.523-1.728,1.678c-0.456,0.08-0.894,0.365-1.327,0.584
			c-0.518,0.266-0.994,0.19-1.496-0.115c-1.311-0.793-2.135-1.932-2.141-3.662c0-0.596-0.106-1.158-0.369-1.683
			C134.027,156.822,133.992,156.344,134,155.859z"/>
	</g>
</g>
</svg>
