<?xml version="1.0" encoding="utf-8"?>
<!-- Generator: Adobe Illustrator 16.0.0, SVG Export Plug-In . SVG Version: 6.00 Build 0)  -->
<!DOCTYPE svg PUBLIC "-//W3C//DTD SVG 1.1//EN" "http://www.w3.org/Graphics/SVG/1.1/DTD/svg11.dtd">
<svg version="1.1" id="Layer_1" xmlns="http://www.w3.org/2000/svg" xmlns:xlink="http://www.w3.org/1999/xlink" x="0px" y="0px"
	 width="229px" height="217px" viewBox="-23 0 229 217" enable-background="new -23 0 229 217" xml:space="preserve">
<g>
	<g>
		<path fill="#64ABD4" d="M96.427,36.774c-0.162,0.16-0.64,0.458-1.049,0.788c0.202,0.334,0.162,0.905,0.553,0.941
			c0.554,0.053,0.501,0.895-0.105,0.762c-0.604-0.13-0.605,0.816-0.079,1.631s-0.998,1.736-0.576,2.156
			c0.42,0.419,0.078,0.92,0.261,1.183c0.186,0.263,2.42-0.105,3.393-1.104s1.234-0.867,1.735-0.735c0.499,0.131,1-0.369,0.734-0.763
			c-0.263-0.395-0.552-1.367-0.473-2.578c0.047-0.702-0.912-1.973-1.842-2.986c-0.287,0.231-0.547,0.354-0.938,0.354
			C97.408,36.423,96.706,36.493,96.427,36.774z"/>
		<path fill="#64ABD4" d="M35.784,68.607c-0.314-1.743-0.489-3.434-0.718-3.434c-0.319,0-0.746,1.492-1.278,1.385
			c-0.532-0.106-0.532-1.917,0.105-1.917c0.64,0,1.385-1.385,1.385-1.812c0-0.425-0.639-0.425-1.277-0.425
			c-0.64,0-2.024,0.106-2.024,0.106s-0.853-0.319-0.853-0.853c0-0.533-0.319-0.96-1.174-0.96c-0.85,0-0.85-0.851-1.49,0
			c-0.64,0.853,1.385,0.853,1.171,1.494c-0.212,0.637-0.852,0.212-0.957,0.745c-0.108,0.532,0.107,1.918,0.427,2.663
			c0.243,0.575,0.613,2.03,0.626,3.254c0.497-0.095,0.729-0.326,1.189-0.326c0.577,0,1.366-0.078,1.419-0.683
			c0.053-0.604,0.709-1.052,1.077-0.868c0.368,0.185,0.921,1.656,0.946,2.419c0.009,0.244,0.114,0.563,0.276,0.897
			c0.295-0.289,0.638-0.521,0.638-0.521S35.489,68.961,35.784,68.607z"/>
		<path fill="#64ABD4" d="M29.101,65.599c-0.319-0.744-0.535-2.131-0.427-2.663c0.105-0.533,0.745-0.108,0.957-0.745
			c0.214-0.641-1.811-0.641-1.171-1.494c0.641-0.851,0.641,0,1.49,0c0.854,0,1.174,0.427,1.174,0.96
			c0,0.534,0.853,0.853,0.853,0.853s1.385-0.106,2.024-0.106c0.639,0,1.277,0,1.277,0.425c0,0.427-0.745,1.812-1.385,1.812
			c-0.638,0-0.638,1.811-0.105,1.917c0.532,0.107,0.959-1.385,1.278-1.385c0.229,0,0.403,1.691,0.718,3.434
			c0.082-0.099,0.168-0.17,0.26-0.17c0.422,0,0.211-1.474,0.492-1.895s0.141-1.754,0.352-1.754c0.21,0,1.474,0.421,1.404,0.07
			c-0.071-0.352,0.771-1.546,0.632-2.178c-0.141-0.631,0.49-1.404,0.49-2.175c0-0.772,0.703-0.983,1.194-1.405
			c0.49-0.421,1.334-0.982,1.476-0.632c0.141,0.351,1.191,0.632,0.771,0c-0.421-0.632-0.421-1.052-0.14-1.192
			c0.281-0.141,0.422-0.844,0.422-0.844s-0.912-0.14-1.053-0.562c-0.142-0.42-0.704-0.841-0.704-1.193s-0.491-0.211-0.912,0.141
			c-0.422,0.351-1.193-0.421-2.107,0.07c-0.911,0.492-1.122,1.052-1.543,0.982c-0.422-0.071-0.352,0.352-0.702,0.702
			c-0.352,0.352-0.633,0.773-0.843,0.773s-0.913,0.352-0.913,0.352s0.493,1.052,0.21,1.543c-0.281,0.493-0.983,0-1.754,0.212
			c-0.772,0.21-1.124-0.281-1.687-0.141c-0.561,0.141-0.91-0.352-1.191-0.282c-0.282,0.071-0.703-0.632-0.562-1.193
			c0.141-0.561-0.281-1.334-0.562-0.912c-0.28,0.421-0.701,0.21-0.701,0.843c0,0.63,0.352,1.404-0.071,1.825
			c-0.421,0.422-2.668,0.633-3.088,0.282c-0.422-0.351-2.247-0.562-2.316-0.914c-0.07-0.352-0.633-0.982-0.983-0.982
			c-0.352,0-1.406,0.49-1.687,0.279c-0.28-0.209-0.982-0.771-1.474-0.841c-0.491-0.071-1.264-0.423-1.334-0.703
			c-0.07-0.281-1.193-0.421-1.404-0.703c-0.21-0.281-0.912-0.35-0.912-0.701c0-0.351,0.281-0.913,0.281-1.334
			c0-0.422,0.842-0.841,0.842-1.123c0-0.28-0.771-0.773-0.771-0.773s-0.494-0.913-1.055-0.913c-0.562,0-0.983-0.982-1.475-1.052
			c-0.491-0.07-0.351-1.054-0.632-1.405c-0.28-0.351-0.069-1.192,0.422-0.771c0.49,0.42,1.403,0,1.053-0.632
			c-0.352-0.632-0.983-1.192-0.983-1.544c0-0.351,0.423-1.405-0.069-1.687c-0.491-0.28-0.913-0.701-1.054-1.192
			c-0.14-0.492-0.702-0.843-0.702-0.843l-0.701,0.07c0,0-0.421,1.123-0.702,1.265c-0.28,0.139-1.266,0.35-1.756,0.701
			c-0.49,0.352-1.896-0.49-2.667-0.49c-0.772,0-1.266,0.771-0.914,0.982c0.352,0.21,0.282,1.685,0.282,1.685
			s0.421,1.826,1.052,1.686c0.632-0.14,1.405,0.63,0.842,0.771c-0.561,0.141-0.842,0.773-0.911,1.335
			c-0.071,0.561,0.069,1.263-0.351,1.333c-0.422,0.07-0.843,0.21-0.843,0.983s-0.912,0.562-1.053,0.842
			c-0.142,0.281-0.491,1.685-0.702,1.896c-0.21,0.21-1.405,0.281-1.477,0.913c-0.07,0.631-0.63,1.404-0.981,1.333
			c-0.352-0.069-0.983-0.352-1.194,0.071c-0.21,0.422-1.122-0.351-1.332-0.141c-0.212,0.21-1.335,1.124-1.335,1.684
			c0,0.562,1.193,0.562,1.123,1.265c-0.07,0.702,0.422,1.474,0.773,1.824c0.349,0.352,0.911,1.194,0.63,1.617
			c-0.281,0.419-0.7,0.489-1.333,0.35c-0.632-0.141-0.562,0.281-1.685,0.069c-1.124-0.21-1.195,0.633-1.616,1.125
			c-0.025,0.031-0.065,0.074-0.112,0.129c0.529,0.418,0.753,1.167,1.634,1.507c1.026,0.395,1.947-0.658,1.947,0.104
			s-2.42,0.606-2.472,0.842c-0.052,0.237,2.496,3.313,3.785,3.077c1.289-0.237,2.234-1.631,1.866-1.841
			c-0.367-0.21,0.211-1.078,0.553-0.92s0.054,1.524,0.446,1.84c0.396,0.315,0.264,0.893,0,1.631
			c-0.261,0.735,0.264,2.181,0.341,2.997c0.08,0.814,0.632,1.997,0.817,3.206C2.837,78.992,3.6,81.2,4.31,82.541
			c0.71,1.34,1.261,3.969,1.734,4.601c0.473,0.63,1.683,2.55,1.683,3.732c0,1.183,1.29,2.838,1.735,3.155
			c0.447,0.315,1.42-0.368,1.657-1.105c0.236-0.736,1.576-1.025,1.655-1.656c0.079-0.631,0.209-1.13,0.684-1.209
			c0.473-0.08,0.473-0.578,0.473-1.262s0.053-1.656,0.526-2.261c0.473-0.604,0.552-2.234,0.264-2.891
			c-0.289-0.657-0.132-1.577,0.131-2.236c0.262-0.657,0.157-1.42,0.658-1.471c0.498-0.053,1.234-0.501,1.76-1.21
			c0.527-0.709,2.131-1.682,2.708-2.155c0.579-0.474,2.34-2.025,2.867-2.892c0.524-0.868,2.023-1.156,2.707-1.867
			c0.685-0.709,0.421-1.077,0.552-1.841c0.133-0.761,2.339-1.077,3.182-1.077c0.172,0,0.313-0.018,0.441-0.043
			C29.714,67.629,29.344,66.174,29.101,65.599z"/>
		<path fill="#64ABD4" d="M81.476,15.631c-0.573-0.686-1.488-0.342-1.717,0.23c-0.23,0.572-0.688-0.23-1.719-0.23
			c-1.032,0-1.146,0.573-1.833-0.114c-0.687-0.687,0.229-0.917,0.229-0.917l0.115-0.916l1.422-2.844
			c-0.406-0.167-1-0.232-1.286-0.125c-0.421,0.158-1.421,0.054-1.524-0.315c-0.105-0.368-1.788-0.421-2.209-0.105
			c-0.42,0.316-1.367,0.578-1.42,0.946c-0.053,0.369-1.051,0.263-1.419,0.526c-0.368,0.263-2.263,0.369-2.313,0.579
			c-0.052,0.211-2.051,0.263-2.365,0c-0.317-0.263-2.053,0-2.263-0.421s-0.946-0.631-0.946-0.999c0-0.369-1.314-0.369-1.473-0.683
			c-0.159-0.316-1.208-0.475-1.365-0.369c-0.16,0.105-1.317-0.316-1.631-0.368c-0.315-0.053-1.314,0.209-1.63,0.209
			c-0.316,0-0.895,0.579-1.262,0.631c-0.368,0.053-1.368-0.631-1.578-0.473c-0.21,0.158-0.842-0.525-1.104-0.84
			c-0.265-0.316,0-1.211-0.211-1.526c-0.209-0.316-1.367-0.316-1.735-0.525c-0.367-0.211-0.946-0.526-1.315-0.526
			c-0.367,0-0.946-0.104-1.104-0.263c-0.157-0.158-0.945-0.42-1.313-0.526c-0.368-0.104-0.422,0.368-0.631,0.578
			c-0.212,0.21-0.843,0.264-0.946,0.631c-0.107,0.369-0.843,0.473-0.737,0.895c0.105,0.42,0.368,1.263,0.63,1.472
			c0.265,0.21,0.107,0.841-0.051,1.052c-0.158,0.21-1.263,0.368-1.474,0.737c-0.208,0.368-0.735-0.054-1.261-0.369
			c-0.526-0.315-1.159-0.105-1.421,0.106c-0.262,0.209-1.208-0.525-1.473-0.58c-0.262-0.051-0.313-1.051-0.577-0.998
			c-0.262,0.052-2.104-0.315-2.472-0.421c-0.368-0.105-1.156-0.052-1.262,0.211c-0.105,0.264-1.052,0.21-1.209,0.525
			c-0.158,0.316-0.895,0.473-1.156,0.789c-0.265,0.316-1.157,0.316-1.368,0.789c-0.21,0.474-1.313,0.683-1.629,0.735
			c-0.316,0.054-1.157,0.211-1.21,0.474c-0.023,0.112-0.155,0.127-0.32,0.107c0.021,0.071,0.044,0.134,0.059,0.212
			c0.219,1.2,0.728,1.166,1.273,1.639c0.547,0.473,1.02,0.835,1.601,0.873c0.584,0.037,1.457,0.727,1.529,1.238
			c0.072,0.508,0.618,1.091,0.946,1.347c0.327,0.253-0.109,1.127-0.109,1.782c0,0.654-0.8,0.8-0.399,1.457
			c0.399,0.654,3.203,0.981,4.002,0.981c0.802,0,1.093,0.765,1.335,0.805c0.505,0.083,0.572,0.687,1.146,0.801
			c0.573,0.114,1.146,0.458,1.375,1.49c0.229,1.03,0.916,1.374,1.03,1.833c0.114,0.458,1.375,0.114,2.29,0.229
			c0.918,0.115,3.553,0,4.24,0.115c0.687,0.114,2.29,0,3.208,0.688c0.916,0.687,1.373,0.113,1.947,0.458
			c0.573,0.343,1.028,0.572,1.832,0.458c0.803-0.115,0.801,0.573,1.374,0.688c0.572,0.115,1.604-0.917,3.094-1.604
			c1.488-0.688,3.206-0.229,4.009-0.115c0.802,0.115,2.291-0.343,3.206-1.375c0.918-1.029,2.062-0.801,2.177-1.718
			c0.115-0.916-0.915-1.26-0.458-2.062c0.458-0.801,1.261-0.688,1.721-0.458c0.456,0.229,1.717,0.573,2.862-0.23
			c1.145-0.802,1.604-0.687,2.635-0.802c1.031-0.115,0.916-0.801,1.604-1.489c0.689-0.688,1.488-0.917,2.178-0.917
			c0.687,0,1.602-0.688,2.29-0.458c0.688,0.229,1.718,0.344,1.834-0.23C83.882,17.466,82.049,16.318,81.476,15.631z"/>
		<path fill="#64ABD4" d="M103.127,26.973c-0.687,0.229-0.916-0.574-1.489-0.574c-0.574,0-0.458,1.375-1.03,1.375
			c-0.573,0-0.46,0.802-1.261,0.916c-0.802,0.115-1.032,0.115-0.688,0.688c0.343,0.573-0.457,0.344-1.146,0.344
			c-0.688,0-0.688-0.458-1.145-0.458c-0.458,0-0.802,0.802-1.146,1.259c-0.344,0.46-2.634,1.49-3.321,1.834
			c-0.195,0.097-0.361,0.401-0.503,0.782c0.821,0.067,1.667,0.538,2.035,1.001c0.5,0.631-0.58,1.34-1.052,1.919
			c-0.474,0.58,0.289,0.605,0.314,1.079c0.027,0.473,0.66,0.867,0.896,0.447c0.235-0.42,0.629-0.264,1.367-0.264
			c0.215,0,0.335,0.102,0.419,0.241c0.409-0.33,0.887-0.628,1.049-0.788c0.279-0.281,0.981-0.351,1.614-0.351
			c0.391,0,0.65-0.123,0.938-0.354c-0.669-0.73-1.323-1.328-1.575-1.482c-0.604-0.368-0.237-1.394,0.498-1.577
			c0.738-0.184,2.552-1.578,3.104-1.893c0.553-0.315,0.184-1.34,0.631-2.156c0.231-0.426,1.105-1.238,1.979-1.918
			C103.428,26.963,103.257,26.928,103.127,26.973z"/>
		<path fill="#64ABD4" d="M46.927,86.481c0-0.701-0.561-0.771-0.561-1.333c0-0.562,0-1.545-0.703-2.177
			c-0.702-0.632-1.053-1.546-0.631-1.896c0.421-0.35,0.069-1.334,0.28-1.264c0.211,0.071,0.492-0.632,0.07-0.842
			c-0.422-0.211,0-1.053-0.351-1.193c-0.352-0.14-1.334-1.264-1.334-1.614c0-0.352,0.281-2.318,0.351-2.809
			c0.07-0.492,0.771-0.562,0.983-0.562c0.21,0,1.053,0.07,1.334-0.421c0.281-0.492,1.474-0.562,1.614-0.913
			c0.14-0.35,0.914-0.35,0.914-0.772c0-0.421,0.912-1.475,0.912-1.475c0.013-0.003,0.021,0.004,0.035,0.004
			c-0.105-0.186-0.337-0.018-0.8,0.167c-0.79,0.316-1.184-0.119-1.104-0.591c0.078-0.474-0.552-0.474-0.986-0.474
			c-0.434,0-0.158-0.709,0-1.183c0.159-0.473-0.158-0.749-0.671-0.79c-0.511-0.039-0.749-1.143-0.552-1.459
			c0.197-0.315-1.064-0.59-1.616-0.315c-0.553,0.277-0.157-0.473-0.314-0.868c-0.159-0.394,0.709-1.733,1.458-2.482
			c0.749-0.75,0.434-1.736,0.434-2.604c0-0.868-0.355-0.868-0.709-0.868c-0.355,0-0.395-0.513-0.395-0.985
			c0-0.473-0.749-0.828-1.184-0.512c-0.06,0.044-0.168,0.105-0.3,0.175c0.018,0.004,0.034,0.006,0.034,0.006
			s-0.141,0.703-0.422,0.844c-0.281,0.141-0.281,0.561,0.14,1.192c0.421,0.632-0.63,0.351-0.771,0
			c-0.142-0.35-0.985,0.211-1.476,0.632c-0.491,0.422-1.194,0.632-1.194,1.405c0,0.771-0.631,1.544-0.49,2.175
			c0.139,0.631-0.703,1.826-0.632,2.178c0.069,0.351-1.194-0.07-1.404-0.07c-0.211,0-0.07,1.333-0.352,1.754
			s-0.07,1.895-0.492,1.895c-0.42,0-0.771,1.334-0.771,1.334s-0.343,0.232-0.638,0.521c0.345,0.704,0.972,1.472,1.669,1.759
			c1.026,0.42,1.71,2.496,2.025,3.601c0.314,1.104,0.104,2.236-0.263,2.866c-0.369,0.631,0.131,0.657,0.734,0.972
			c0.606,0.315,1.29,0.421,1.736-0.21c0.448-0.631,1.367-1.077,1.499-1.787c0.132-0.709,0.552,0.341,0.92,0.71
			c0.368,0.368,0.631,1.077,0.71,1.971c0.078,0.894,0.157,3.128,0.92,3.838c0.764,0.709,0.894,2.261,0.683,2.813
			c-0.208,0.553,0.395,1.499,0.237,2.104c-0.033,0.12-0.065,0.292-0.104,0.483C46.088,89.543,46.927,86.481,46.927,86.481z"/>
		<path fill="#64ABD4" d="M61.461,69.21c-0.492-0.07-1.756-0.982-1.756-1.333c0-0.352,0.633-0.914-0.492-1.054
			c-1.121-0.14-1.263-0.562-1.473-0.772c-0.212-0.21-1.125,0.421-1.404,0.913c-0.28,0.492-0.562-0.14-1.194,0.211
			c-0.633,0.351-1.263-0.492-1.543,0c-0.282,0.491-0.984-0.281-1.335,0.139c-0.135,0.161-0.309,0.291-0.486,0.377
			c0.309,0.344,0.642,0.679,0.642,0.938c0,0.451,0.901,0.789,0.901,1.352c0,0.564,1.128,1.015,1.467,0.789
			c0.337-0.225,1.127-0.451,1.238,0.338c0.112,0.789,0.563,0.789,0.563,1.352c0,0.563-1.126,0.226-1.353,0.788
			c-0.225,0.564,1.915,1.239,1.915,1.689s0.676,1.014,0.901,1.577c0.227,0.563,1.24,1.24,1.465,1.916
			c0.225,0.675,1.127,1.014,1.465,1.351c0.337,0.338,0.449,1.127,0.337,1.802c-0.111,0.675-0.113,1.915,0.563,2.929
			c0.676,1.015-0.789,1.464-1.238,2.027c-0.451,0.563-0.227,1.352-1.578,1.014c-1.352-0.338,0.227,1.127,0,1.577
			c-0.225,0.451-2.027-0.45-2.027,0c0,0.271-0.609,0.623-1.096,0.86c0.194,0.253,0.469,0.395,0.788,0.595
			c0.422,0.263-0.524,0.71-0.499,1.55c0.026,0.842,0.658,1.053,0.894,0.71c0.236-0.342,1.209-1.104,1.604-1.235
			c0.395-0.131,0-0.709,0.42-0.684c0.421,0.026,0.289-0.604,0.474-0.947c0.186-0.341,0.474-0.21,1.104-0.183
			c0.632,0.025,1.524-0.58,2.418-1.158c0.895-0.578,1.052-0.709,1.393-2.366c0.345-1.656-0.394-3.628-0.42-4.128
			c-0.025-0.499-1.235-2.812-1.682-2.787c-0.448,0.027-2.497-2.077-2.866-2.418c-0.367-0.342-0.264-0.92-0.789-1.368
			c-0.526-0.446-0.577-1.603-0.447-2.418c0.132-0.815,1.289-1,1.264-1.552c-0.025-0.552,0.104-1.024,0.683-1.05
			c0.578-0.028,1.131-0.501,1.394-0.922c0.037-0.062,0.091-0.1,0.15-0.129C61.679,69.333,61.551,69.224,61.461,69.21z"/>
		<path fill="#64ABD4" d="M57.039,89.13c0-0.45,1.803,0.451,2.027,0c0.227-0.45-1.352-1.915,0-1.577
			c1.352,0.338,1.127-0.451,1.578-1.014c0.449-0.563,1.914-1.012,1.238-2.027c-0.479-0.72-0.616-1.548-0.616-2.212
			c-0.436,0.344-0.964,0.37-1.262,0.251c-0.381-0.153-1.215-0.228-1.215,0.379c0,0.607-0.606,0.759-0.531,0.455
			c0.076-0.303-0.606-0.228-0.985-0.683c-0.38-0.455-1.746,0.152-2.431-0.075c-0.683-0.229-1.745,0.378-2.427,1.214
			c-0.685,0.834,0.075,0.834,0.075,1.593c0,0.76,0.456,0.76,0.229,1.365c-0.008,0.016-0.013,0.038-0.019,0.055
			c0.67,0.294,0.406,1.13,0.48,1.601c0.078,0.499,0.737,0.209,1.104,0.183c0.37-0.025-0.235,0.578,0.079,0.947
			c0.316,0.368,1.236-0.316,1.42,0.131c0.044,0.105,0.098,0.194,0.158,0.272C56.43,89.752,57.039,89.401,57.039,89.13z"/>
		<path fill="#64ABD4" d="M52.491,85.435c0-0.758-0.76-0.758-0.075-1.593c0.682-0.836,1.744-1.443,2.427-1.214
			c0.685,0.227,2.051-0.38,2.431,0.075c0.066,0.083,0.145,0.141,0.225,0.194c0.602-0.673,0.166-1.232,0.231-2.015
			c0.074-0.911-0.686-1.747-1.217-1.897c-0.529-0.153,0.381-1.823-0.151-2.125c-0.531-0.304-0.909-0.835-1.289-1.29
			c-0.38-0.457-1.519-0.303-1.669,0.075c-0.153,0.38-0.912,0.608-1.14,0.305c-0.227-0.305-0.684-0.382-1.291,0.075
			c-0.606,0.456-1.441,1.289-1.593,0.607c-0.152-0.682,0.454-0.607,0.454-1.367c0-0.757,0.381-1.138,0.151-1.896
			c-0.227-0.759-0.985,0.075-1.214-0.456c-0.227-0.532,0.003-1.139-0.151-1.366c-0.048-0.072-0.186-0.202-0.348-0.346
			c-0.131,0.066-0.247,0.143-0.292,0.256c-0.141,0.352-1.333,0.421-1.614,0.913c-0.281,0.491-1.124,0.421-1.334,0.421
			c-0.213,0-0.913,0.07-0.983,0.562c-0.069,0.491-0.351,2.457-0.351,2.809c0,0.35,0.982,1.474,1.334,1.614
			c0.351,0.141-0.071,0.982,0.351,1.193c0.422,0.21,0.141,0.913-0.07,0.842c-0.211-0.07,0.141,0.915-0.28,1.264
			c-0.422,0.351-0.071,1.264,0.631,1.896c0.703,0.632,0.703,1.615,0.703,2.177c0,0.562,0.561,0.632,0.561,1.333
			c0,0-0.839,3.062-1.525,2.931c-0.146,0.765-0.33,1.966-0.5,2.619c-0.21,0.814-0.367,1.524,0.105,1.577s1.42,1.13,2.338,2.287
			c0.226,0.282,0.398,0.578,0.533,0.88c0.319-0.018,0.675,0.001,1.032,0.069c0.698,0.13,0.873,0.698,0.873,1.048
			c0,0.351,1.182,0.219,1.401,0.175c0.167-0.033-0.048-0.526,0.547-0.718c-0.357-0.508-1.285-1.124-2.046-1.192
			c-0.894-0.078-1.314-1.42-1.235-2.024c0.078-0.604-0.657-1.131-0.657-1.656c0-0.527-0.526-0.553-1.131-0.842
			c-0.604-0.29,0.131-2.077,0.212-2.839c0.077-0.762,1.34-2.945,0.973-3.627c-0.368-0.684,1.287-1.209,1.498-0.448
			c0.211,0.763,0.289,1.131,1.341,1.079c1.052-0.053,1.052,0.762,1.893,0.999c0.049,0.014,0.083,0.037,0.124,0.055
			c0.006-0.018,0.011-0.039,0.019-0.055C52.947,86.195,52.491,86.195,52.491,85.435z"/>
		<path fill="#64ABD4" d="M54.104,100.338c0.026-1.183-1.104-1.05-1.367-1.865c-0.264-0.815-0.71-0.343-0.869-0.868
			c-0.021-0.078-0.073-0.165-0.136-0.254c-0.595,0.191-0.38,0.685-0.547,0.718c-0.22,0.044-1.401,0.176-1.401-0.175
			c0-0.35-0.175-0.918-0.873-1.048c-0.357-0.068-0.713-0.087-1.032-0.069c0.422,0.935,0.474,1.926,0.493,2.722
			c0.027,1.051,1.578,2.734,1.814,3.417c0.237,0.684,0.683,0.894,1.709,1.63s3.023,1.918,3.418,1.736
			c0.395-0.185-0.604-1.92-1.184-2.523C53.551,103.152,54.077,101.521,54.104,100.338z M80.998,98.315
			c-0.473,0.104-1.577,0.051-1.577-0.421c0-0.474-0.999-1.367-1.631-1.367c-0.631,0-1.367,1.262-1.42,1.789
			c-0.051,0.526-1.051,0.473-0.946,1.208c0.041,0.29-0.145,0.415-0.386,0.491c0.161,0.634,0.251,1.093,0.019,1.035
			c-0.421-0.105-0.526,0.42-1.157,0.42c-0.217,0-0.579-0.544-0.964-1.255c-0.011-0.002-0.024-0.007-0.035-0.007
			c-0.42,0-1.367,1.472-1.578,2.471c-0.209,1-1.155,0.684-2.574,0.789c-1.42,0.105-0.844,1.577-1.157,2.262
			c-0.289,0.624-1.849-0.506-2.637-0.665c0.132,0.562,0.317,1.137,0.532,1.137c0.422,0,1.053,1.051,1.473,0.735
			c0.42-0.314,1.682,0,2.313-0.21c0.631-0.209,0.735-0.735,1.788-0.735c1.052,0,0.631,0.842,1.682,0.315
			c1.054-0.526,1.685-0.105,1.578-1.052c-0.105-0.946,0.631-0.946,0.525-1.683c-0.104-0.736,1.158-0.21,1.051-1.578
			c-0.104-1.367,1.894-1.156,2.734-1.156c0.194,0,0.497,0.115,0.843,0.287c0.623-0.307,1.515-0.711,1.104-1.075
			c-0.472-0.421,1.42-0.054,1.63-0.684C82.417,98.735,81.472,98.208,80.998,98.315z"/>
		<path fill="#64ABD4" d="M129.688,23.965c-0.368-0.473-0.998,0.263-1.787,0.42c-0.79,0.157-3.26-1.893-3.892-2.839
			c-0.632-0.946-1.684-0.157-1.156,0.526c0.527,0.683-0.106,0.893-0.106,1.84c0,0.946-0.631,0.946-0.524,1.577
			c0.104,0.631-0.842,0.527-1.474,0.631c-0.629,0.106,0.053,0.737-0.684,1.053s-0.683,0.84-0.315,1.051
			c0.37,0.21,0.106,0.894,0,1.367c-0.104,0.473,0.473,0.106,0.896-0.368c0.419-0.472,0.859,0.228,0.945-0.211
			c0.104-0.524-1.104-0.788-1.051-1.314c0.052-0.524,0.841,0.158,1.472-0.157c0.632-0.315,1.893-0.052,2.681,0.63
			c0.789,0.684,1.001,0.422,1.158-0.419c0.156-0.841,1.366-1.209,2.575-1.209c1.21,0,1.314-0.58,0.947-0.842
			c-0.367-0.262,1.999-1.787,1.944-2.208C131.266,23.072,130.056,24.439,129.688,23.965z M120.013,31.168
			c-0.525,0.264-0.895,1.894-0.314,2.366c0.578,0.473-0.947,1.367-0.896,2.366c0.053,1-0.946,1-1.104,1.734
			c-0.157,0.738-0.735,0.58-1.63,1.263c-0.892,0.684-1.366-0.105-1.156-0.578c0.211-0.475-1.367,0.262-1.314,1.42
			c0.054,1.156-1.472,1.261-1.104,1.786c0.368,0.528-1.156,0.841-1.104,0.368c0.054-0.473-0.947-0.208-2.154,0.264
			c-1.208,0.474-1.946-0.525-2.629,0.158c-0.686,0.685-1.841,1.895-2.734,2.051c-0.895,0.158-0.38,1.241,0,1.051
			c0.631-0.316,1.631,0,1.945-0.473c0.315-0.474,2.891-1.051,4.469-1.104c1.576-0.054,0.631,0.734,0.736,1.577
			c0.105,0.841,1.42,0.684,2.103-0.104c0.685-0.789,1.21-0.738,0.631-1.211c-0.578-0.472,0.106-0.893,0.527-0.261
			c0.42,0.63,1.734,0.683,2.26-0.159c0.526-0.841,0.684,0.159,1.314,0.104c0.631-0.051,0.999-1.629,1.052-1.051
			c0.054,0.578,1.052,0.42,1.683-0.262c0.632-0.685,0.054-1.894,0.473-2.524c0.421-0.631,0.842-1.947,0.421-2.735
			c-0.421-0.789,0.946-1.315,1.63-1.946c0.686-0.63-0.789-3.785-0.841-4.731C122.222,29.592,120.539,30.906,120.013,31.168z
			 M108.445,44.84c-0.211,0.579-0.841,0.316-1.682,0.474c-0.844,0.157-0.871,2.164-0.264,2.366c0.473,0.158,0.841,0.158,0.998-0.473
			c0.157-0.63,0.999-0.841,1.525-0.58c0.527,0.265,1.209-0.789,1.209-1.577S108.656,44.262,108.445,44.84z M104.815,46.892
			c0-0.526-1.155-0.422-1.208-0.895c-0.054-0.473-0.841-0.209-1.629,0.369c-0.789,0.577-1.052,0.683-0.737,1.261
			c0.317,0.579,0.788,0.053,0.999-0.525c0.21-0.579,0.736,0.841,0.264,1.788c-0.475,0.946,0.06,2.28,0.683,2.155
			c0.526-0.104,1.209-1.997,1.999-2.997C105.974,47.048,104.815,47.416,104.815,46.892z"/>
		<path fill="#64ABD4" d="M109.918,15.342c0.054-0.947-1.053-0.631-1.421-0.368c-0.367,0.263-1.419,0-1.733,0.63
			c-0.316,0.632-0.844,0.264-1.578,0.369c-0.735,0.105-1.789-0.21-1.735-0.684c0.054-0.473-0.422-0.946-0.368-1.523
			c0.052-0.579-0.735-0.316-1.263-0.842c-0.526-0.526-1.576-0.895-1.787-0.789c-0.209,0.104-0.842-0.578-1.735-0.631
			c-0.894-0.054-0.789-0.631-0.684-1c0.104-0.367-0.736-1.524-0.895-2.156c-0.157-0.631-0.788-0.735-1.051-2.103
			c-0.263-1.367-1-0.999-0.842-1.629c0.158-0.631-0.893-0.947-1.157-1.316c-0.263-0.368-1.367-0.21-2.155-0.63
			c-0.789-0.42-1.262-0.104-1.998-0.315c-0.735-0.211-2.42,0.21-2.628,0.21c-0.211,0-1.527-0.265-2.261,0.735
			c-0.736,1-0.158,0.947,0.157,0.947c0.314,0,0.473,0.946,0.525,1.263c0.054,0.314-0.525,0.789-0.789,0.893
			c-0.262,0.106-0.998,1.262-1.104,1.684c-0.105,0.42-0.946,1.471-0.843,1.84c0.104,0.368-0.42,0.735-0.788,0.788
			c-0.368,0.054-1.366,0.789-1.681,0.894c-0.317,0.106-1.578-0.105-1.736-0.473c-0.05-0.12-0.204-0.218-0.396-0.296l-1.422,2.844
			L76.436,14.6c0,0-0.915,0.23-0.229,0.917c0.688,0.688,0.801,0.114,1.833,0.114c1.03,0,1.488,0.802,1.719,0.23
			c0.229-0.572,1.144-0.916,1.717-0.23c0.573,0.688,2.406,1.835,2.293,2.405c-0.116,0.574-1.146,0.458-1.834,0.23
			c-0.688-0.23-1.604,0.458-2.29,0.458c-0.689,0-1.488,0.23-2.178,0.917c-0.688,0.688-0.572,1.374-1.604,1.489
			c-1.03,0.115-1.49,0-2.635,0.802c-1.146,0.803-2.406,0.458-2.862,0.23c-0.46-0.23-1.263-0.344-1.721,0.458
			c-0.457,0.802,0.573,1.146,0.458,2.062c-0.114,0.917-1.259,0.689-2.177,1.718c-0.915,1.032-2.404,1.491-3.206,1.375
			c-0.803-0.114-2.521-0.572-4.009,0.115c-1.489,0.687-2.521,1.718-3.094,1.604c-0.573-0.115-0.571-0.803-1.374-0.688
			c-0.804,0.114-1.259-0.115-1.832-0.458c-0.574-0.344-1.031,0.229-1.947-0.458c-0.918-0.688-2.521-0.574-3.208-0.688
			c-0.688-0.115-3.322,0-4.24-0.115c-0.915-0.114-2.176,0.229-2.29-0.229c-0.114-0.459-0.802-0.803-1.03-1.833
			c-0.229-1.032-0.802-1.375-1.375-1.49c-0.573-0.115-0.641-0.718-1.146-0.801c-0.242-0.04-0.533-0.805-1.335-0.805
			c-0.799,0-3.603-0.327-4.002-0.981c-0.4-0.656,0.399-0.802,0.399-1.457c0-0.655,0.437-1.529,0.109-1.782
			c-0.328-0.256-0.874-0.839-0.946-1.347c-0.072-0.511-0.945-1.201-1.529-1.238c-0.581-0.038-1.054-0.4-1.601-0.873
			c-0.546-0.473-1.055-0.439-1.273-1.639c-0.015-0.079-0.038-0.141-0.059-0.212c-0.219-0.023-0.498-0.107-0.679-0.107
			c-0.142,0-0.312-0.119-0.465-0.279c-0.146,0.501-0.617,0.75-0.617,1.146c0,0.436-0.182,0.981-0.765,0.981
			c-0.582,0-1.128,0.438-1.165,1.347s0.51,1.019,0.256,1.42c-0.256,0.401-1.312,0.799-1.676,0.618
			c-0.363-0.182-1.055-0.073-1.638-0.145c-0.582-0.072-1.019-0.801-1.2,0c-0.183,0.801-1.384,3.166-1.092,3.421
			c0.29,0.255,0.508,0.837,0,0.837c-0.509,0-1.02-0.073-1.273-0.329c-0.256-0.253-1.089,0.356-1.676,0.329
			c-0.271-0.014-1.415,0.499-1.021,0.696c0.395,0.197,0.395,1.144,0.395,1.537c0,0.395,0.868,1.578,0.711,1.972
			c-0.158,0.394-0.947,0.828-0.947,1.341s0.157,0.986-0.118,1.105c-0.276,0.119-1.145,0.473-1.577,0.789
			c-0.435,0.315-1.144,0.315-1.381,0.789c-0.237,0.472-0.593,0.88-1.42,0.788c-0.711-0.079-1.064-0.197-1.617,0.473
			c-0.552,0.67-0.67,0.395-1.064,0.71c-0.395,0.316-0.789-0.236-1.104-0.354c-0.313-0.119-0.749,0.354-1.063,0.354
			c-0.315,0-0.592,0.512-0.986,0.631c-0.395,0.118-0.789,0-0.789,0.473c0,0.291-0.075,0.629-0.291,0.881h0.002l0.28,1.543
			c0,0,1.686,0.562,1.756,1.125c0.071,0.561,0.352,2.387,0.352,2.387s-0.021,0.003-0.052,0.005c0.684,0.537,1.621,1.107,1.621,1.314
			c0,0.237,0.079,0.946,0.907,1.341c0.523,0.25,1.062,0.515,1.389,0.737c0.039-0.102,0.066-0.168,0.066-0.168l0.701-0.07
			c0,0,0.207,0.131,0.402,0.343c0.172-0.569,1.385-1.194,2.016-1.158c0.67,0.041,2.208,1.264,2.05,1.697
			c-0.157,0.433-1.261,2.01-1.773,2.129c-0.194,0.045-0.479,0.067-0.758,0.078c-0.049,0.259-0.111,0.499-0.111,0.634
			c0,0.352,0.632,0.912,0.983,1.544c0.351,0.632-0.562,1.053-1.053,0.632c-0.491-0.421-0.702,0.42-0.422,0.771
			c0.281,0.352,0.141,1.335,0.632,1.405c0.491,0.07,0.913,1.052,1.475,1.052c0.561,0,1.055,0.913,1.055,0.913
			s0.771,0.493,0.771,0.773c0,0.033-0.015,0.069-0.036,0.107c0.613-0.062,1.02-0.084,1.091-0.337c0.08-0.276,0.868-0.276,1.42,0.276
			s2.801,1.972,3.628,2.642c0.829,0.67,2.761,1.419,3.432,1.38c0.671-0.04,1.302,0.474,2.325,0.434c0.155-0.004,0.287,0,0.408,0.01
			c0.146-0.154,0.393-0.159,0.58-0.439c0.281-0.422,0.703,0.352,0.562,0.912c-0.066,0.261-0.007,0.551,0.101,0.782
			c0.14-0.201,0.284-0.467,0.4-0.751c0.354-0.868,0.906-0.828,1.263-1.104c0.354-0.275,0.709-0.158,1.458,0.236
			c0.707,0.373,0.994-0.411,2.054,0.561c0.219-0.098,0.5-0.214,0.622-0.214c0.21,0,0.491-0.421,0.843-0.773
			c0.351-0.35,0.28-0.773,0.702-0.702c0.421,0.069,0.632-0.49,1.543-0.982c0.914-0.491,1.686,0.281,2.107-0.07
			c0.421-0.352,0.912-0.492,0.912-0.141s0.562,0.773,0.704,1.193c0.123,0.377,0.862,0.529,1.019,0.555
			c0.132-0.07,0.24-0.131,0.3-0.175c0.435-0.315,1.184,0.039,1.184,0.512c0,0.473,0.039,0.985,0.395,0.985
			c0.354,0,0.709,0,0.709,0.868c0,0.867,0.315,1.854-0.434,2.604c-0.749,0.749-1.617,2.089-1.458,2.482
			c0.157,0.396-0.238,1.145,0.314,0.868c0.552-0.275,1.813,0,1.616,0.315c-0.197,0.317,0.041,1.421,0.552,1.459
			c0.513,0.041,0.83,0.316,0.671,0.79c-0.158,0.474-0.434,1.183,0,1.183c0.435,0,1.064,0,0.986,0.474
			c-0.079,0.472,0.314,0.907,1.104,0.591c0.463-0.185,0.694-0.353,0.8-0.167c0.313-0.01,0.336,0.704,0.878,0.839
			c0.562,0.139,0.28-1.194,0.069-1.406c-0.211-0.211,0.07-1.123,0.281-0.912c0.211,0.21,0.842,0,1.193-0.422
			c0.351-0.42,1.053,0.352,1.335-0.139c0.28-0.492,0.91,0.351,1.543,0c0.633-0.352,0.914,0.28,1.194-0.211
			c0.279-0.491,1.192-1.123,1.404-0.913c0.21,0.211,0.352,0.632,1.473,0.772c1.125,0.14,0.492,0.702,0.492,1.054
			c0,0.351,1.264,1.263,1.756,1.333c0.09,0.014,0.218,0.123,0.364,0.292c0.342-0.167,0.951,0.113,1.086-0.29
			c0.158-0.474,0.735-0.344,0.972,0.05c0.236,0.395,0.498,0.474,1.025,0c0.527-0.472,0.788,0.474,0.473,0.738
			c-0.314,0.262-0.104,1.077,0.396,1.551c0.498,0.472,0.576-0.29,0.472-0.762s0.841-0.948,2.499-1.499
			c1.655-0.553,3.442-1.763,3.469-2.024c0.026-0.262,1.183,0.472,1.734,0.053c0.554-0.421,2.551-0.474,3.078-0.5
			c0.525-0.026,0.498-0.474,1.051-0.919c0.551-0.448,0.42-0.659,1.052-0.842c0.63-0.184,1.023-0.762,1.023-1.079
			c0-0.315,1.185-0.42,1.211-0.762c0.026-0.341,0.894-0.446,0.894-0.867c0-0.42,0.525-0.342,0.764-0.658
			c0.235-0.316-0.186-1.235,0.235-1.367c0.419-0.132-0.157-0.631-0.235-0.867c-0.079-0.237,0.789-0.29,1.233-0.578
			c0.448-0.29,0.737-0.737,0.815-1.237c0.08-0.499,0.815-0.945,1.156-1.078c0.344-0.13,0.475-0.84,0.369-1.445
			c-0.104-0.605,0.604-0.448,0.29-0.685c-0.315-0.236,0.13-0.894,0.761-1.077c0.633-0.184-0.394-0.474-0.735-0.211
			c-0.341,0.262-0.711-0.762-1.025-0.369c-0.315,0.395-1.209-0.237-0.631-0.367c0.577-0.132,1.473-0.789,1.867-0.921
			c0.394-0.132-0.579-1-1.078-0.973c-0.5,0.026-1.052-1.157-1.577-1.157c-0.527,0,0.394-0.369,0.999-0.052
			c0.604,0.314,1.313,0.579,1.578,0.314c0.263-0.262-1.026-1.312-1.5-1.681c-0.474-0.369-0.026-0.868-0.314-1.079
			c-0.291-0.209-0.922-1.549-1.133-2.155c-0.208-0.605-1.313-0.709-1.575-1.104c-0.264-0.395,0.025-1.314,0.842-1.657
			c0.813-0.341,0.471-1.025,0.841-0.946c0.368,0.08,0.683-0.079,0.973-0.683c0.289-0.604,0.788-0.237,1.077-0.553
			c0.291-0.316,1.577-0.289,2.025-0.604c0.446-0.315-0.422-1.289-1.026-1.132c-0.604,0.158-1.314-0.079-1.735-0.709
			c-0.421-0.631-1.524,1.157-2.366,1.552c-0.841,0.393-1.393-0.71-1.104-1.42c0.29-0.71-0.656-0.683-1.84-0.631
			c-1.184,0.053-0.735-2.103-0.025-2.208c0.709-0.105,1.761,0.656,2.209-0.658c0.445-1.314,1.075-0.289,2.076-1.446
			c0.999-1.156,2.154-1.866,3.022-1.184c0.867,0.684-0.919,1.762-1.209,2.419c-0.288,0.657,0.263,0.868-0.263,1.366
			c-0.527,0.501,0.209,0.631,1.235-0.025c1.026-0.656,2.287-1.446,3.287-1.839c0.266-0.105,0.56-0.132,0.856-0.108
			c0.142-0.381,0.308-0.685,0.503-0.782c0.688-0.344,2.978-1.374,3.321-1.834c0.344-0.457,0.688-1.259,1.146-1.259
			c0.457,0,0.457,0.458,1.145,0.458c0.689,0,1.489,0.229,1.146-0.344c-0.345-0.573-0.114-0.573,0.688-0.688
			c0.801-0.114,0.688-0.916,1.261-0.916c0.572,0,0.456-1.375,1.03-1.375c0.573,0,0.803,0.803,1.489,0.574
			c0.13-0.045,0.301-0.01,0.488,0.07c0.147-0.114,0.29-0.224,0.435-0.326c-0.069-0.718,0.015-1.361-0.125-1.7
			c-0.264-0.631,0-1.104-0.108-1.472c-0.104-0.369-0.156-1.262,0.266-1.262c0.42,0,0.945-1.053,1.47-0.685
			c0.527,0.369,1.578,0.474,1.578,0c0-0.473,0.736-0.525,0.842-1.157c0.104-0.63,0.894-0.789,1.052-1.367
			c0.156-0.578,0.42-1.946,0.946-2.261C110.495,16.499,109.863,16.29,109.918,15.342z M84.153,65.136
			c-0.578,2.104,0.769,3.173,0.945,3.05c0.526-0.368,2.682-4.89,2.21-5.521C86.834,62.034,84.73,63.032,84.153,65.136z
			 M65.381,72.288c-0.683,0-2.418,0.998-1.734,2.417c0.685,1.42,2.944,0.474,2.996-0.157c0.054-0.631,1.084-1.623,0.948-2.103
			C67.484,72.077,66.067,72.288,65.381,72.288z"/>
		<path fill="#64ABD4" d="M87.833,84.066c1-0.159,2.367,1.104,2.156,1.577c-0.211,0.473,0.053,1.997,0.526,1.576
			c0.473-0.419,1.209,0.106,0.735,0.789c-0.474,0.685,0.736,1.368,0.894,2.209c0.157,0.841,0.684,0.157,0.579-0.473
			c-0.104-0.632,0.104-0.579,0.789-1.051c0.685-0.474-0.054-1.263-0.474-2.157c-0.42-0.893-1.999-0.578-1.999-1.42
			c0-0.84-1.155-1.104-1.208-1.577c-0.054-0.473-1.578-0.947-2.472-0.42c-0.894,0.526-0.265-0.947-0.895-1.63
			c-0.632-0.684,0.474-1.683,1.211-2.523c0.734-0.84-0.211-2.261-0.106-2.892c0.106-0.631,0.052-0.841-0.315-0.631
			c-0.367,0.209-1.895-0.631-2.576-0.21c-0.684,0.421-0.052,3.891-0.369,4.154c-0.314,0.261-0.723-0.563-0.842-0.211
			c-0.157,0.472,0.055,2.418,0.474,2.418c0.423,0,0.737,0.526,0.475,1.367c-0.263,0.841,0.787,0.946,1.786,0.578
			C87.202,83.172,86.834,84.223,87.833,84.066z M84.469,84.538c0.158,0.737,0.525,2.262,1.683,1.893
			C87.309,86.063,84.354,84.01,84.469,84.538z M87.412,89.639c0.265-0.052,0.896,0,0.946-0.526c0.053-0.525,0.632,0.947,0.158,1.419
			c-0.474,0.474-0.474,1.789,0.264,1.947c0.735,0.158,2.102-2.366,1.893-2.84c-0.21-0.473-0.841,0.315-0.684-0.314
			c0.156-0.631-1.893-2.262-2.681-2.105C86.519,87.378,86.793,89.762,87.412,89.639z M81.209,90.637
			c-0.735,0.946-2.494,2.519-2.263,2.945c0.316,0.578,2.263-2.314,3.208-2.997c0.947-0.684,0.79-1.261,0.475-1.893
			C82.312,88.062,81.944,89.691,81.209,90.637z M90.566,91.689c0.211,0.526,1.735-0.315,1.314-0.841
			C91.462,90.323,90.411,91.295,90.566,91.689z M95.3,95.79c0.631-0.737-0.421-2.681-0.421-3.942c0-1.263-1.734-0.896-1.262-0.107
			c0.473,0.788-0.894,0.158-0.999,0.947c-0.105,0.789-1.104,0.158-1.052,0.789c0.054,0.631-1.051,0-1.577-0.367
			c-0.526-0.369-1.262,0.999-2.051,1.209c-0.788,0.211-1.207,1.885-0.684,1.84c0.632-0.052,0.945-0.894,1.577-0.84
			c0.631,0.051,0.422-0.632,1.313-0.474c0.895,0.159,0.264,2.84,1.475,3.049c1.208,0.211,1.261,0.946,1.839,0.946
			s-0.103-1.682-0.053-2.26C93.459,96,94.668,96.526,95.3,95.79z"/>
		<path fill="#64ABD4" d="M137.417,126.812c-0.368-0.158-1.314-0.789-1.262-1.209c0.051-0.42-1.053-0.367-1.788-0.842
			c-0.735-0.473-0.473-1.996-1.262-2.365s-1.368-1.525-0.422-1.473s1.105-0.475,0.369-1.156c-0.736-0.684-3.418-0.947-3.524-1.945
			c-0.104-1-4.888-3.365-6.991-3.84c-0.374-0.084-0.824-0.221-1.314-0.385v11.223c0.488,0.326,1.094,0.59,1.892,0.627
			c2.313,0.104,1.736-1.211,2.155-1.211c0.423,0,0.58-0.736,1.054-1.314c0.473-0.576,2.523-0.105,3.732,0.84
			c1.21,0.948,2.628,3.735,3.892,3.472c1.262-0.263,2.576,0.737,3.732,0.683C138.837,127.863,137.784,126.971,137.417,126.812z"/>
		<path fill="#64ABD4" d="M14.693,91.217c-0.473,0.053-0.367,0.998-0.631,1.682c-0.262,0.684-0.21,1.366-0.105,2.366
			c0.105,1,0,2.051,0.895,2.629c1.026,0.664,2.681-1.051,2.735-2.524C17.638,93.898,15.092,91.172,14.693,91.217z"/>
		<path fill="#64ABD4" d="M143.528,160.359c0.316-0.236-0.157-1.498-0.435-1.303c-0.275,0.197-0.275-1.971-0.077-2.957
			c0.196-0.986,0.077-0.868-0.434-0.355c-0.513,0.514-1.064-0.984-1.184-1.379s-0.71-1.5-1.381-1.342
			c-0.669,0.158-0.236-0.946-0.866-0.827c-0.632,0.118-0.75-0.908-0.632-1.854s-0.434-0.196-0.711-0.59
			c-0.274-0.395-0.59-0.08-1.024,0.077c-0.434,0.159-0.552-0.827-0.434-1.222c0.119-0.395-0.079-0.868-0.67-1.303
			c-0.592-0.433-0.631-0.788-0.592-1.301c0.04-0.512-3.353-2.248-4.102-2.404c-0.75-0.158-0.119-0.947-0.434-1.223
			c-0.316-0.277-0.434-1.301-0.434-2.169s-1.104-1.145-1.065-1.854s-0.314-1.38-0.236-2.169c0.078-0.788-1.146-0.985-1.184-1.419
			c-0.039-0.435-0.709-0.039-1.379,0.039c-0.671,0.078-0.632-0.867-0.554-1.774c0.079-0.907-0.275-2.405-0.827-2.839
			s-0.591-1.934-0.867-2.17s-1.184,0.789-1.145,1.301c0.04,0.514-0.078,1.105-0.434,1.42c-0.355,0.316,0.237,1.539-0.236,1.973
			s-0.039,2.168-0.158,3.154c-0.118,0.985-0.079,2.051-0.552,2.721c-0.473,0.671-0.552,1.736-1.498,2.09
			c-0.947,0.355-2.209-0.393-2.17-0.906c0.04-0.513-1.024-0.828-1.577-0.748c-0.552,0.078-0.867-0.711-1.735-1.382
			c-0.868-0.67-1.537,0.158-1.813-0.63s-0.552-0.906-1.184-1.342c-0.629-0.434-0.434-0.434,0.158-0.867
			c0.593-0.433,0.474-0.985,0.157-1.499c-0.315-0.513,0.354-0.394,1.145-0.828c0.788-0.433,0-0.946,0.592-1.183
			c0.591-0.236,0.236-0.75-0.395-0.867c-0.633-0.118-0.435,0.631-0.671,0.709c-0.235,0.08-0.474-0.985-0.671-0.945
			c-0.197,0.039-0.944,1.064-1.34,0.551c-0.396-0.512-2.603-0.945-3.472-1.064c-0.867-0.118-1.142-1.222-1.655-1.025
			c-0.513,0.198,0.078,0.553,0.671,1.184c0.591,0.631-1.972,1.064-2.721,0.828c-0.75-0.236,0.117,0.553-0.513,0.513
			c-0.632-0.04-0.75,1.063-1.262,1.616c-0.514,0.553-0.158,0.947-0.711,1.302c-0.552,0.354-0.592,0.749,0.079,1.499
			c0.671,0.749-0.315,0.789-0.908,0.197c-0.591-0.592-1.183-0.592-1.142,0.078c0.038,0.67-0.711,0.356-0.593-0.394
			c0.119-0.749-0.828-0.395-0.985-0.828c-0.158-0.435-0.986-1.144-1.5-1.104c-0.511,0.039-0.511,0.592-1.023,0.592
			c-0.514,0-0.633,0.275-0.553,0.828c0.079,0.552-0.789-0.039-1.381,0.039c-0.591,0.079,0,0.75-0.315,0.789
			s-0.315,0.592-0.828,0.592s-0.434,1.143-0.354,1.735c0.077,0.591-0.79-0.276-1.303-0.119c-0.512,0.157,0.119,0.671,0.275,1.341
			c0.159,0.67-0.275,0.631-0.552,0.906c-0.275,0.277-0.71-0.749-0.71-1.34c0-0.592-0.67-0.039-1.38,0.709
			c-0.709,0.75,0.238,1.893-0.078,2.091c-0.315,0.196-1.736,1.538-2.564,2.524c-0.827,0.984-2.602,0.394-3.153,0.867
			c-0.553,0.473-1.144,0.117-1.697,0.552c-0.552,0.434-1.576,1.263-1.694,0.749c-0.119-0.514-1.539-0.117-2.131,0.514
			c-0.591,0.631-1.537,1.182-2.207,1.223c-0.671,0.039-0.671,1.064-0.947,1.301c-0.275,0.236-0.197-0.828-0.197-1.104
			c0-0.277-0.631,0.473-0.907,1.301c-0.275,0.828,0.671,1.143,0.08,2.011c-0.593,0.868-1.145,1.735-0.315,2.839
			c0.828,1.105,1.3,1.814,1.025,2.366c-0.277,0.552-0.868-1.104-1.065-0.905c-0.197,0.196,0.749,0.905,0.514,1.261
			c-0.238,0.354-1.087-1.343-1.263-0.946c-0.158,0.355,1.773,3.036,1.814,4.021c0.039,0.986,1.576,1.934,1.498,3.354
			c-0.078,1.419,1.341,3.707,1.578,4.062c0.235,0.354-0.553,1.3-0.396,2.365c0.158,1.065-0.354,1.459-1.025,1.459
			c-0.67,0-0.275,1.106,0.474,1.183c0.749,0.08,0.474,0.594,1.301,1.145c0.828,0.553,2.799,0.354,3.471,0.354
			c0.671,0,0.868-1.024,1.774-1.063c0.908-0.04,0.828-0.316,1.262-0.868c0.436-0.552,2.484-0.395,4.575-0.275
			c2.09,0.118,2.997-0.513,3.312-1.382c0.27-0.74,1.774-0.789,2.365-1.34c0.593-0.553,1.105-0.592,2.643-0.514
			c1.538,0.08,2.958-0.748,3.944-1.143c0.985-0.395,2.8-0.236,3.746-0.474c0.945-0.237,1.104,1.183,2.168,1.064
			c1.065-0.118,1.539,0.316,2.091,0.276c0.552-0.039,0.473,0.395,1.024,0.512c0.554,0.119,0.475,0.594,0.12,1.105
			c-0.356,0.512,0.828,0.474,1.577,1.498c0.749,1.027,0.039,1.184,0.434,1.973c0.394,0.789,0.67,0.59,1.46-0.514
			c0.787-1.104,1.654-0.394,1.772-1.34c0.119-0.947,0.948-2.051,1.5-1.578c0.553,0.473-0.396,0.71-0.749,2.524
			c-0.355,1.813-0.986,0.867-1.105,1.38c-0.117,0.512,1.657,0.789,1.657-0.158c0-0.946,0.314-1.381,0.985-0.513
			s-0.395,1.578-0.235,1.972c0.156,0.395,0.906-0.118,1.3-0.078c0.702,0.07,1.656,1.617,1.498,2.445
			c-0.156,0.827-0.394,1.615,0.947,2.287c1.341,0.67,0.827,0.789,1.814,0.789c0.984,0,3.036,0.788,3.588,1.262
			c0.552,0.473,1.973-0.355,2.248-1.302c0.276-0.946,1.302-0.039,0.75,0.276c-0.555,0.315,0.275,1.064,0.314,0.552
			c0.04-0.513,0.276-0.946,0.474-0.354c0.197,0.591,0.908,0.591,1.184,1.064c0.276,0.474,0.591,0.828,0.591,0.434
			s0.158-0.75,0.789-0.986s1.025-0.67,1.696-1.223c0.671-0.552,3.43-0.67,3.706-0.67c0.275,0,0.435-2.365,0.592-3.589
			c0.158-1.223,1.183-1.419,1.34-2.721c0.159-1.301,1.538-3.708,1.894-3.825c0.356-0.117,1.025-0.473,1.065-1.223
			c0.039-0.749,0.945-1.578,0.945-2.484s0.515-1.972,0.435-2.247c-0.078-0.276-0.396-1.144,0.196-1.774
			C144.042,161.345,143.213,160.596,143.528,160.359z M104.016,129.48c-0.08-0.473-2.888,0.074-2.289,0.553
			C102.122,130.349,104.094,129.955,104.016,129.48z M112.889,176.172c0.433,0.395,1.893,0.275,2.128-0.275
			C115.254,175.344,112.498,175.818,112.889,176.172z M130.712,187.135c-1.063,0.119-2.662-0.969-3.038-0.865
			c-0.433,0.117,1.382,2.837,0.83,3.547c-0.552,0.711,1.617,2.644,2.365,2.761c0.749,0.118,0.474-0.749,0.987-0.71
			c0.513,0.04,0.315-0.512,0.394-0.906s0.592,0.434,1.026,0.197c0.433-0.236-0.119-1.933,0.513-1.933c0.631,0,0.117-2.05-0.08-2.721
			C133.513,185.834,131.778,187.017,130.712,187.135z"/>
		<path fill="#64ABD4" d="M8.542,41.541c-0.828-0.395-0.907-1.104-0.907-1.341c0-0.208-0.938-0.778-1.621-1.314
			c-0.09,0.013-0.301,0.047-0.539,0.105c-0.088-0.084-0.201-0.151-0.324-0.21c-0.535,0.57-1.409,0.69-1.805,0.546
			c-0.484-0.176-1.743,0.227-2.4,0.714c-0.24,0.178-0.554,0.25-0.92,0.322c-0.091,0.06-0.182,0.104-0.265,0.113
			c-0.473,0.053-0.631,0.526-0.263,0.896c0.368,0.367,0.263,0.63,0.315,1.051c0.053,0.421-0.578,0.841-0.842,1.262
			c-0.263,0.42,0.055,0.946-0.157,1.419c-0.209,0.474-1.787-0.263-1.998-0.053c-0.21,0.211,0.524,0.842,0.578,1.157
			c0.054,0.316-0.578,0.685-1.209,0.736c-0.631,0.053-0.527,0.841-0.578,1.893c-0.053,1.053-0.683,1.21-0.841,0.788
			c-0.158-0.419-1.895,0.159-1.895,0.632c0,0.473-0.578,0.369-1.208,0.315c-0.632-0.052-1.366,0.58-1.421,0.842
			c-0.051,0.261,0.264,1.577,0.158,1.788c-0.104,0.21-5.995,1.104-7.149,0.893c-0.92-0.167-1.934-0.267-2.734-0.301
			c0.305,0.3,0.712,0.626,0.834,0.955c0.234,0.623,0.983,1.191,1.826,1.543c0.841,0.351,0.42,1.826,0.841,1.966
			c0.422,0.141,0.984,1.264,0.422,1.333c-0.562,0.071-1.054,0.211-1.614,0.492c-0.562,0.28-1.194,0.982-1.124,1.825
			c0.01,0.111,0.024,0.265,0.045,0.444c1.433,0.033,3.135-0.039,3.317-0.239c0.289-0.315,0.974-0.474,1.367-0.211
			c0.394,0.262,2.156,0.369,2.866-0.026c0.862-0.48,1.394,0,1.419,0.421c0.025,0.419,0.42,0.604,0.814,0.972
			c0.395,0.369,0.107,0.79,0.368,1.211c0.263,0.42,0.79,0.342,1.552,0.683c0.106,0.047,0.197,0.108,0.284,0.176
			c0.047-0.056,0.087-0.098,0.112-0.129c0.421-0.492,0.492-1.335,1.616-1.125c1.122,0.211,1.053-0.21,1.685-0.069
			c0.633,0.14,1.052,0.069,1.333-0.35c0.281-0.423-0.281-1.265-0.63-1.617c-0.352-0.351-0.844-1.123-0.773-1.824
			c0.07-0.703-1.123-0.703-1.123-1.265c0-0.561,1.123-1.474,1.335-1.684c0.21-0.21,1.122,0.562,1.332,0.141
			c0.211-0.423,0.843-0.141,1.194-0.071c0.352,0.071,0.911-0.702,0.981-1.333c0.071-0.632,1.267-0.703,1.477-0.913
			c0.211-0.211,0.561-1.615,0.702-1.896c0.141-0.28,1.053-0.069,1.053-0.842s0.421-0.914,0.843-0.983
			c0.42-0.07,0.279-0.772,0.351-1.333c0.069-0.562,0.351-1.195,0.911-1.335c0.563-0.141-0.21-0.911-0.842-0.771
			c-0.631,0.14-1.052-1.686-1.052-1.686s0.069-1.474-0.282-1.685c-0.352-0.211,0.142-0.982,0.914-0.982
			c0.771,0,2.177,0.842,2.667,0.49c0.49-0.351,1.476-0.562,1.756-0.701c0.213-0.108,0.507-0.781,0.636-1.097
			C9.604,42.056,9.065,41.79,8.542,41.541z"/>
		<path fill="#64ABD4" d="M45.4,110.619c-0.104,0.262,0.475,1.313,0.841,0.998C46.611,111.301,45.732,109.786,45.4,110.619z
			 M62.595,113.825c0-0.473-1.357-0.244-0.946,0.421C62.069,114.929,62.595,114.299,62.595,113.825z M42.824,106.096
			c-0.104,0.526,0.473,2.05,1.104,1.419C44.56,106.885,42.928,105.581,42.824,106.096z M82.523,115.088
			c0.787,0.052,0.683,1.209,0.525,1.893c-0.158,0.684-0.477,2.309,0.21,2.05c0.841-0.315,1.368-1.366,0.895-1.735
			c-0.476-0.367-0.421-2.682-0.212-3.26c0.212-0.577,1.631-0.156,1.157,0.736c-0.472,0.895,0.895,0.789,0.895,1.788
			s0.788,0.474,1.629,0.211c0.842-0.263,0.687-0.737,0.105-1.368c-0.577-0.631,0.422-1.523-0.367-2.05
			c-0.788-0.526-1.314-1.314-0.579-1.472c0.736-0.158,2.944-1.42,2.682-1.946c-0.262-0.526-3.364,0.104-3.629,1.052
			c-0.262,0.946-2.469-0.105-2.207-1.735c0.264-1.629,4.627-1.894,5.889-1.313c1.262,0.577,2.629-0.947,3.103-1.841
			c0.474-0.894-0.998,0.157-1.894,0.737c-0.893,0.578-3.259-0.053-4.469-0.474c-1.208-0.42-1.157,0.737-2.157,0.894
			c-0.997,0.158-0.788,2.366-1.261,2.628c-0.474,0.265-0.474,1.894-1.42,3.42C80.472,114.824,81.733,115.035,82.523,115.088z
			 M58.494,116.455c-0.053-0.736,0.263-1.473,0.263-1.842c0-0.367,0.263-0.523,0.734-0.42c0.475,0.105,0.422-1,0.055-1.104
			c-0.369-0.104-0.578-1.419-1.475-1.419c-0.892,0-0.735,0.734-0.208,0.789c0.525,0.053,0.84,0.473,0.684,0.842
			c-0.159,0.368-0.369-0.369-1.104-0.315c-0.737,0.052-0.263-0.896-1.104-0.947c-0.84-0.053-0.684-1.577-1.578-1.577
			c-0.894,0-0.947-0.736-0.368-1.262c0.578-0.527-0.894-1-0.894-1.631c0-0.632-0.947-0.262-0.947-0.789
			c0-0.526-0.42-0.262-0.894-0.894c-0.472-0.631-0.683-0.054-1.104-0.525c-0.42-0.474-0.999-0.736-1.367-0.579
			c-0.367,0.159-1.21-0.683-1.524-1.525c-0.252-0.669-2.682-1.787-2.998-2.681c-0.314-0.894-1.156-1.262-2.574-1.209
			c-1.42,0.053-1.982-1.391-2.316-0.684c-0.42,0.895,1.525,2.893,2.42,3.418c0.894,0.526,1.366,2.417,2.419,2.524
			c1.051,0.105,1.157,3.418,1.944,3.575c0.788,0.158,2.475,2.734,2.735,4.102c0.263,1.367,1.997,2.051,2.575,3.05
			c0.579,0.999,2.893,2.366,3.209,2.786c0.314,0.421,0.631,1.367,0.894,0.894c0.263-0.473,1.366,0,1.894,0.054
			C58.389,119.137,58.547,117.191,58.494,116.455z M98.666,108.043c1.157,0.104,0.629-0.58,0.629-1.316
			c0-0.735-1.05-0.104-1.05-0.473c0-0.367-0.367-1.84-1.209-0.683c-0.843,1.156,0.271,4.014,0.944,3.892
			C98.56,109.357,97.508,107.938,98.666,108.043z M94.354,114.613c0.21,0.842,1.734,1.314,2.156,0.58
			C96.929,114.457,94.109,113.639,94.354,114.613z M90.2,123.5c-1.42-0.209-2.367,0.842-3.786,0.316
			c-1.42-0.525-3.545,0.01-3.312,0.473c0.21,0.421,1.471,0.473,2.892,0.526c1.419,0.052,2.682-0.737,3.628-0.788
			C90.566,123.973,91.62,123.711,90.2,123.5z M101.451,113.879c-1.367-0.421-3.7-0.062-3.471,0.631
			c0.211,0.63,1.314,0.369,2.42,0.369c1.104,0,1.682,0.787,2.261,0.787S102.82,114.299,101.451,113.879z M73.741,122.922
			c-0.052-0.631-2.103-0.053-3.101-0.473c-1-0.422,1.104-0.789,1.786-1.211c0.684-0.42-0.421-0.577-2.103-0.051
			c-1.684,0.525-3.628-1.158-3.682-0.422c-0.051,0.737-3.049-0.316-3.785-0.84c-0.734-0.526-3.575-1.211-4.154-0.211
			c-0.577,1-1.079,0.103-0.84,1.051c0.158,0.631,0.84,0.264,1.313,0.264c0.473,0,0.263,0.895,0.946,0.998
			c0.684,0.107,2.946,0.738,3.155,0.264c0.211-0.473,2.314,0,3.364,0.842c1.053,0.84,3.472,0.895,4.418,0.736
			c0.945-0.158,1.997,0.631,2.366,0.104c0.369-0.523,1.051,0.843,2.104,0.055C76.581,123.238,73.796,123.553,73.741,122.922z
			 M115.123,111.459c-0.789,0.053-0.895,1.42-1.578,1.42s-1.629,1.42-2.891,1.841c-1.263,0.42-1.316-3.628-1.895-4.417
			s-3.732-1.42-4.047-0.525c-0.317,0.895-1.412,0.421-1.526,1.156c-0.104,0.684,0.264,0.473,0.946,0.473s0.683,0.526,0.999,1.21
			c0.316,0.685,2.209,0.21,2.84,0.159c0.631-0.055,0.735,0.84-0.157,0.525c-0.895-0.315-0.895,0.42-1.525,0.262
			s-1.474-0.104-1.053,0.263c0.422,0.368,1.104,0.737,1.104,1.577c0,0.842,1.211,0.685,1.211,0c0-0.683,0.631,0.211,1.841,0.525
			c1.209,0.316,0.369,0.79,1.577,0.843c1.208,0.054,3.943,0.946,4.995,1.735c1.053,0.789,0.314,1.313,0.999,2.051
			c0.684,0.735,0.894,1.578-0.054,1.578c-0.945,0-1.943,0.945-1.682,1.418c0.263,0.475,3.367-0.211,4.101-0.211
			c0.482,0,0.968,0.856,1.895,1.479v-11.223C118.945,112.831,115.771,111.416,115.123,111.459z M92.36,124.787
			c-0.162,0.107-0.351,0.193-0.578,0.244c-0.069,0.195-0.14,0.414-0.262,0.508c-0.147,0.116-0.4-0.115-0.58-0.319
			c-1.017,0.421-1.553,1.638-0.846,2.014c0.678,0.362,1.666-0.599,2.231-1.275c0.092-0.11,0.173-0.214,0.239-0.302
			c0.038-0.051,0.103-0.105,0.179-0.16c0.051-0.039,0.11-0.078,0.177-0.117C92.756,125.148,92.546,124.925,92.36,124.787z
			 M77.739,111.249c0.945-0.577,1.154-1.683,1.05-2.734s2.313-1.104,2.683-1.524c0.368-0.42-0.527-1.104-1.21-1.42
			c-0.684-0.315-0.106-0.999-0.578-1.419c-0.474-0.42-1.262-1.525-0.578-1.577c0.683-0.054-0.475-0.999,0.104-1.315
			c0.078-0.042,0.167-0.088,0.264-0.134c-0.346-0.171-0.648-0.287-0.843-0.287c-0.841,0-2.838-0.21-2.734,1.156
			c0.107,1.368-1.155,0.841-1.051,1.578c0.105,0.737-0.631,0.737-0.525,1.683c0.106,0.947-0.524,0.525-1.578,1.052
			c-1.051,0.526-0.63-0.315-1.682-0.315c-1.053,0-1.157,0.526-1.788,0.735c-0.632,0.21-1.894-0.104-2.313,0.21
			c-0.42,0.316-1.051-0.735-1.473-0.735c-0.215,0-0.4-0.575-0.532-1.137c-0.075-0.015-0.144-0.025-0.204-0.02
			c-0.682,0.054-1.813,1.858-1.156,2.471c0.787,0.738,0.578,1.893,0.945,2.472c0.369,0.579,1.528,0.683,1.528,1.787
			s0.995,2.839,1.682,2.366c0.683-0.473,1.207,0.211,1.417,0.684c0.212,0.474,1.841-0.367,2.367-0.262s2.154,0.42,2.263,1.051
			c0.104,0.631,1.576-0.053,2.574-0.42C77.369,114.824,76.792,111.827,77.739,111.249z M81.682,125.971
			c0.315,0.474,1.209,0.474,1.577,0.79c0.37,0.313,1.682,0.999,1.682,0.104S81.331,125.445,81.682,125.971z M79.052,123.396
			c-0.208,0.474-1.104,0.577-1.629,0.21s-1.178,0.499-0.842,0.946c0.157,0.21,1.262,1.052,2.575,0.421
			c1.317-0.631,2.21-0.053,2.525-0.736S79.263,122.922,79.052,123.396z"/>
		<g>
			<path fill-rule="evenodd" clip-rule="evenodd" fill="#64ABD4" d="M173.514,194.373c-0.347,0.283-0.795,0.173-1.178,0.351
				c-0.614,0.288-1.098,0.701-1.178,1.472c-0.082,0.75-0.417,1.404-0.563,2.124c-0.298,1.481-1.363,2.122-2.42,2.778
				c-0.22,0.133-0.479,0.127-0.73,0.074c-0.45-0.099-0.895-0.207-1.302-0.455c-0.443-0.27-0.887-0.505-1.409-0.499
				c-0.154,0.002-0.328-0.067-0.479-0.138c-0.323-0.154-0.496-0.55-0.362-0.91c0.362-0.973,0.58-2.04,1.42-2.705
				c0.03-0.025,0.062-0.062,0.08-0.102c0.515-0.914,1.101-1.73,2.125-1.96c0.896-0.818,1.804-1.626,2.684-2.463
				c0.32-0.309,0.471-0.757,0.556-1.22c0.094-0.512,0.283-0.963,0.663-1.297c0.303-0.266,0.486-0.615,0.562-1.044
				c0.049-0.224,0.113-0.447,0.195-0.653c0.292-0.725,0.598-0.793,1.109-0.268c0.092,0.098,0.199,0.184,0.261,0.299
				c0.226,0.412,0.493,0.439,0.83,0.176c0.096-0.076,0.229-0.111,0.349-0.131c0.297-0.057,0.619,0.182,0.644,0.504
				c0.069,0.879,0.114,1.743-0.468,2.49c-0.406,0.524-0.7,1.151-1.11,1.662c-0.416,0.514-0.553,1.009-0.261,1.635
				C173.566,194.159,173.521,194.268,173.514,194.373z"/>
			<path fill-rule="evenodd" clip-rule="evenodd" fill="#64ABD4" d="M173.162,174.164c0.442,0.365,0.919,0.693,1.448,0.938
				c0.617,0.285,0.911,0.93,1.117,1.596c0.152,0.482,0.244,0.983,0.374,1.471c0.057,0.219,0.118,0.449,0.238,0.624
				c0.126,0.177,0.329,0.341,0.535,0.272c0.202-0.062,0.073-0.311,0.111-0.478c0.013-0.072,0.089-0.165,0.15-0.18
				c0.068-0.011,0.168,0.043,0.225,0.101c0.194,0.202,0.231,0.486,0.271,0.756c0.152,1.033,0.804,1.452,1.624,1.672
				c0.253,0.069,0.49,0.057,0.719-0.088c0.218-0.135,0.423-0.298,0.651-0.408c0.534-0.254,0.924-0.001,0.967,0.625
				c0.03,0.606,0.018,1.203-0.343,1.723c-0.124,0.174-0.208,0.4-0.271,0.613c-0.085,0.252-0.208,0.314-0.456,0.346
				c-0.802,0.09-0.932,0.227-0.969,1.07c-0.017,0.426-0.086,0.827-0.243,1.205c-0.41,0.959-0.897,1.873-1.525,2.68
				c-0.414,0.52-1.282,0.371-1.606-0.236c-0.054-0.104-0.059-0.274-0.026-0.395c0.062-0.216,0.177-0.414,0.264-0.623
				c0.41-1.002,0.312-1.395-0.491-1.964c-0.314-0.228-0.639-0.435-0.93-0.696c-0.39-0.352-0.448-0.889-0.044-1.182
				c0.863-0.617,0.845-1.64,1.094-2.54c0.114-0.409-0.026-0.819-0.213-1.194c-0.395-0.811-0.752-1.643-1.271-2.375
				c-0.627-0.876-1.122-1.842-1.485-2.883C173.03,174.479,173.003,174.348,173.162,174.164z"/>
			<path fill-rule="evenodd" clip-rule="evenodd" fill="#64ABD4" d="M137.96,123.471c-0.777-0.095-1.527-0.318-2.163-0.879
				c-0.106-0.091-0.132-0.237-0.07-0.373c0.04-0.072,0.11-0.168,0.173-0.178c0.24-0.049,0.488-0.062,0.735-0.091
				c0.288-0.04,0.619,0.003,0.849-0.143c0.436-0.289,0.808-0.638,1.28-0.067c0.062,0.075,0.347,0.034,0.458-0.063
				c0.476-0.418,1.079-0.712,1.246-1.468c0.028-0.121,0.12-0.239,0.212-0.322c0.168-0.158,0.381-0.187,0.585-0.117
				c0.21,0.07,0.352,0.25,0.374,0.496c0.06,0.629-0.091,1.238-0.472,1.663C140.296,122.891,139.265,123.536,137.96,123.471z"/>
			<path fill-rule="evenodd" clip-rule="evenodd" fill="#64ABD4" d="M159.551,147.137c0.109,0.02,0.244,0.008,0.349,0.064
				c0.491,0.261,0.962,0.563,1.296,1.045c0.419,0.598,0.889,1.096,1.51,1.404c0.076,0.04,0.149,0.088,0.216,0.143
				c0.547,0.419,0.833,0.908,0.61,1.032c-0.391,0.217-0.712-0.073-1.03-0.256c-1.116-0.636-2.151-1.394-2.873-2.572
				c-0.115-0.19-0.241-0.386-0.22-0.628C159.415,147.295,159.493,147.228,159.551,147.137z"/>
			<path fill-rule="evenodd" clip-rule="evenodd" fill="#64ABD4" d="M180.271,143.375c-0.225-0.048-0.427-0.074-0.617-0.146
				c-0.203-0.069-0.355-0.226-0.396-0.471c-0.04-0.249,0.044-0.455,0.207-0.609c0.291-0.271,0.652-0.367,1.022-0.355
				c0.392,0.009,0.736,0.476,0.714,0.939c-0.004,0.199-0.104,0.365-0.248,0.432C180.734,143.268,180.492,143.314,180.271,143.375z"
				/>
			<path fill-rule="evenodd" clip-rule="evenodd" fill="#64ABD4" d="M108.933,126.028c0.136-0.026,0.258-0.05,0.381-0.061
				c0.176-0.017,0.325,0.055,0.408,0.228c0.118,0.236,0.034,0.453-0.108,0.624c-0.176,0.213-0.404,0.315-0.662,0.28
				c-0.328-0.045-0.651-0.104-0.973-0.172c-0.186-0.039-0.275-0.192-0.258-0.396c0.014-0.193,0.114-0.337,0.261-0.434
				C108.294,125.9,108.629,126.095,108.933,126.028z"/>
			<path fill-rule="evenodd" clip-rule="evenodd" fill="#64ABD4" d="M146.606,124.156c-0.058-0.023-0.259-0.037-0.342-0.163
				c-0.367-0.536-0.704-1.104-1.033-1.673c-0.042-0.072,0.036-0.256,0.098-0.355c0.026-0.049,0.17-0.061,0.227-0.02
				c0.599,0.403,1.09,0.946,1.474,1.598C147.165,123.769,146.961,124.133,146.606,124.156z"/>
			<path fill-rule="evenodd" clip-rule="evenodd" fill="#64ABD4" d="M153.708,127.793c0.28,0.373,0.543,0.711,0.794,1.06
				c0.098,0.132-0.021,0.409-0.171,0.415c-0.454,0.018-0.899-0.01-1.319-0.215c-0.2-0.096-0.342-0.26-0.343-0.514
				c-0.005-0.217,0.139-0.311,0.291-0.388C153.217,128.025,153.47,127.905,153.708,127.793z"/>
			<path fill-rule="evenodd" clip-rule="evenodd" fill="#64ABD4" d="M181.588,141.09c-0.141-0.132-0.254-0.197-0.31-0.303
				c-0.104-0.191,0.002-0.357,0.135-0.468c0.369-0.314,0.806-0.446,1.246-0.56c0.215-0.061,0.413-0.01,0.487,0.27
				c0.057,0.236,0.023,0.514-0.179,0.603C182.52,140.826,182.04,140.944,181.588,141.09z"/>
			<path fill-rule="evenodd" clip-rule="evenodd" fill="#64ABD4" d="M110.192,184.195c-0.092-0.015-0.336-0.036-0.562-0.119
				c-0.092-0.027-0.188-0.189-0.194-0.299c-0.006-0.111,0.069-0.263,0.149-0.336c0.224-0.207,0.5-0.303,0.789-0.301
				c0.378,0,0.731,0.096,0.932,0.5c0.116,0.24-0.298,0.512-0.841,0.551C110.424,184.193,110.386,184.193,110.192,184.195z"/>
			<path fill-rule="evenodd" clip-rule="evenodd" fill="#64ABD4" d="M141.456,118.5c0.409,0.142,0.731,0.434,1.045,0.738
				c0.223,0.219,0.363,0.499,0.342,0.854c-0.014,0.193-0.09,0.362-0.259,0.431c-0.178,0.072-0.328-0.018-0.412-0.198
				c-0.162-0.371-0.298-0.757-0.467-1.129c-0.092-0.204-0.214-0.394-0.321-0.592L141.456,118.5z"/>
			<path fill-rule="evenodd" clip-rule="evenodd" fill="#64ABD4" d="M148.175,125.471c0.038-0.006,0.083-0.035,0.112-0.021
				c0.529,0.255,1.072,0.484,1.534,0.88c0.336,0.291,0.53,0.711,0.364,0.763c-0.284,0.085-0.438-0.183-0.637-0.32
				c-0.456-0.314-0.915-0.63-1.364-0.957c-0.053-0.039-0.062-0.16-0.073-0.247C148.105,125.547,148.154,125.504,148.175,125.471z"/>
			<path fill-rule="evenodd" clip-rule="evenodd" fill="#64ABD4" d="M152.791,126.445c-0.062,0.045-0.14,0.137-0.19,0.123
				c-0.529-0.137-1.003-0.408-1.378-0.861c-0.047-0.057-0.066-0.184-0.043-0.254c0.043-0.155,0.191-0.175,0.298-0.113
				c0.434,0.256,0.903,0.457,1.264,0.852C152.786,126.243,152.779,126.357,152.791,126.445z"/>
			<path fill-rule="evenodd" clip-rule="evenodd" fill="#64ABD4" d="M195.941,135.675c-0.062,0.056-0.115,0.151-0.177,0.155
				c-0.472,0.043-0.894-0.166-1.293-0.408c-0.086-0.052-0.178-0.229-0.163-0.329c0.038-0.228,0.24-0.257,0.39-0.192
				c0.393,0.157,0.766,0.35,1.141,0.547C195.896,135.477,195.907,135.597,195.941,135.675z"/>
			<path fill-rule="evenodd" clip-rule="evenodd" fill="#64ABD4" d="M155.533,128.365c-0.115,0.082-0.181,0.154-0.247,0.154
				c-0.075,0.007-0.167-0.034-0.223-0.09c-0.39-0.375-0.617-0.856-0.713-1.411c-0.015-0.065,0.058-0.157,0.104-0.222
				c0.018-0.019,0.098-0.02,0.121,0.007C154.975,127.262,155.274,127.801,155.533,128.365z"/>
			<path fill-rule="evenodd" clip-rule="evenodd" fill="#64ABD4" d="M163.961,138.424c-0.009,0.209-0.103,0.363-0.269,0.409
				c-0.112,0.029-0.263,0.024-0.343-0.04c-0.282-0.244-0.344-0.602-0.317-0.973c0.004-0.054,0.122-0.142,0.174-0.135
				C163.632,137.742,163.943,138.066,163.961,138.424z"/>
			<path fill-rule="evenodd" clip-rule="evenodd" fill="#64ABD4" d="M141.384,118.604c-0.767-0.104-1.335-0.643-1.946-1.1
				c-0.038-0.035-0.069-0.18-0.037-0.23c0.032-0.056,0.16-0.102,0.205-0.074c0.628,0.41,1.337,0.693,1.85,1.305L141.384,118.604z"/>
			<path fill-rule="evenodd" clip-rule="evenodd" fill="#64ABD4" d="M166.289,201.812c0.047,0.446-0.316,0.884-0.658,0.813
				c-0.057-0.01-0.139-0.104-0.154-0.176c-0.065-0.338,0.062-0.617,0.27-0.852c0.093-0.104,0.227-0.139,0.332-0.051
				C166.171,201.621,166.232,201.742,166.289,201.812z"/>
			<path fill-rule="evenodd" clip-rule="evenodd" fill="#64ABD4" d="M155.778,129.826c0.354,0.008,0.638,0.165,0.799,0.531
				c0.026,0.068,0.025,0.19-0.013,0.256c-0.036,0.064-0.137,0.131-0.202,0.123c-0.357-0.033-0.611-0.247-0.765-0.607
				c-0.016-0.037-0.021-0.109-0.001-0.134C155.646,129.93,155.714,129.884,155.778,129.826z"/>
			<path fill-rule="evenodd" clip-rule="evenodd" fill="#64ABD4" d="M126.862,191.959c0.415,0.173,0.685,0.757,0.556,1.221
				c-0.018,0.051-0.165,0.111-0.201,0.083c-0.353-0.288-0.517-0.697-0.548-1.167C126.669,192.056,126.793,192.005,126.862,191.959z"
				/>
			<path fill-rule="evenodd" clip-rule="evenodd" fill="#64ABD4" d="M149.205,124.535c-0.08,0.121-0.118,0.238-0.169,0.239
				c-0.483,0.047-1.041-0.411-1.06-0.874c0-0.053,0.112-0.166,0.155-0.152C148.584,123.854,148.885,124.214,149.205,124.535z"/>
			<path fill-rule="evenodd" clip-rule="evenodd" fill="#64ABD4" d="M117.654,130.225c0.234-0.035,0.468,0.215,0.463,0.514
				c-0.001,0.195-0.101,0.354-0.281,0.38c-0.229,0.034-0.381-0.12-0.447-0.36C117.326,130.532,117.472,130.254,117.654,130.225z"/>
			<path fill-rule="evenodd" clip-rule="evenodd" fill="#64ABD4" d="M139.584,129.975c-0.216-0.392-0.439-0.779-0.642-1.177
				c-0.022-0.042,0.048-0.183,0.103-0.22c0.058-0.041,0.165-0.041,0.227-0.009c0.348,0.224,0.444,0.646,0.586,1.014
				c0.073,0.188-0.146,0.293-0.29,0.38L139.584,129.975z"/>
			<path fill-rule="evenodd" clip-rule="evenodd" fill="#64ABD4" d="M165.456,137.968c0.08,0.054,0.191,0.085,0.212,0.148
				c0.034,0.124,0.051,0.273,0.023,0.395c-0.045,0.171-0.124,0.335-0.219,0.469c-0.022,0.023-0.221-0.076-0.307-0.16
				c-0.186-0.192-0.162-0.407,0.008-0.601C165.263,138.124,165.369,138.052,165.456,137.968z"/>
			<path fill-rule="evenodd" clip-rule="evenodd" fill="#64ABD4" d="M189.838,194.293c-0.005,0.189-0.056,0.354-0.241,0.405
				c-0.199,0.057-0.379-0.21-0.377-0.558c0.008-0.215,0.114-0.334,0.307-0.321C189.788,193.835,189.829,194.055,189.838,194.293z"/>
			<path fill-rule="evenodd" clip-rule="evenodd" fill="#64ABD4" d="M164.694,140.182c-0.043,0.054-0.092,0.15-0.156,0.162
				c-0.273,0.053-0.541-0.316-0.464-0.642c0.011-0.062,0.137-0.136,0.19-0.126C164.525,139.643,164.699,139.9,164.694,140.182z"/>
			<path fill-rule="evenodd" clip-rule="evenodd" fill="#64ABD4" d="M120.931,192.027c0.001,0.086,0.002,0.305-0.191,0.33
				c-0.206,0.027-0.242-0.191-0.244-0.371c-0.002-0.188,0.03-0.387,0.255-0.362C120.877,191.639,120.922,191.791,120.931,192.027z"
				/>
			<path fill-rule="evenodd" clip-rule="evenodd" fill="#64ABD4" d="M142.847,131.627c0.298,0.02,0.512,0.203,0.663,0.471
				c0.021,0.032-0.047,0.192-0.082,0.195c-0.309,0.033-0.525-0.149-0.656-0.444C142.75,131.801,142.818,131.705,142.847,131.627z"/>
			<path fill-rule="evenodd" clip-rule="evenodd" fill="#64ABD4" d="M191.189,148.556c-0.036,0.066-0.061,0.175-0.108,0.187
				c-0.162,0.045-0.332,0.008-0.417-0.166c-0.07-0.145,0.004-0.261,0.146-0.278C190.981,148.283,191.114,148.372,191.189,148.556z"
				/>
			<path fill-rule="evenodd" clip-rule="evenodd" fill="#64ABD4" d="M122.098,135.223c-0.057-0.061-0.151-0.113-0.157-0.176
				c-0.021-0.225,0.117-0.33,0.294-0.346c0.141-0.01,0.261,0.085,0.235,0.24C122.441,135.154,122.279,135.215,122.098,135.223z"/>
			<path fill-rule="evenodd" clip-rule="evenodd" fill="#64ABD4" d="M163.124,211.703c0.041-0.072,0.08-0.216,0.159-0.266
				c0.134-0.074,0.229,0.049,0.224,0.186c-0.005,0.11-0.062,0.268-0.138,0.309C163.251,212.004,163.158,211.896,163.124,211.703z"/>
			<path fill-rule="evenodd" clip-rule="evenodd" fill="#64ABD4" d="M133.345,116.457c-0.075,0.131-0.19,0.185-0.319,0.134
				c-0.131-0.054-0.176-0.182-0.085-0.307c0.091-0.112,0.218-0.112,0.341-0.053C133.374,116.279,133.389,116.366,133.345,116.457z"
				/>
			<path fill-rule="evenodd" clip-rule="evenodd" fill="#64ABD4" d="M138.274,117.215c-0.128-0.037-0.212-0.124-0.182-0.27
				c0.034-0.145,0.146-0.206,0.269-0.15c0.062,0.027,0.131,0.121,0.135,0.188C138.511,117.143,138.408,117.205,138.274,117.215z"/>
			<path fill-rule="evenodd" clip-rule="evenodd" fill="#64ABD4" d="M181.014,144.516c0.037,0.061,0.118,0.137,0.105,0.177
				c-0.051,0.187-0.183,0.253-0.351,0.196c-0.029-0.006-0.07-0.063-0.066-0.092C180.717,144.588,180.839,144.513,181.014,144.516z"
				/>
		</g>
	</g>
</g>
</svg>
