<?xml version="1.0" encoding="utf-8"?>
<!-- Generator: Adobe Illustrator 16.0.0, SVG Export Plug-In . SVG Version: 6.00 Build 0)  -->
<!DOCTYPE svg PUBLIC "-//W3C//DTD SVG 1.1//EN" "http://www.w3.org/Graphics/SVG/1.1/DTD/svg11.dtd">
<svg version="1.1" id="Layer_1" xmlns="http://www.w3.org/2000/svg" xmlns:xlink="http://www.w3.org/1999/xlink" x="0px" y="0px"
	 width="71.902px" height="66.077px" viewBox="0 0 71.902 66.077" enable-background="new 0 0 71.902 66.077" xml:space="preserve">
<g>
	<g>
		<polygon fill="#FBFBFB" stroke="#434344" stroke-linecap="round" stroke-linejoin="round" stroke-miterlimit="10" points="
			56.392,8.749 29.688,8.749 29.688,64.411 70.687,64.411 70.687,22.003 		"/>
		<g>
			<path fill="#FBFBFB" d="M56.392,20.278c0,1.1,0.9,2,2,2h10.295c1.1,0,1.34-0.612,0.533-1.36L57.858,10.384
				c-0.807-0.748-1.467-0.46-1.467,0.64V20.278z"/>
			<path fill="none" stroke="#434344" stroke-linecap="round" stroke-linejoin="round" stroke-miterlimit="10" d="M56.392,20.278
				c0,1.1,0.9,2,2,2h10.295c1.1,0,1.34-0.612,0.533-1.36L57.858,10.384c-0.807-0.748-1.467-0.46-1.467,0.64V20.278z"/>
		</g>
	</g>
	<g>
		<path fill="#434344" d="M50.605,23.658c0,0.327-0.284,0.591-0.638,0.591H37.957c-0.352,0-0.637-0.265-0.637-0.591l0,0
			c0-0.326,0.285-0.59,0.637-0.59h12.011C50.321,23.067,50.605,23.332,50.605,23.658L50.605,23.658z"/>
		<path fill="#434344" d="M63.593,31.345c0,0.326-0.286,0.589-0.638,0.589H35.957c-0.352,0-0.637-0.263-0.637-0.589l0,0
			c0-0.328,0.285-0.593,0.637-0.593h26.998C63.307,30.752,63.593,31.018,63.593,31.345L63.593,31.345z"/>
		<path fill="#434344" d="M63.593,39.262c0,0.326-0.286,0.593-0.638,0.593H35.957c-0.352,0-0.637-0.267-0.637-0.593l0,0
			c0-0.327,0.285-0.592,0.637-0.592h26.998C63.307,38.67,63.593,38.935,63.593,39.262L63.593,39.262z"/>
		<path fill="#434344" d="M63.593,47.306c0,0.325-0.286,0.591-0.638,0.591H35.957c-0.352,0-0.637-0.266-0.637-0.591l0,0
			c0-0.327,0.285-0.592,0.637-0.592h26.998C63.307,46.714,63.593,46.979,63.593,47.306L63.593,47.306z"/>
		<path fill="#434344" d="M63.593,55.183c0,0.324-0.286,0.59-0.638,0.59H35.957c-0.352,0-0.637-0.266-0.637-0.59l0,0
			c0-0.327,0.285-0.592,0.637-0.592h26.998C63.307,54.591,63.593,54.856,63.593,55.183L63.593,55.183z"/>
	</g>
</g>
<rect fill="#FFFFFF" width="46.138" height="57.694"/>
<g>
	<g>
		<polygon fill="#FBFBFB" stroke="#434344" stroke-linecap="round" stroke-linejoin="round" stroke-miterlimit="10" points="
			29.407,2.1 3.317,2.1 3.317,55.996 43.374,55.996 43.374,14.933 		"/>
		<g>
			<path fill="#FBFBFB" d="M29.407,13.198c0,1.1,0.9,2,2,2h9.967c1.1,0,1.337-0.609,0.527-1.353L30.879,3.719
				c-0.81-0.744-1.473-0.453-1.473,0.647V13.198z"/>
			<path fill="none" stroke="#434344" stroke-linecap="round" stroke-linejoin="round" stroke-miterlimit="10" d="M29.407,13.198
				c0,1.1,0.9,2,2,2h9.967c1.1,0,1.337-0.609,0.527-1.353L30.879,3.719c-0.81-0.744-1.473-0.453-1.473,0.647V13.198z"/>
		</g>
	</g>
	<g>
		<path fill="#434344" d="M21.8,16.536c0,0.316-0.279,0.573-0.623,0.573H9.443c-0.344,0-0.624-0.257-0.624-0.573l0,0
			c0-0.317,0.28-0.573,0.624-0.573h11.733C21.521,15.963,21.8,16.219,21.8,16.536L21.8,16.536z"/>
		<path fill="#434344" d="M36.44,23.978c0,0.315-0.278,0.573-0.62,0.573H9.443c-0.344,0-0.624-0.257-0.624-0.573l0,0
			c0-0.316,0.28-0.572,0.624-0.572H35.82C36.162,23.406,36.44,23.662,36.44,23.978L36.44,23.978z"/>
		<path fill="#434344" d="M36.44,31.645c0,0.316-0.278,0.572-0.62,0.572H9.443c-0.344,0-0.624-0.256-0.624-0.572l0,0
			c0-0.316,0.28-0.573,0.624-0.573H35.82C36.162,31.072,36.44,31.329,36.44,31.645L36.44,31.645z"/>
		<path fill="#434344" d="M36.44,39.433c0,0.315-0.278,0.572-0.62,0.572H9.443c-0.344,0-0.624-0.257-0.624-0.572l0,0
			c0-0.317,0.28-0.573,0.624-0.573H35.82C36.162,38.86,36.44,39.116,36.44,39.433L36.44,39.433z"/>
		<path fill="#434344" d="M36.44,47.059c0,0.315-0.278,0.572-0.62,0.572H9.443c-0.344,0-0.624-0.257-0.624-0.572l0,0
			c0-0.315,0.28-0.573,0.624-0.573H35.82C36.162,46.486,36.44,46.744,36.44,47.059L36.44,47.059z"/>
	</g>
</g>
</svg>
