<?xml version="1.0" encoding="utf-8"?>
<!-- Generator: Adobe Illustrator 16.0.0, SVG Export Plug-In . SVG Version: 6.00 Build 0)  -->
<!DOCTYPE svg PUBLIC "-//W3C//DTD SVG 1.1//EN" "http://www.w3.org/Graphics/SVG/1.1/DTD/svg11.dtd">
<svg version="1.1" id="Layer_1" xmlns="http://www.w3.org/2000/svg" xmlns:xlink="http://www.w3.org/1999/xlink" x="0px" y="0px"
	 width="115px" height="43.667px" viewBox="4.5 4.208 115 43.667" enable-background="new 4.5 4.208 115 43.667"
	 xml:space="preserve">
<g>
	<g>
		<polygon fill="#0B92B4" points="19.182,38.79 64.25,38.79 75.051,5.987 18.843,5.987 13.065,7.159 13.065,27.712 13.065,37.71 		
			"/>
		<g>
			<path fill="#FFFFFF" d="M18.757,38.802c-6.182,0-13.418-2.958-13.468-11.295c0-0.121,0.046-0.236,0.131-0.322
				c0.085-0.086,0.2-0.133,0.319-0.133h6.87c0.241,0,0.439,0.189,0.451,0.431c0.178,3.615,3.2,4.904,5.968,4.904
				c1.735,0,5.018-0.662,5.018-3.166c0-2.153-2.982-2.89-6.434-3.742c-5.047-1.247-11.327-2.797-11.327-9.726
				c0-6.707,6.184-9.761,11.931-9.761c7.745,0,12.492,3.829,12.699,10.245c0.003,0.122-0.042,0.241-0.127,0.329
				c-0.085,0.087-0.202,0.136-0.323,0.136H23.91c-0.229,0-0.423-0.172-0.449-0.401c-0.311-2.769-1.757-3.848-5.155-3.848
				c-1.654,0-4.113,0.734-4.113,2.757c0,1.861,2.807,2.504,6.056,3.249c5.215,1.195,11.706,2.682,11.706,9.995
				C31.953,36.083,25.136,38.802,18.757,38.802z"/>
			<path fill="#FFFFFF" d="M24.497,29.22c0-5.967-17.762-2.124-17.762-13.467c0-6.328,5.875-9.311,11.48-9.311
				c6.328,0,12.021,2.803,12.249,9.808H23.91c-0.361-3.209-2.213-4.248-5.604-4.248c-1.898,0-4.564,0.904-4.564,3.208
				c0,5.471,17.762,1.538,17.762,13.243c0,7.231-6.463,9.898-12.746,9.898c-6.779,0-12.971-3.345-13.017-10.849h6.869
				c0.18,3.661,3.075,5.334,6.418,5.334C21.153,32.836,24.497,31.977,24.497,29.22z"/>
		</g>
		<g>
			<path fill="#0B92B4" d="M80.655,38.797c-0.192,0-0.363-0.123-0.426-0.304l-2.11-6.122H67.058l-2.11,6.122
				c-0.062,0.181-0.233,0.304-0.428,0.304h-7.275c-0.149,0-0.289-0.076-0.372-0.196c-0.085-0.123-0.103-0.28-0.048-0.418
				L69.299,6.291c0.067-0.173,0.232-0.288,0.419-0.288h5.74c0.186,0,0.352,0.115,0.421,0.288l12.473,31.89
				c0.054,0.141,0.035,0.299-0.047,0.421c-0.085,0.123-0.226,0.196-0.373,0.196H80.655L80.655,38.797z M75.821,25.701l-3.256-9.506
				l-3.255,9.506H75.821L75.821,25.701z"/>
			<path fill="#0B92B4" d="M80.655,38.346l-2.214-6.427H66.735l-2.216,6.427h-7.275L69.719,6.453h5.741l12.472,31.894H80.655
				L80.655,38.346z M72.565,14.801l-3.889,11.35h7.774L72.565,14.801z"/>
		</g>
		<g>
			<path fill="#0B92B4" d="M98.665,38.784c-8.971,0-16.269-7.355-16.269-16.397c0-9.042,7.298-16.398,16.269-16.398
				c7.033,0,13.232,4.501,15.433,11.2c0.046,0.138,0.022,0.289-0.064,0.405c-0.083,0.118-0.219,0.188-0.363,0.188h-7.549
				c-0.178,0-0.338-0.103-0.412-0.265c-1.156-2.539-3.986-4.246-7.046-4.246c-4.687,0-8.498,4.089-8.498,9.116
				c0,5.025,3.812,9.116,8.498,9.116c2.995,0,5.911-1.784,7.093-4.34c0.077-0.16,0.235-0.262,0.412-0.262h7.548
				c0.143,0,0.279,0.069,0.365,0.186c0.086,0.117,0.107,0.269,0.065,0.406C111.944,34.247,105.725,38.784,98.665,38.784z"/>
			<path fill="#0B92B4" d="M113.716,27.351c-2.081,6.38-8.045,10.98-15.051,10.98c-8.725,0-15.818-7.154-15.818-15.946
				c0-8.793,7.094-15.947,15.818-15.947c7.006,0,12.927,4.556,15.005,10.889h-7.549c-1.267-2.78-4.341-4.512-7.458-4.512
				c-4.97,0-8.949,4.329-8.949,9.568c0,5.286,3.979,9.566,8.949,9.566c3.165,0,6.239-1.868,7.505-4.601h7.548V27.351z"/>
		</g>
		<g>
			<path fill="#FFFFFF" d="M46.541,38.799c-8.972,0-16.27-7.36-16.27-16.407c0-9.046,7.297-16.406,16.27-16.406
				c7.033,0,13.235,4.503,15.435,11.205c0.044,0.138,0.021,0.289-0.065,0.406c-0.084,0.118-0.22,0.188-0.363,0.188h-7.549
				c-0.177,0-0.338-0.104-0.411-0.265c-1.157-2.541-3.988-4.248-7.047-4.248c-4.686,0-8.498,4.091-8.498,9.12
				c0,5.027,3.812,9.119,8.498,9.119c2.993,0,5.91-1.785,7.094-4.342c0.074-0.158,0.233-0.262,0.411-0.262h7.547
				c0.143,0,0.279,0.07,0.364,0.188c0.085,0.116,0.107,0.267,0.065,0.405C59.82,34.26,53.6,38.799,46.541,38.799z"/>
			<path fill="#FFFFFF" d="M61.592,27.362c-2.078,6.382-8.044,10.984-15.05,10.984c-8.723,0-15.819-7.156-15.819-15.953
				c0-8.798,7.096-15.954,15.819-15.954c7.006,0,12.926,4.558,15.005,10.894h-7.548c-1.266-2.781-4.339-4.513-7.457-4.513
				c-4.971,0-8.949,4.331-8.949,9.573c0,5.288,3.977,9.574,8.949,9.574c3.164,0,6.237-1.871,7.504-4.604L61.592,27.362
				L61.592,27.362z"/>
		</g>
	</g>
	<g>
		<path fill="#0B92B4" d="M13.077,40.467h1.554l2.026,2.979v-2.979h1.567v5.384h-1.567l-2.016-2.956v2.956h-1.564V40.467z"/>
		<path fill="#0B92B4" d="M20.891,40.467h4.459v1.15H22.56v0.856h2.588v1.098H22.56v1.061h2.872v1.219h-4.54L20.891,40.467
			L20.891,40.467z"/>
		<path fill="#0B92B4" d="M27.512,40.467h5.058v1.331h-1.698v4.054h-1.664v-4.054h-1.697V40.467L27.512,40.467z"/>
		<path fill="#0B92B4" d="M34.331,40.467h1.58l0.57,3.017l0.832-3.017h1.574l0.835,3.012l0.57-3.012h1.572l-1.186,5.384h-1.631
			l-0.945-3.389l-0.941,3.389h-1.632L34.331,40.467z"/>
		<path fill="#0B92B4" d="M43.634,43.165c0-0.88,0.244-1.564,0.734-2.054c0.49-0.49,1.171-0.735,2.045-0.735
			c0.897,0,1.587,0.241,2.073,0.724c0.484,0.481,0.728,1.153,0.728,2.021c0,0.628-0.107,1.145-0.318,1.548
			c-0.211,0.402-0.518,0.715-0.917,0.94c-0.401,0.224-0.9,0.337-1.498,0.337c-0.607,0-1.109-0.097-1.507-0.29
			c-0.397-0.194-0.721-0.499-0.968-0.918C43.757,44.317,43.634,43.793,43.634,43.165z M45.297,43.171
			c0,0.543,0.101,0.933,0.303,1.171c0.201,0.238,0.477,0.355,0.824,0.355c0.358,0,0.633-0.117,0.83-0.349
			c0.196-0.23,0.293-0.649,0.293-1.252c0-0.507-0.103-0.876-0.307-1.11c-0.203-0.233-0.481-0.351-0.832-0.351
			c-0.334,0-0.605,0.119-0.807,0.355C45.399,42.23,45.297,42.623,45.297,43.171z"/>
		<path fill="#0B92B4" d="M51.694,45.85v-5.383h2.773c0.514,0,0.907,0.046,1.179,0.132c0.271,0.09,0.491,0.252,0.657,0.491
			s0.25,0.529,0.25,0.872c0,0.299-0.064,0.556-0.191,0.773s-0.302,0.391-0.525,0.525c-0.144,0.086-0.337,0.156-0.584,0.213
			c0.198,0.067,0.342,0.133,0.432,0.199c0.061,0.043,0.15,0.136,0.267,0.282c0.117,0.146,0.193,0.256,0.234,0.335l0.805,1.559
			h-1.881l-0.89-1.646c-0.113-0.211-0.213-0.35-0.301-0.412c-0.12-0.085-0.255-0.126-0.408-0.126h-0.146v2.184L51.694,45.85
			L51.694,45.85z M53.365,42.648h0.701c0.075,0,0.222-0.023,0.44-0.073c0.11-0.021,0.2-0.079,0.271-0.168
			c0.07-0.09,0.105-0.194,0.105-0.311c0-0.175-0.054-0.308-0.165-0.401c-0.11-0.095-0.317-0.14-0.621-0.14h-0.731V42.648
			L53.365,42.648z"/>
		<path fill="#0B92B4" d="M59.093,40.467h1.663v2.035l1.744-2.035h2.212L62.746,42.5L64.8,45.85h-2.048l-1.133-2.212l-0.862,0.9
			v1.312h-1.663v-5.383H59.093z"/>
		<path fill="#0B92B4" d="M70.988,40.467h1.663v4.059h2.597v1.327h-4.26V40.467L70.988,40.467z"/>
		<path fill="#0B92B4" d="M77.635,40.467h1.667v5.384h-1.667V40.467z"/>
		<path fill="#0B92B4" d="M82.042,40.467h2.187l0.843,3.276l0.839-3.276h2.188v5.384h-1.363v-4.104l-1.048,4.104h-1.234
			l-1.048-4.104v4.104h-1.362V40.467L82.042,40.467z"/>
		<path fill="#0B92B4" d="M90.79,40.467h1.663v5.384H90.79V40.467z"/>
		<path fill="#0B92B4" d="M94.835,40.467h5.059v1.331h-1.698v4.054h-1.664v-4.054h-1.698v-1.331H94.835z"/>
		<path fill="#0B92B4" d="M102.206,40.467h4.458v1.15h-2.791v0.856h2.591v1.098h-2.591v1.061h2.874v1.219h-4.541V40.467
			L102.206,40.467z"/>
		<path fill="#0B92B4" d="M109.229,40.467h2.47c0.488,0,0.882,0.067,1.182,0.199c0.299,0.132,0.549,0.321,0.743,0.569
			c0.196,0.245,0.338,0.534,0.426,0.862c0.089,0.329,0.134,0.676,0.134,1.042c0,0.577-0.067,1.021-0.197,1.339
			c-0.132,0.316-0.313,0.582-0.545,0.798c-0.232,0.214-0.483,0.355-0.751,0.428c-0.364,0.097-0.696,0.146-0.99,0.146h-2.471v-5.382
			l0,0V40.467z M110.89,41.688v2.942h0.408c0.347,0,0.595-0.04,0.742-0.118c0.147-0.075,0.263-0.21,0.346-0.404
			c0.081-0.192,0.125-0.503,0.125-0.935c0-0.57-0.095-0.961-0.28-1.17c-0.188-0.212-0.495-0.317-0.924-0.317L110.89,41.688
			L110.89,41.688z"/>
	</g>
</g>
</svg>
