<?xml version="1.0" encoding="utf-8"?>
<!-- Generator: Adobe Illustrator 16.0.0, SVG Export Plug-In . SVG Version: 6.00 Build 0)  -->
<!DOCTYPE svg PUBLIC "-//W3C//DTD SVG 1.1//EN" "http://www.w3.org/Graphics/SVG/1.1/DTD/svg11.dtd">
<svg version="1.1" id="Layer_1" xmlns="http://www.w3.org/2000/svg" xmlns:xlink="http://www.w3.org/1999/xlink" x="0px" y="0px"
	 width="122px" height="49.417px" viewBox="8.917 0 122 49.417" enable-background="new 8.917 0 122 49.417" xml:space="preserve">
<g>
	<g>
		<polygon fill="#0B92B4" points="18.478,39.212 70.996,39.212 83.582,0.988 18.084,0.988 11.35,2.353 11.35,26.303 11.35,37.955 		
			"/>
		<g>
			<path fill="#FFFFFF" d="M17.983,39.227c-7.204,0-15.636-3.447-15.694-13.163c0-0.141,0.054-0.276,0.153-0.374
				c0.099-0.1,0.233-0.155,0.372-0.155h8.005c0.28,0,0.512,0.221,0.525,0.501c0.208,4.214,3.729,5.715,6.955,5.715
				c2.022,0,5.847-0.771,5.847-3.689c0-2.51-3.475-3.367-7.497-4.361c-5.882-1.453-13.2-3.259-13.2-11.333
				c0-7.816,7.206-11.375,13.903-11.375c9.025,0,14.557,4.462,14.798,11.938c0.004,0.142-0.049,0.281-0.148,0.383
				c-0.099,0.102-0.235,0.159-0.377,0.159h-7.637c-0.268,0-0.493-0.201-0.523-0.467c-0.362-3.226-2.048-4.484-6.008-4.484
				c-1.927,0-4.793,0.856-4.793,3.213c0,2.168,3.271,2.918,7.057,3.786c6.078,1.392,13.641,3.125,13.641,11.646
				C33.361,36.059,25.417,39.227,17.983,39.227z"/>
			<path fill="#FFFFFF" d="M24.672,28.061c0-6.953-20.698-2.475-20.698-15.694c0-7.374,6.846-10.85,13.378-10.85
				c7.374,0,14.009,3.266,14.273,11.429h-7.637c-0.421-3.74-2.58-4.95-6.53-4.95c-2.212,0-5.319,1.053-5.319,3.738
				c0,6.375,20.698,1.792,20.698,15.432c0,8.427-7.531,11.534-14.852,11.534c-7.9,0-15.116-3.897-15.169-12.641h8.005
				c0.21,4.267,3.583,6.216,7.479,6.216C20.775,32.275,24.672,31.273,24.672,28.061z"/>
		</g>
		<g>
			<path fill="#0B92B4" d="M90.113,39.221c-0.225,0-0.424-0.144-0.496-0.355l-2.459-7.133h-12.89l-2.46,7.133
				c-0.072,0.212-0.272,0.355-0.497,0.355h-8.479c-0.174,0-0.336-0.088-0.434-0.229c-0.098-0.143-0.118-0.327-0.055-0.487
				L76.88,1.341c0.078-0.202,0.271-0.335,0.488-0.335h6.689c0.217,0,0.41,0.133,0.49,0.335l14.535,37.161
				c0.062,0.163,0.041,0.348-0.055,0.49c-0.1,0.143-0.264,0.229-0.434,0.229H90.113L90.113,39.221z M84.48,23.959l-3.795-11.077
				L76.892,23.96L84.48,23.959L84.48,23.959z"/>
			<path fill="#0B92B4" d="M90.113,38.695l-2.58-7.488h-13.64l-2.582,7.488h-8.479L77.369,1.53h6.689l14.535,37.166H90.113z
				 M80.685,11.258l-4.531,13.226h9.06L80.685,11.258z"/>
		</g>
		<g>
			<path fill="#0B92B4" d="M111.099,39.205c-10.453,0-18.957-8.571-18.957-19.108c0-10.537,8.504-19.108,18.957-19.108
				c8.197,0,15.42,5.245,17.984,13.051c0.053,0.161,0.027,0.337-0.074,0.472c-0.098,0.138-0.256,0.219-0.424,0.219h-8.797
				c-0.207,0-0.393-0.12-0.479-0.308c-1.348-2.959-4.646-4.948-8.211-4.948c-5.461,0-9.902,4.765-9.902,10.623
				c0,5.857,4.441,10.623,9.902,10.623c3.49,0,6.889-2.079,8.266-5.057c0.088-0.187,0.273-0.305,0.479-0.305h8.795
				c0.166,0,0.326,0.081,0.426,0.217s0.125,0.312,0.076,0.472C126.574,33.917,119.326,39.205,111.099,39.205z"/>
			<path fill="#0B92B4" d="M128.638,25.883c-2.424,7.434-9.375,12.795-17.539,12.795c-10.166,0-18.432-8.337-18.432-18.582
				c0-10.247,8.266-18.583,18.432-18.583c8.164,0,15.064,5.31,17.486,12.689h-8.797c-1.475-3.239-5.057-5.257-8.691-5.257
				c-5.791,0-10.428,5.044-10.428,11.149c0,6.159,4.637,11.148,10.428,11.148c3.689,0,7.271-2.177,8.746-5.362h8.795V25.883z"/>
		</g>
		<g>
			<path fill="#FFFFFF" d="M50.36,39.223c-10.455,0-18.959-8.577-18.959-19.119c0-10.542,8.504-19.118,18.959-19.118
				c8.195,0,15.423,5.247,17.986,13.057c0.051,0.161,0.023,0.337-0.076,0.473c-0.098,0.137-0.256,0.219-0.425,0.219h-8.795
				c-0.207,0-0.394-0.121-0.479-0.309c-1.348-2.96-4.647-4.95-8.212-4.95c-5.46,0-9.903,4.768-9.903,10.628
				c0,5.859,4.442,10.627,9.903,10.627c3.487,0,6.887-2.081,8.266-5.059c0.086-0.186,0.272-0.305,0.479-0.305h8.794
				c0.167,0,0.326,0.081,0.425,0.218c0.099,0.136,0.125,0.312,0.076,0.472C65.834,33.934,58.585,39.223,50.36,39.223z"/>
			<path fill="#FFFFFF" d="M67.899,25.895c-2.423,7.436-9.374,12.801-17.538,12.801c-10.165,0-18.434-8.34-18.434-18.591
				c0-10.252,8.27-18.591,18.434-18.591c8.164,0,15.063,5.312,17.485,12.695h-8.795c-1.476-3.241-5.057-5.259-8.69-5.259
				c-5.793,0-10.428,5.047-10.428,11.156c0,6.161,4.634,11.156,10.428,11.156c3.687,0,7.268-2.18,8.744-5.365H67.899L67.899,25.895z
				"/>
		</g>
	</g>
	<g>
		<path fill="#0B92B4" d="M11.364,41.168h1.811l2.361,3.47v-3.47h1.827v6.273h-1.827l-2.349-3.445v3.445h-1.823V41.168z"/>
		<path fill="#0B92B4" d="M20.47,41.168h5.196v1.34h-3.252v0.998h3.016v1.279h-3.016v1.236h3.347v1.42h-5.29V41.168z"/>
		<path fill="#0B92B4" d="M28.185,41.168h5.894v1.55h-1.978v4.724h-1.939v-4.724h-1.977V41.168L28.185,41.168z"/>
		<path fill="#0B92B4" d="M36.132,41.168h1.84l0.664,3.514l0.97-3.514h1.834l0.973,3.508l0.664-3.508h1.832l-1.382,6.273h-1.901
			l-1.101-3.949l-1.097,3.949h-1.901L36.132,41.168z"/>
		<path fill="#0B92B4" d="M46.972,44.31c0-1.025,0.285-1.823,0.855-2.393c0.571-0.571,1.365-0.857,2.384-0.857
			c1.045,0,1.849,0.281,2.415,0.843c0.564,0.561,0.848,1.344,0.848,2.355c0,0.732-0.125,1.334-0.371,1.803s-0.603,0.834-1.069,1.097
			c-0.467,0.26-1.048,0.392-1.745,0.392c-0.707,0-1.292-0.113-1.756-0.338c-0.462-0.226-0.84-0.581-1.127-1.07
			C47.116,45.653,46.972,45.043,46.972,44.31z M48.91,44.318c0,0.632,0.118,1.087,0.353,1.364c0.235,0.278,0.556,0.415,0.961,0.415
			c0.417,0,0.738-0.136,0.967-0.406c0.229-0.27,0.342-0.757,0.342-1.459c0-0.591-0.12-1.021-0.357-1.294
			c-0.237-0.272-0.561-0.409-0.969-0.409c-0.39,0-0.705,0.139-0.941,0.414C49.03,43.221,48.91,43.678,48.91,44.318z"/>
		<path fill="#0B92B4" d="M56.365,47.44v-6.273h3.231c0.599,0,1.057,0.053,1.374,0.154c0.316,0.104,0.573,0.293,0.767,0.572
			c0.193,0.278,0.291,0.616,0.291,1.017c0,0.348-0.075,0.647-0.223,0.901c-0.149,0.253-0.353,0.455-0.612,0.612
			c-0.167,0.1-0.393,0.182-0.681,0.249c0.231,0.078,0.399,0.153,0.504,0.231c0.071,0.05,0.175,0.158,0.311,0.329
			c0.136,0.169,0.226,0.298,0.272,0.39l0.939,1.817h-2.192l-1.037-1.918c-0.132-0.246-0.248-0.407-0.351-0.481
			c-0.14-0.098-0.297-0.146-0.475-0.146h-0.171v2.545H56.365L56.365,47.44z M58.312,43.709h0.817c0.088,0,0.259-0.028,0.513-0.086
			c0.128-0.025,0.233-0.092,0.315-0.196s0.122-0.226,0.122-0.362c0-0.203-0.063-0.359-0.192-0.468
			c-0.128-0.11-0.37-0.162-0.723-0.162h-0.852L58.312,43.709L58.312,43.709z"/>
		<path fill="#0B92B4" d="M64.987,41.168h1.938v2.371l2.031-2.371h2.578l-2.29,2.367l2.393,3.905H69.25l-1.321-2.578l-1.003,1.049
			v1.529h-1.938V41.168L64.987,41.168z"/>
		<path fill="#0B92B4" d="M78.847,41.168h1.939v4.729h3.027v1.546h-4.965v-6.275H78.847z"/>
		<path fill="#0B92B4" d="M86.593,41.168h1.943v6.273h-1.943V41.168z"/>
		<path fill="#0B92B4" d="M91.728,41.168h2.549l0.982,3.817l0.977-3.817h2.549v6.273h-1.588v-4.783l-1.221,4.783h-1.439
			l-1.221-4.783v4.783h-1.588V41.168L91.728,41.168z"/>
		<path fill="#0B92B4" d="M101.923,41.168h1.939v6.273h-1.939V41.168z"/>
		<path fill="#0B92B4" d="M106.636,41.168h5.895v1.55h-1.979v4.724h-1.938v-4.724h-1.979V41.168L106.636,41.168z"/>
		<path fill="#0B92B4" d="M115.226,41.168h5.195v1.34h-3.252v0.998h3.018v1.279h-3.018v1.236h3.348v1.42h-5.291V41.168
			L115.226,41.168z"/>
		<path fill="#0B92B4" d="M123.41,41.168h2.879c0.568,0,1.027,0.077,1.377,0.231c0.348,0.153,0.639,0.374,0.865,0.663
			c0.229,0.286,0.395,0.623,0.496,1.006c0.104,0.382,0.156,0.787,0.156,1.214c0,0.672-0.078,1.19-0.229,1.56
			c-0.154,0.369-0.365,0.678-0.635,0.929c-0.271,0.25-0.564,0.415-0.875,0.499c-0.424,0.113-0.811,0.171-1.154,0.171h-2.879v-6.272
			H123.41z M125.345,42.59v3.428h0.475c0.404,0,0.693-0.047,0.865-0.137c0.172-0.088,0.307-0.246,0.404-0.471
			c0.094-0.225,0.146-0.586,0.146-1.09c0-0.664-0.111-1.119-0.328-1.363c-0.217-0.246-0.576-0.37-1.076-0.37L125.345,42.59
			L125.345,42.59z"/>
	</g>
</g>
</svg>
