<?xml version="1.0" encoding="utf-8"?>
<!-- Generator: Adobe Illustrator 16.0.0, SVG Export Plug-In . SVG Version: 6.00 Build 0)  -->
<!DOCTYPE svg PUBLIC "-//W3C//DTD SVG 1.1//EN" "http://www.w3.org/Graphics/SVG/1.1/DTD/svg11.dtd">
<svg version="1.1" id="Layer_1" xmlns="http://www.w3.org/2000/svg" xmlns:xlink="http://www.w3.org/1999/xlink" x="0px" y="0px"
	 width="20.25px" height="20.25px" viewBox="0 0 20.25 20.25" enable-background="new 0 0 20.25 20.25" xml:space="preserve">
<path fill="#939292" d="M19.236,17.854l-4.511-4.691c1.16-1.38,1.795-3.115,1.795-4.921c0-4.221-3.434-7.654-7.654-7.654
	c-4.22,0-7.654,3.433-7.654,7.654c0,4.22,3.434,7.654,7.654,7.654c1.584,0,3.094-0.478,4.385-1.385l4.546,4.728
	c0.19,0.197,0.446,0.306,0.72,0.306c0.259,0,0.505-0.099,0.691-0.279C19.605,18.885,19.619,18.251,19.236,17.854z M8.867,2.585
	c3.12,0,5.657,2.537,5.657,5.657c0,3.12-2.538,5.657-5.657,5.657c-3.119,0-5.657-2.537-5.657-5.657
	C3.21,5.122,5.748,2.585,8.867,2.585z"/>
</svg>
